<svg width="66" height="51" viewBox="0 0 66 51" fill="none" xmlns="http://www.w3.org/2000/svg">
<path d="M16.0705 50.6499C11.2639 50.6499 7.35449 46.7405 7.35449 41.9338C7.35449 37.1272 11.2639 33.2178 16.0705 33.2178C20.8772 33.2178 24.7866 37.1272 24.7866 41.9338C24.7866 46.7405 20.8772 50.6499 16.0705 50.6499ZM16.0705 34.4995C11.9689 34.4995 8.63626 37.8322 8.63626 41.9338C8.63626 46.0355 11.9689 49.3681 16.0705 49.3681C20.1722 49.3681 23.5048 46.0355 23.5048 41.9338C23.5048 37.8322 20.1722 34.4995 16.0705 34.4995Z" fill="black"/>
<path d="M16.0705 46.6763C13.4557 46.6763 11.3279 44.5485 11.3279 41.9337C11.3279 39.3189 13.4557 37.1912 16.0705 37.1912C18.6853 37.1912 20.8131 39.3189 20.8131 41.9337C20.8131 44.5485 18.6853 46.6763 16.0705 46.6763ZM16.0705 38.4729C14.1607 38.4729 12.6097 40.0239 12.6097 41.9337C12.6097 43.8436 14.1607 45.3945 16.0705 45.3945C17.9803 45.3945 19.5313 43.8436 19.5313 41.9337C19.5313 40.0239 17.9803 38.4729 16.0705 38.4729ZM7.99533 45.9072H0.689226C0.33033 45.9072 0.0483398 45.6252 0.0483398 45.2663V38.6011C0.0483398 38.2422 0.33033 37.9602 0.689226 37.9602H7.99533C8.35422 37.9602 8.63621 38.2422 8.63621 38.6011V45.2663C8.63621 45.6252 8.35422 45.9072 7.99533 45.9072ZM1.33011 44.6254H7.35444V39.242H1.33011V44.6254Z" fill="black"/>
<path d="M3.63724 38.6012H2.35547V32.3205C2.35547 32.1667 2.40674 32.0257 2.50928 31.9104C6.38023 27.2832 12.0457 24.6299 18.0828 24.6299H24.4789L27.8627 20.4257C30.4647 17.1956 33.823 14.5424 37.5786 12.7479C41.3213 10.9534 45.4999 10.0049 49.6529 10.0049V11.2867C41.5392 11.2867 33.964 14.9141 28.8625 21.2204L25.2864 25.6553C25.171 25.8091 24.9787 25.8989 24.7865 25.8989H18.0828C12.5071 25.8989 7.25184 28.3214 3.63724 32.5384V38.6012Z" fill="black"/>
<path d="M35.0407 25.9117H29.0164C28.6575 25.9117 28.3755 25.6298 28.3755 25.2709V23.6046C28.3755 22.3356 29.4137 21.2974 30.6827 21.2974H35.0407C36.3097 21.2974 37.3479 22.3356 37.3479 23.6046C37.3479 24.8735 36.3097 25.9117 35.0407 25.9117ZM29.6573 24.63H35.0407C35.6047 24.63 36.0661 24.1685 36.0661 23.6046C36.0661 23.0406 35.6047 22.5791 35.0407 22.5791H30.6827C30.1187 22.5791 29.6573 23.0406 29.6573 23.6046V24.63ZM7.61079 32.9615H2.99641C2.75288 32.9615 2.52216 32.8205 2.41962 32.5898C2.31707 32.3591 2.34271 32.1027 2.50934 31.9104C4.26537 29.8083 6.84173 28.6035 9.58472 28.6035H10.687C11.0459 28.6035 11.3279 28.8855 11.3279 29.2444C11.3279 31.2952 9.66163 32.9615 7.61079 32.9615ZM4.54736 31.6797H7.61079C8.72594 31.6797 9.67445 30.9235 9.95644 29.8852H9.57191C7.72615 29.8852 5.95731 30.5261 4.54736 31.6797Z" fill="black"/>
<path d="M60.5479 50.6498C60.4326 50.6498 60.3172 50.6242 60.2147 50.5601C60.0224 50.4447 59.907 50.2397 59.907 50.0089V44.8434L57.3435 43.536L54.7799 44.8434V50.0089C54.7799 50.2268 54.6646 50.4447 54.4723 50.5601C54.2801 50.6755 54.0493 50.6883 53.8443 50.5857L50.4732 48.8554L51.0628 47.7146L53.511 48.9707V44.4589C53.511 44.2153 53.652 43.9974 53.8571 43.8821L57.0615 42.2414C57.2409 42.1517 57.4589 42.1517 57.6511 42.2414L60.8555 43.8821C61.0735 43.9974 61.2016 44.2153 61.2016 44.4589V48.9707L64.4061 47.33V40.2418L60.2659 38.1269C60.048 38.0116 59.9199 37.7937 59.9199 37.5501V13.7604C59.9199 13.5169 60.0609 13.299 60.2659 13.1836L64.4061 11.0687V3.99332L61.2016 2.35265V6.86449C61.2016 7.10803 61.0606 7.32593 60.8555 7.44129L57.6511 9.08196C57.4717 9.17168 57.2538 9.17168 57.0615 9.08196L53.8571 7.44129C53.6392 7.32593 53.511 7.10803 53.511 6.86449V2.35265L50.2937 3.99332V11.0815L54.4339 13.1964C54.6518 13.3118 54.7799 13.5297 54.7799 13.7732V37.5629C54.7799 37.8065 54.639 38.0244 54.4339 38.1397L50.2937 40.2418V41.8056C50.2937 42.1645 50.0118 42.4465 49.6529 42.4465H49.5247C49.3581 43.0105 49.1273 43.5488 48.8582 44.0615L50.0374 45.2408C50.1528 45.3561 50.2297 45.5227 50.2297 45.6894C50.2297 45.856 50.1656 46.0226 50.0374 46.138L47.32 48.8554C47.0637 49.1117 46.6663 49.1117 46.41 48.8554L45.2307 47.6761C44.718 47.9453 44.1797 48.176 43.6157 48.3426V50.0089C43.6157 50.3678 43.3337 50.6498 42.9748 50.6498H39.1295C38.7706 50.6498 38.4886 50.3678 38.4886 50.0089V48.3426C37.9246 48.176 37.3863 47.9453 36.8736 47.6761L35.6944 48.8554C35.438 49.1117 35.0407 49.1117 34.7843 48.8554L32.0926 46.138C31.8362 45.8816 31.8362 45.4843 32.0926 45.2279L33.2718 44.0487C33.0026 43.536 32.7719 42.9977 32.6053 42.4337H30.939C30.5801 42.4337 30.2981 42.1517 30.2981 41.7928V37.9475C30.2981 37.5886 30.5801 37.3066 30.939 37.3066H32.6053C32.7719 36.7426 33.0026 36.2043 33.2718 35.6915L32.0926 34.5123C31.8362 34.256 31.8362 33.8586 32.0926 33.6023L34.8099 30.8849C35.0663 30.6285 35.4636 30.6285 35.72 30.8849L36.8992 32.0641C37.4119 31.795 37.9503 31.5642 38.5143 31.3976V29.7313C38.5143 29.3724 38.7962 29.0904 39.1551 29.0904H43.0005C43.3594 29.0904 43.6413 29.3724 43.6413 29.7313V31.3976C44.2053 31.5642 44.7437 31.795 45.2564 32.0641L46.4356 30.8849C46.692 30.6285 47.0893 30.6285 47.3457 30.8849L50.063 33.6023C50.1784 33.7176 50.2553 33.8843 50.2553 34.0509C50.2553 34.2175 50.1912 34.3841 50.063 34.4995L48.8838 35.6787C49.153 36.1914 49.3837 36.7298 49.5503 37.2938H51.2166C51.5755 37.2938 51.8575 37.5758 51.8575 37.9347V37.9859L53.5238 37.1271V14.1578L49.3837 12.0429C49.1658 11.9275 49.0376 11.7096 49.0376 11.4661V3.59597C49.0376 3.35244 49.1786 3.13454 49.3837 3.01918L53.8699 0.724804C54.0622 0.622262 54.3057 0.63508 54.498 0.750439C54.6902 0.865799 54.8056 1.07088 54.8056 1.3016V6.46714L57.3691 7.77455L59.9327 6.46714V1.3016C59.9327 1.0837 60.048 0.865799 60.2403 0.750439C60.4326 0.63508 60.6633 0.622262 60.8684 0.724804L65.3546 3.01918C65.5725 3.13454 65.7006 3.35244 65.7006 3.59597V11.4661C65.7006 11.7096 65.5597 11.9275 65.3546 12.0429L61.1888 14.1578V37.1656L65.3289 39.2805C65.5468 39.3959 65.675 39.6138 65.675 39.8573V47.7274C65.675 47.9709 65.534 48.1888 65.3289 48.3042L60.8427 50.5986C60.753 50.6242 60.6505 50.6498 60.5479 50.6498ZM39.7832 49.3681H42.3468V47.8556C42.3468 47.5608 42.5518 47.3044 42.8338 47.2275C43.6029 47.048 44.3335 46.7404 45 46.3303C45.2564 46.1764 45.5768 46.2149 45.7819 46.42L46.8458 47.4839L48.6531 45.6766L47.5892 44.6127C47.3841 44.4076 47.3457 44.0743 47.4995 43.8308C47.9097 43.1643 48.2173 42.4337 48.3967 41.6646C48.4608 41.3826 48.7043 41.1904 48.9863 41.1775V39.8573C48.9863 39.6138 49.1273 39.3959 49.3324 39.2805L50.5245 38.6781V38.6012H49.012C48.7172 38.6012 48.4608 38.3961 48.3839 38.1141C48.2045 37.345 47.8968 36.6144 47.4867 35.9479C47.3329 35.6915 47.3713 35.3711 47.5764 35.166L48.6403 34.1022L46.833 32.2949L45.7691 33.3587C45.564 33.5638 45.2307 33.6023 44.9872 33.4484C44.3207 33.0383 43.5901 32.7307 42.821 32.5512C42.539 32.4871 42.3339 32.2308 42.3339 31.9231V30.3978H39.7704V31.9103C39.7704 32.2051 39.5653 32.4615 39.2833 32.5384C38.5143 32.7178 37.7836 33.0255 37.1171 33.4356C36.8608 33.5894 36.5403 33.551 36.3352 33.3459L35.2714 32.282L33.4641 34.0893L34.5279 35.1532C34.733 35.3583 34.7715 35.6916 34.6177 35.9351C34.2075 36.6016 33.8999 37.3322 33.7204 38.1013C33.6563 38.3833 33.3872 38.5884 33.0924 38.5884H31.5799V41.1519H33.0924C33.3872 41.1519 33.6435 41.357 33.7204 41.639C33.8999 42.408 34.2075 43.1386 34.6177 43.8052C34.7715 44.0615 34.733 44.382 34.5279 44.5871L33.4641 45.6509L35.2714 47.4582L36.3352 46.3943C36.5403 46.1893 36.8736 46.1508 37.1171 46.3046C37.7836 46.7148 38.5143 47.0224 39.2833 47.2019C39.5653 47.266 39.7704 47.5223 39.7704 47.8299V49.3681H39.7832ZM41.065 45.01C38.2323 45.01 35.9379 42.7157 35.9379 39.8829C35.9379 37.0502 38.2323 34.7559 41.065 34.7559C43.8977 34.7559 46.1921 37.0502 46.1921 39.8829C46.1921 42.7157 43.8977 45.01 41.065 45.01ZM41.065 36.0376C38.9501 36.0376 37.2197 37.768 37.2197 39.8829C37.2197 41.9979 38.9501 43.7283 41.065 43.7283C43.1799 43.7283 44.9103 41.9979 44.9103 39.8829C44.9103 37.768 43.1799 36.0376 41.065 36.0376Z" fill="black"/>
<path d="M32.2594 22.3484L31.2724 21.5281L32.0415 20.6052C35.9124 15.9139 41.6163 13.2222 47.7047 13.2222H54.1392V14.5039H47.7047C42.0009 14.5039 36.6559 17.029 33.0284 21.4255L32.2594 22.3484ZM29.0165 24.6299H51.5757V25.9117H29.0165V24.6299ZM32.9644 45.9074H24.1458C23.7869 45.9074 23.5049 45.6254 23.5049 45.2665V38.6013C23.5049 38.2424 23.7869 37.9604 24.1458 37.9604H30.9392V39.2421H24.7867V44.6256H32.9644V45.9074ZM36.7712 37.9604H45.3719V39.2421H36.7712V37.9604Z" fill="black"/>
</svg>
