<svg width="44" height="51" viewBox="0 0 44 51" fill="none" xmlns="http://www.w3.org/2000/svg">
<path d="M33.9274 36.8296C33.7561 36.7379 33.5555 36.718 33.3696 36.7742C33.1836 36.8304 33.0276 36.9581 32.9359 37.1293C32.6255 37.7074 32.2677 38.2588 31.8661 38.7778C30.9476 37.6167 29.6532 36.757 28.1323 36.3813L24.5035 35.4847V32.4634C25.6376 31.7973 26.7162 30.9265 27.6714 29.8843C27.7363 29.8134 27.7867 29.7304 27.8196 29.64C27.8525 29.5496 27.8673 29.4536 27.8631 29.3575C27.8589 29.2614 27.8359 29.1671 27.7952 29.0799C27.7546 28.9928 27.6972 28.9145 27.6262 28.8495C27.5553 28.7845 27.4723 28.7341 27.3819 28.7012C27.2915 28.6683 27.1956 28.6535 27.0995 28.6577C27.0034 28.6619 26.909 28.685 26.8219 28.7256C26.7347 28.7663 26.6564 28.8237 26.5914 28.8946C24.5523 31.1194 21.8042 32.5015 19.4194 32.5015C18.0739 32.5015 16.7785 32.1363 15.583 31.5113C15.4858 31.4148 15.3635 31.3477 15.2301 31.3174C12.5574 29.7812 10.4265 26.956 9.42258 24.0817C13.552 23.2645 16.927 20.9203 19.0829 19.034C20.9332 17.415 22.573 15.5144 23.7086 13.716C24.3566 17.5984 26.1661 21.3069 29.7919 22.7938C29.4702 24.1409 28.9662 25.4114 28.2902 26.5782C28.195 26.7461 28.17 26.9448 28.2206 27.1311C28.2712 27.3174 28.3932 27.4762 28.5602 27.573C28.7272 27.6697 28.9257 27.6967 29.1125 27.6479C29.2992 27.5991 29.4592 27.4786 29.5576 27.3126C30.2891 26.0499 30.8372 24.6793 31.1929 23.229C31.5494 23.3091 31.9101 23.3688 32.2734 23.4078C32.6763 23.4519 33.0366 23.1601 33.0799 22.7579C33.0902 22.6623 33.0815 22.5656 33.0544 22.4733C33.0274 22.381 32.9823 22.2949 32.922 22.22C32.8616 22.1452 32.7871 22.0829 32.7027 22.0368C32.6183 21.9907 32.5256 21.9617 32.43 21.9514C31.7585 21.8792 31.1291 21.7333 30.5424 21.5143C30.4589 21.4831 30.376 21.4504 30.2938 21.416L30.2921 21.4153C27.9524 20.4376 26.556 18.342 25.7543 15.9257L25.742 15.8887C24.9441 13.4621 24.9303 11.2174 24.9303 11.1941C24.9302 11.0234 24.8705 10.858 24.7616 10.7266C24.6527 10.5951 24.5012 10.5058 24.3335 10.474C24.1658 10.4422 23.9922 10.47 23.8429 10.5526C23.6935 10.6352 23.5777 10.7674 23.5155 10.9264C21.811 15.273 15.3747 21.7782 8.37025 22.7758C8.36478 22.7766 8.35951 22.778 8.35413 22.779C7.74603 22.8641 7.12348 22.9118 6.48726 22.9118C6.08277 22.9118 5.75484 23.2396 5.75484 23.6442C5.75484 24.0488 6.08277 24.3766 6.48726 24.3766C6.97846 24.3766 7.46596 24.3508 7.94916 24.302C9.06067 27.7799 11.077 29.9939 12.615 31.2578C13.1557 31.7026 13.7308 32.1038 14.3348 32.4576V35.4744L10.6608 36.3819C10.2204 36.4906 9.79188 36.6426 9.38147 36.8357V32.3238C9.38147 31.0559 7.83666 29.7142 6.51391 28.9505C5.59605 28.4206 4.63903 28.0633 3.81921 27.9446C2.4075 27.7405 1.85253 28.3043 1.64628 28.6609C1.52685 28.8689 1.4663 29.1022 1.4663 29.3541V38.7589C0.895993 39.0313 0.5 39.6122 0.5 40.2852V43.7129C0.5 43.9072 0.577165 44.0935 0.714519 44.2308C0.851874 44.3682 1.03817 44.4453 1.23242 44.4453C1.42666 44.4453 1.61296 44.3682 1.75031 44.2308C1.88767 44.0935 1.96483 43.9072 1.96483 43.7129V42.9535H8.88274V48.9492C8.88269 49.0095 8.8587 49.0674 8.81604 49.11C8.77338 49.1527 8.71554 49.1767 8.6552 49.1767H2.19237C2.13204 49.1767 2.07419 49.1527 2.03153 49.11C1.98887 49.0674 1.96488 49.0095 1.96483 48.9492V46.6426C1.96483 46.4483 1.88767 46.262 1.75031 46.1247C1.61296 45.9873 1.42666 45.9102 1.23242 45.9102C1.03817 45.9102 0.851874 45.9873 0.714519 46.1247C0.577165 46.262 0.5 46.4483 0.5 46.6426V48.9492C0.5 49.8824 1.25917 50.6416 2.19237 50.6416H8.6552C9.5884 50.6416 10.3476 49.8824 10.3476 48.9492V46.9732H32.823C32.923 46.9733 33.022 46.9528 33.1139 46.913C33.2057 46.8733 33.2884 46.8152 33.3569 46.7422C33.4254 46.6693 33.4783 46.5831 33.5122 46.4889C33.5461 46.3948 33.5603 46.2947 33.554 46.1948L33.3275 42.6021C33.2734 41.734 33.0551 40.884 32.6842 40.0972C33.2759 39.3939 33.793 38.6311 34.2275 37.8212C34.319 37.6499 34.3389 37.4492 34.2826 37.2633C34.2263 37.0773 34.0986 36.9214 33.9274 36.8296ZM7.91088 32.2774C7.61937 32.3837 6.52085 32.3004 5.0649 31.4597C3.65105 30.6435 2.99871 29.7455 2.93611 29.4013C4.1947 28.9422 7.73656 31.2539 7.91088 32.2774ZM2.93094 31.7354C3.37429 32.1191 3.86696 32.4596 4.33239 32.7282C5.33599 33.3077 6.77573 33.8855 7.91644 33.7599V38.5924H2.93084L2.93094 31.7354ZM8.88255 41.4882H1.96454V40.2848C1.96459 40.2245 1.98858 40.1666 2.03124 40.124C2.0739 40.0813 2.13174 40.0573 2.19208 40.0573L8.64749 40.0575H8.64886L8.65267 40.0573H8.65501C8.71534 40.0573 8.77319 40.0813 8.81585 40.124C8.85851 40.1666 8.8825 40.2245 8.88255 40.2848V41.4882ZM10.3473 45.5083V42.2245L10.3475 42.2206L10.3473 42.2168V40.2848C10.3473 39.6118 9.95148 39.0311 9.38118 38.7586V38.5091C9.88182 38.1848 10.433 37.9463 11.0121 37.8034L14.9145 36.8395C15.1673 36.7775 15.3919 36.6324 15.5523 36.4275C15.7127 36.2226 15.7998 35.9698 15.7994 35.7096V33.1888C17.0139 33.6946 18.251 33.9662 19.4193 33.9662C20.6045 33.9662 21.8356 33.6965 23.0385 33.1957V35.7203C23.0383 35.9805 23.1254 36.2332 23.2858 36.4381C23.4463 36.643 23.6708 36.7881 23.9234 36.8503L27.7808 37.8034C29.2293 38.1612 30.4168 39.0767 31.1334 40.2963C31.1523 40.3381 31.1752 40.3784 31.2022 40.4166C31.5803 41.1 31.8133 41.8731 31.8651 42.6941L32.0425 45.5083H10.3473Z" fill="black"/>
<path d="M36.6425 7.25014C34.9272 6.78462 34.3946 6.2521 33.9292 4.53649C33.7919 4.03093 33.3475 3.69138 32.8234 3.69138C32.2994 3.69138 31.855 4.03103 31.7177 4.53669C31.5843 5.02848 31.4436 5.41422 31.2811 5.72584C31.1895 5.62946 31.0968 5.53421 31.0029 5.4401C27.9084 2.34569 23.7947 0.641602 19.4195 0.641602C10.3866 0.641602 3.03784 7.99037 3.03784 17.0233V25.8416C3.03784 26.0358 3.11501 26.2221 3.25236 26.3595C3.38972 26.4968 3.57601 26.574 3.77026 26.574C3.96451 26.574 4.1508 26.4968 4.28815 26.3595C4.42551 26.2221 4.50267 26.0358 4.50267 25.8416V17.0233C4.50267 8.79808 11.1943 2.10643 19.4195 2.10643C23.4035 2.10643 27.1493 3.65828 29.9669 6.47593C30.066 6.57528 30.1637 6.67603 30.2599 6.77817C29.938 6.95532 29.5326 7.10659 29.0039 7.25014C28.4984 7.38744 28.1588 7.83187 28.1588 8.35589C28.1588 8.87991 28.4985 9.32434 29.0041 9.46165C30.7194 9.92707 31.2521 10.4596 31.7177 12.1758C31.8551 12.6806 32.2994 13.0197 32.8232 13.0197C33.1636 13.0197 33.4696 12.876 33.6806 12.637C34.1156 14.0492 34.3364 15.5178 34.3364 17.0233V23.5467C34.3364 23.9513 34.6642 24.2791 35.0688 24.2791C35.4734 24.2791 35.8012 23.9513 35.8012 23.5467V17.0233C35.8012 14.8284 35.3751 12.7036 34.5351 10.7009C34.9385 10.1042 35.5336 9.76272 36.6426 9.46165L36.643 9.46145C37.1479 9.32405 37.4871 8.87972 37.4871 8.35589C37.4871 7.83207 37.1479 7.38774 36.6425 7.25014ZM33.0654 10.3116L33.0606 10.3211L33.0584 10.3256C32.971 10.4959 32.8922 10.6705 32.8224 10.8487C32.3216 9.58899 31.5893 8.85696 30.3296 8.35638C30.9754 8.10101 31.4636 7.79369 31.8562 7.40268C31.8588 7.40014 31.8611 7.39731 31.8637 7.39467L31.8738 7.38393C32.2631 6.99096 32.5696 6.50405 32.8236 5.86207C33.3238 7.12114 34.0553 7.85326 35.3129 8.35394C34.3583 8.72835 33.6013 9.28176 33.0654 10.3116ZM43.2834 42.0634L40.4484 34.2742C40.3686 34.0541 40.2366 33.8565 40.0636 33.6986L40.8517 27.5086C40.9634 26.6323 40.618 25.7799 39.9279 25.2284C39.2378 24.6769 38.3302 24.5279 37.5 24.8302L35.6811 25.4922C35.6793 25.4929 35.6773 25.4932 35.6756 25.4938L33.0276 26.4576C33.0259 26.4582 33.0243 26.4592 33.0226 26.4597L31.2034 27.1218C30.3734 27.4241 29.7738 28.1215 29.5995 28.9875C29.4254 29.8536 29.7087 30.7286 30.3575 31.3282L34.9401 35.5633C34.9091 35.7954 34.9349 36.0316 35.0153 36.2516L35.8772 38.6195L35.8775 38.6206L35.8778 38.6212L37.8503 44.0407C38.7236 46.4405 42.0962 46.6131 43.1869 44.2738C43.5133 43.5742 43.5476 42.7891 43.2834 42.0634ZM35.8443 34.4047L31.3517 30.2527C31.077 29.9989 30.9619 29.6432 31.0357 29.2766C31.1094 28.91 31.3531 28.6265 31.7045 28.4986L32.247 28.3011C32.3174 28.9273 32.553 29.6193 32.9213 30.2031L33.7474 31.5129C33.8134 31.6177 33.9049 31.7041 34.0134 31.7638C34.1218 31.8236 34.2437 31.8549 34.3676 31.8547C34.4985 31.8546 34.627 31.8194 34.7398 31.7527C34.8525 31.6861 34.9453 31.5904 35.0085 31.4757C35.0717 31.361 35.1029 31.2315 35.0991 31.1006C35.0952 30.9697 35.0563 30.8422 34.9864 30.7315L34.1603 29.4215C33.7555 28.7797 33.6597 28.0589 33.6947 27.7742L36.011 26.9311C36.2209 27.1266 36.6109 27.7405 36.7132 28.4924L36.9224 30.0268C36.9772 30.4276 37.3481 30.7083 37.747 30.6537C37.9395 30.6274 38.1136 30.5258 38.2312 30.3711C38.3487 30.2165 38.4001 30.0215 38.3739 29.8291L38.1647 28.2947C38.0714 27.6107 37.8072 26.9292 37.4586 26.4043C37.7364 26.3667 38.3638 25.8535 39.0135 26.3728C39.3056 26.6062 39.446 26.9527 39.3987 27.3236L38.626 33.3922C38.6122 33.3968 38.5982 33.4001 38.5844 33.4051L35.8845 34.3878C35.8707 34.3928 35.8578 34.3993 35.8443 34.4047ZM36.5151 36.0897L39.1953 35.1143L39.6835 36.456L37.0034 37.4314L36.5151 36.0897ZM39.9641 44.3447C39.7941 44.2659 39.6413 44.1543 39.5148 44.0161C39.3882 43.878 39.2903 43.7161 39.2267 43.5399L37.5044 38.808L40.1846 37.8325L41.907 42.5645C42.344 43.7649 41.1034 44.8758 39.9641 44.3447Z" fill="black"/>
</svg>
