<svg width="51" height="51" viewBox="0 0 51 51" fill="none" xmlns="http://www.w3.org/2000/svg">
<path d="M36.6764 14.1777C36.4949 13.9961 36.2429 13.8916 35.9861 13.8916C35.7292 13.8916 35.4773 13.9961 35.2956 14.1777C35.113 14.3612 35.0102 14.6093 35.0095 14.8682C35.0095 15.125 35.1139 15.377 35.2956 15.5586C35.4774 15.7402 35.7292 15.8447 35.9861 15.8447C36.2429 15.8447 36.4949 15.7402 36.6764 15.5586C36.858 15.377 36.9626 15.125 36.9626 14.8682C36.9626 14.6113 36.8581 14.3594 36.6764 14.1777ZM14.697 27.8564H6.88452C6.34526 27.8564 5.90796 28.2936 5.90796 28.833V36.6455C5.90796 37.1849 6.34526 37.6221 6.88452 37.6221H14.697C15.2363 37.6221 15.6736 37.1849 15.6736 36.6455V28.833C15.6736 28.2936 15.2364 27.8564 14.697 27.8564ZM13.7205 35.6689H7.86108V29.8096H13.7205V35.6689ZM49.4457 20.8019C49.2673 20.7279 49.0709 20.7086 48.8815 20.7462C48.6921 20.7839 48.5181 20.8769 48.3815 21.0135L38.4305 30.9644L38.43 30.9649C38.4299 30.9651 38.4297 30.9652 38.4296 30.9654L26.8296 42.5654L26.8291 42.5659L26.8287 42.5664L20.7448 48.6503C20.6082 48.7868 20.5152 48.9609 20.4775 49.1503C20.4398 49.3397 20.4592 49.5361 20.5331 49.7145C20.607 49.893 20.7322 50.0455 20.8928 50.1528C21.0533 50.2601 21.2422 50.3174 21.4353 50.3174H49.072C49.6113 50.3174 50.0486 49.8802 50.0486 49.3408V21.7041C50.0486 21.511 49.9913 21.3221 49.884 21.1615C49.7767 21.0009 49.6242 20.8758 49.4457 20.8019ZM48.0954 48.3642H23.793L27.5197 44.6376L28.4519 45.5698C28.6426 45.7605 28.8925 45.8558 29.1424 45.8558C29.3923 45.8558 29.6422 45.7605 29.8329 45.5698C30.2143 45.1885 30.2143 44.5701 29.8329 44.1887L28.9007 43.2564L31.3867 40.7705L32.3188 41.7026C32.5095 41.8933 32.7594 41.9887 33.0093 41.9887C33.2592 41.9887 33.5091 41.8932 33.6998 41.7026C34.0812 41.3213 34.0812 40.7029 33.6998 40.3216L32.7676 39.3893L35.2535 36.9034L36.1858 37.8356C36.3765 38.0264 36.6264 38.1217 36.8763 38.1217C37.1262 38.1217 37.3761 38.0264 37.5668 37.8356C37.9482 37.4543 37.9482 36.8359 37.5668 36.4545L36.6346 35.5223L39.1204 33.0364L40.0527 33.9686C40.2434 34.1594 40.4933 34.2547 40.7432 34.2547C40.9931 34.2547 41.243 34.1594 41.4337 33.9686C41.8151 33.5873 41.8151 32.9689 41.4337 32.5875L40.5015 31.6553L42.9874 29.1693L43.9196 30.1015C44.0101 30.1923 44.1178 30.2643 44.2363 30.3134C44.3548 30.3625 44.4818 30.3877 44.6101 30.3875C44.7384 30.3876 44.8654 30.3624 44.9839 30.3134C45.1024 30.2643 45.21 30.1923 45.3006 30.1015C45.682 29.7201 45.682 29.1017 45.3006 28.7204L44.3684 27.7882L48.0954 24.0617V48.3642Z" fill="black"/>
<path d="M44.5628 32.59C44.3844 32.5161 44.188 32.4968 43.9986 32.5344C43.8092 32.5721 43.6351 32.6651 43.4986 32.8017L32.5329 43.7675C32.3964 43.9041 32.3035 44.0781 32.2658 44.2675C32.2282 44.4569 32.2476 44.6532 32.3215 44.8316C32.3954 45.01 32.5205 45.1625 32.681 45.2698C32.8415 45.3771 33.0303 45.4344 33.2234 45.4345H44.1891C44.7283 45.4345 45.1656 44.9973 45.1656 44.458V33.4923C45.1656 33.2991 45.1084 33.1103 45.0011 32.9497C44.8938 32.7891 44.7413 32.664 44.5628 32.59ZM43.2125 43.4814H35.5811L43.2125 35.8499V43.4814ZM45.2692 14.8936C45.1375 14.7619 44.9709 14.6706 44.789 14.6305C44.6072 14.5904 44.4177 14.6031 44.2428 14.6671L37.5747 17.109C37.4414 17.1579 37.3204 17.2351 37.22 17.3355L35.3451 19.2104L23.1023 6.96754C22.9191 6.78447 22.6708 6.68164 22.4118 6.68164C22.1528 6.68164 21.9044 6.78447 21.7213 6.96754L6.98468 21.7041H3.38283L22.4118 2.67507L32.854 13.1173C33.2355 13.4987 33.8537 13.4987 34.2352 13.1173C34.6165 12.736 34.6165 12.1176 34.2352 11.7362L23.1024 0.603393C22.721 0.222046 22.1028 0.222046 21.7213 0.603393L0.334597 21.9901C0.197944 22.1266 0.104866 22.3006 0.0671405 22.4901C0.0294146 22.6796 0.0487362 22.876 0.122661 23.0544C0.196585 23.2329 0.32179 23.3855 0.482433 23.4928C0.643077 23.6001 0.831939 23.6573 1.02512 23.6572H2.00168V49.3408C2.00168 49.8801 2.43899 50.3173 2.97824 50.3173H18.5042C19.0434 50.3173 19.4807 49.8801 19.4807 49.3408C19.4807 48.8014 19.0434 48.3642 18.5042 48.3642H3.9548V23.6572H7.38917C7.64815 23.6572 7.89649 23.5543 8.07969 23.3712L22.4118 9.03911L33.9639 20.5913L19.4821 35.0732V26.294H26.318C26.8573 26.294 27.2946 25.8568 27.2946 25.3174C27.2946 24.778 26.8573 24.3408 26.318 24.3408H18.5056C17.9663 24.3408 17.529 24.778 17.529 25.3174V36.6455C17.529 36.7595 17.5495 36.8682 17.5853 36.9699L16.7104 37.8448C15.1645 39.3907 15.1645 41.9061 16.7104 43.452C17.4835 44.2251 18.4986 44.6116 19.514 44.6115C20.5293 44.6115 21.5448 44.225 22.3176 43.4521L30.5532 35.2166C30.9345 34.8352 30.9345 34.2169 30.5532 33.8355C30.1718 33.4542 29.5537 33.4542 29.172 33.8355L22.9326 40.075L20.0876 37.23L37.93 19.3875L40.775 22.2325L33.9572 29.0505C33.5758 29.4318 33.5758 30.0502 33.9572 30.4315C34.3386 30.8129 34.9568 30.8129 35.3383 30.4315L42.8272 22.9427C42.9275 22.8423 43.0047 22.7213 43.0535 22.588L45.4955 15.92C45.5596 15.7451 45.5723 15.5556 45.5322 15.3737C45.4921 15.1919 45.4008 15.0253 45.2692 14.8936ZM21.5516 41.4559L20.9366 42.071C20.5566 42.451 20.0515 42.6602 19.5141 42.6602C18.9767 42.6602 18.4716 42.451 18.0917 42.071C17.7116 41.691 17.5024 41.1858 17.5024 40.6485C17.5024 40.1112 17.7115 39.6059 18.0916 39.226L18.7066 38.6109L21.5516 41.4559ZM41.7561 20.4512L39.7114 18.4065L42.9377 17.2249L41.7561 20.4512Z" fill="black"/>
<path d="M32.9284 31.46C32.7468 31.2783 32.4949 31.1738 32.238 31.1738C31.9812 31.1738 31.7292 31.2783 31.5476 31.46C31.3653 31.6436 31.2625 31.8916 31.2615 32.1504C31.2615 32.4082 31.3659 32.6592 31.5476 32.8418C31.7292 33.0234 31.9802 33.1269 32.238 33.1269C32.4949 33.1269 32.7468 33.0234 32.9284 32.8418C33.1107 32.6578 33.2135 32.4095 33.2146 32.1504C33.2146 31.8935 33.1101 31.6426 32.9284 31.46ZM22.4119 15.0635C20.3657 15.0635 18.7009 16.7282 18.7009 18.7744C18.7009 20.8206 20.3657 22.4853 22.4119 22.4853C24.4581 22.4853 26.1228 20.8206 26.1228 18.7744C26.1228 16.7282 24.4581 15.0635 22.4119 15.0635ZM22.4119 20.5322C21.4426 20.5322 20.6541 19.7437 20.6541 18.7744C20.6541 17.8052 21.4426 17.0166 22.4119 17.0166C23.3811 17.0166 24.1697 17.8052 24.1697 18.7744C24.1697 19.7437 23.3811 20.5322 22.4119 20.5322Z" fill="black"/>
</svg>
