<svg width="54" height="51" viewBox="0 0 54 51" fill="none" xmlns="http://www.w3.org/2000/svg">
<path d="M23.913 37.9053C22.7764 37.9053 21.8523 36.9829 21.8523 35.8462C21.8523 34.7096 22.7764 33.7863 23.913 33.7863C25.0497 33.7863 25.9738 34.7096 25.9738 35.8462C25.9738 36.9829 25.0497 37.9053 23.913 37.9053ZM23.913 35.5211C23.8267 35.5211 23.7439 35.5553 23.6828 35.6163C23.6217 35.6772 23.5873 35.7599 23.5871 35.8462C23.5871 36.2049 24.239 36.2049 24.239 35.8462C24.2387 35.7599 24.2043 35.6772 24.1432 35.6163C24.0821 35.5553 23.9993 35.5211 23.913 35.5211ZM31.6587 37.9053C30.5229 37.9053 29.5996 36.9829 29.5996 35.8462C29.5996 34.7096 30.5229 33.7863 31.6596 33.7863C32.7962 33.7863 33.7186 34.7096 33.7186 35.8462C33.7186 36.9829 32.7945 37.9053 31.6587 37.9053ZM31.6587 35.5211C31.5725 35.5211 31.4898 35.5553 31.4288 35.6163C31.3679 35.6773 31.3336 35.76 31.3336 35.8462C31.3336 36.2049 31.9847 36.2049 31.9847 35.8462C31.9847 35.76 31.9504 35.6773 31.8895 35.6163C31.8285 35.5553 31.7449 35.5211 31.6587 35.5211ZM38.1468 18.1269C37.959 17.8806 37.7167 17.6811 37.4389 17.5443C37.1611 17.4074 36.8553 17.3368 36.5456 17.338H16.8402L16.3278 15.4184C16.2008 14.9439 15.9207 14.5245 15.5312 14.2253C15.1416 13.926 14.6641 13.7637 14.1729 13.7634H12.88C12.6501 13.7634 12.4295 13.8547 12.267 14.0173C12.1044 14.1799 12.013 14.4004 12.013 14.6304C12.013 14.8603 12.1044 15.0808 12.267 15.2434C12.4295 15.406 12.6501 15.4974 12.88 15.4974H14.1729C14.3972 15.4974 14.593 15.6486 14.6518 15.8662L18.7943 31.3542C18.9426 31.9067 19.2689 32.395 19.7227 32.7433C20.1765 33.0917 20.7324 33.2808 21.3045 33.2814H35.2081C35.4382 33.2814 35.6588 33.19 35.8215 33.0273C35.9841 32.8647 36.0755 32.644 36.0755 32.414C36.0755 32.1839 35.9841 31.9633 35.8215 31.8006C35.6588 31.638 35.4382 31.5466 35.2081 31.5466H21.3045C20.9139 31.5466 20.5703 31.2828 20.4694 30.9064L20.1536 29.7244H33.207C33.9723 29.7235 34.7159 29.4704 35.3229 29.0043C35.9299 28.5383 36.3664 27.8852 36.5649 27.1462L38.4971 19.8768C38.5776 19.5778 38.5878 19.2643 38.5271 18.9608C38.4663 18.6572 38.3361 18.3718 38.1468 18.1269ZM36.7716 19.1837C36.8035 19.2257 36.8522 19.3122 36.8203 19.4315L35.9609 22.6642H32.9147L33.3977 19.0728H36.5456C36.6682 19.0728 36.7388 19.1417 36.7716 19.1837ZM31.1656 22.6642H27.9782V19.0728H31.6495L31.1656 22.6642ZM26.2443 19.0728V22.6642H23.0603L22.5731 19.0728H26.2443ZM20.8231 19.0728L21.3095 22.6642H18.2692L17.3073 19.0728H20.8231ZM21.5448 24.399L22.0312 27.9896H19.6957L18.7338 24.399H21.5448ZM23.2955 24.399H26.2443V27.9896H23.7811L23.2955 24.399ZM27.9782 27.9896V24.399H30.932L30.4481 27.9896H27.9782ZM33.207 27.9896H32.1989L32.682 24.399H35.5005L34.8889 26.6992C34.7897 27.0691 34.5713 27.396 34.2676 27.6293C33.9638 27.8626 33.5917 27.9892 33.2087 27.9896H33.207ZM14.7366 4.31396C14.7366 4.09851 14.651 3.89188 14.4987 3.73953C14.3463 3.58718 14.1397 3.50159 13.9242 3.50159H5.0024C4.78694 3.50159 4.58031 3.58718 4.42796 3.73953C4.27561 3.89188 4.19002 4.09851 4.19002 4.31396C4.19002 4.52942 4.27561 4.73605 4.42796 4.8884C4.58031 5.04075 4.78694 5.12634 5.0024 5.12634H13.9242C14.1397 5.12634 14.3463 5.04075 14.4987 4.8884C14.651 4.73605 14.7366 4.52942 14.7366 4.31396ZM39.2372 4.31396C39.2372 4.5439 39.1459 4.76442 38.9833 4.92701C38.8207 5.0896 38.6002 5.18094 38.3703 5.18094C38.1403 5.18094 37.9198 5.0896 37.7572 4.92701C37.5946 4.76442 37.5033 4.5439 37.5033 4.31396C37.5033 4.08402 37.5946 3.8635 37.7572 3.70091C37.9198 3.53832 38.1403 3.44698 38.3703 3.44698C38.6002 3.44698 38.8207 3.53832 38.9833 3.70091C39.1459 3.8635 39.2372 4.08402 39.2372 4.31396ZM41.9482 3.44698C41.7182 3.44698 41.4976 3.53837 41.3349 3.70104C41.1722 3.8637 41.0808 4.08433 41.0808 4.31438C41.0808 4.54443 41.1722 4.76506 41.3349 4.92773C41.4976 5.0904 41.7182 5.18178 41.9482 5.18178C42.1783 5.18178 42.3989 5.0904 42.5616 4.92773C42.7243 4.76506 42.8156 4.54443 42.8156 4.31438C42.8156 4.08433 42.7243 3.8637 42.5616 3.70104C42.3989 3.53837 42.1783 3.44698 41.9482 3.44698ZM45.5262 3.44698C45.2962 3.44698 45.0755 3.53837 44.9129 3.70104C44.7502 3.8637 44.6588 4.08433 44.6588 4.31438C44.6588 4.54443 44.7502 4.76506 44.9129 4.92773C45.0755 5.0904 45.2962 5.18178 45.5262 5.18178C45.7563 5.18178 45.9769 5.0904 46.1396 4.92773C46.3022 4.76506 46.3936 4.54443 46.3936 4.31438C46.3936 4.08433 46.3022 3.8637 46.1396 3.70104C45.9769 3.53837 45.7563 3.44698 45.5262 3.44698ZM53.1795 41.3438L50.5198 39.1016C50.5214 39.0487 50.5299 38.9957 50.5299 38.942V5.06081C50.5299 2.4565 48.4044 0.331055 45.8001 0.331055H4.77809C2.17379 0.331055 0.0483398 2.4565 0.0483398 5.06081V38.942C0.0483398 41.5463 2.17379 43.6717 4.77809 43.6717H41.1863L41.1871 46.9204C41.1871 47.6202 41.5803 48.2385 42.2137 48.5351C42.8421 48.8274 43.5722 48.7367 44.109 48.2914L45.7337 46.9405L46.6377 48.8837C46.9174 49.4902 47.419 49.9506 48.0457 50.1791C48.3541 50.2919 48.6817 50.3428 49.0098 50.3288C49.3379 50.3148 49.66 50.2363 49.9577 50.0976C50.2558 49.9599 50.5235 49.7645 50.7456 49.5227C50.9677 49.2809 51.1396 48.9974 51.2515 48.6888C51.3651 48.3808 51.4163 48.0533 51.4021 47.7253C51.388 47.3974 51.3088 47.0755 51.1692 46.7784L50.2661 44.8336L52.3445 44.4623C52.6786 44.404 52.989 44.251 53.2387 44.0213C53.4883 43.7916 53.6667 43.495 53.7525 43.1668C53.8421 42.84 53.8358 42.4943 53.7342 42.171C53.6326 41.8477 53.44 41.5606 53.1795 41.3438ZM1.77894 5.06081C1.77894 3.41422 3.1231 2.07006 4.77809 2.07006H45.8001C47.4551 2.07006 48.7992 3.41422 48.7992 5.06081V6.55618H1.77894V5.06081ZM41.1838 35.0616L41.1854 41.9336H4.77809C3.98412 41.9336 3.22255 41.6187 2.66034 41.0581C2.09813 40.4975 1.78117 39.7368 1.77894 38.9428V8.29603H48.7992V37.6516L44.1123 33.6998C43.8537 33.4795 43.537 33.3385 43.2002 33.2938C42.8634 33.2491 42.5209 33.3026 42.2137 33.4477C41.9047 33.5888 41.6431 33.8162 41.4604 34.1025C41.2776 34.3889 41.1816 34.7219 41.1838 35.0616ZM52.0378 42.7552L48.8522 43.3239C48.7214 43.3473 48.5978 43.4003 48.4908 43.479C48.3838 43.5578 48.2963 43.66 48.2351 43.7779C48.1739 43.8957 48.1406 44.0261 48.1377 44.1589C48.1349 44.2917 48.1626 44.4234 48.2187 44.5437L49.5965 47.5118C49.6391 47.6023 49.6634 47.7004 49.6679 47.8003C49.6723 47.9002 49.6569 48.0001 49.6225 48.094C49.5526 48.2841 49.4108 48.4392 49.2277 48.5258C49.1365 48.5682 49.0378 48.5922 48.9373 48.5963C48.8369 48.6005 48.7366 48.5848 48.6421 48.5502C48.5472 48.5164 48.4599 48.4639 48.3856 48.3958C48.3113 48.3277 48.2514 48.2453 48.2095 48.1537L46.8317 45.1889C46.7618 45.0394 46.6507 44.9129 46.5114 44.8242C46.3722 44.7355 46.2105 44.6884 46.0454 44.6882C45.8455 44.6882 45.6489 44.7571 45.4909 44.8882L42.9219 46.9204L42.9942 35.0246L52.0613 42.6695L52.0378 42.7552Z" fill="black"/>
</svg>
