<svg width="54" height="51" viewBox="0 0 54 51" fill="none" xmlns="http://www.w3.org/2000/svg">
<path d="M53.638 38.9443C53.638 39.6779 53.5546 40.4145 53.3903 41.1332C53.2751 41.6642 52.9887 42.1426 52.5751 42.495C48.6839 45.8884 41.8196 47.9147 34.2145 47.9147C29.7808 47.9147 25.5323 47.2181 21.9275 45.9009C21.7541 45.8375 21.613 45.7078 21.5352 45.5404C21.4574 45.3729 21.4493 45.1815 21.5128 45.0081C21.5762 44.8347 21.7058 44.6936 21.8733 44.6158C22.0407 44.538 22.2322 44.5299 22.4056 44.5933C25.8592 45.8557 29.9428 46.5232 34.2151 46.5232C41.3855 46.5232 48.0706 44.5778 51.6611 41.4464C51.86 41.2731 51.9749 41.0808 52.0339 40.823C52.175 40.2061 52.2464 39.5737 52.2464 38.9443C52.2464 34.0152 47.9503 29.6238 41.2747 27.688C39.1966 29.1456 36.7636 29.9156 34.2145 29.9156C31.6654 29.9156 29.2324 29.1451 27.1537 27.6874C26.5499 27.8618 25.9537 28.0616 25.3668 28.2864C25.2815 28.3192 25.1905 28.3349 25.0992 28.3326C25.0078 28.3302 24.9178 28.3099 24.8343 28.2727C24.7508 28.2356 24.6754 28.1823 24.6125 28.116C24.5496 28.0497 24.5004 27.9716 24.4677 27.8863C24.4348 27.801 24.4191 27.7101 24.4214 27.6188C24.4237 27.5274 24.444 27.4374 24.4811 27.3539C24.5182 27.2704 24.5714 27.1951 24.6377 27.1321C24.7039 27.0692 24.7819 27.0199 24.8672 26.9872C25.5987 26.7068 26.3435 26.4624 27.0989 26.2547L27.1085 26.253L27.1424 26.2452C27.1629 26.2411 27.1836 26.238 27.2043 26.2357C27.218 26.2339 27.2317 26.2321 27.2454 26.2315L27.2669 26.2309H27.3133L27.3335 26.2327L27.3794 26.2369L27.4068 26.2417C27.4193 26.244 27.4324 26.2458 27.4449 26.2488L27.4794 26.2589L27.5092 26.2679L27.5449 26.2815L27.5723 26.2929C27.583 26.2976 27.5932 26.3036 27.6039 26.3089C27.614 26.3143 27.6241 26.3191 27.6336 26.325C27.654 26.3368 27.6737 26.3497 27.6926 26.3637L27.6997 26.3685C29.5806 27.7738 31.8667 28.5306 34.2145 28.5252C36.5653 28.5311 38.8543 27.7727 40.7365 26.3643C40.7478 26.356 40.7591 26.3488 40.7704 26.3417L40.7954 26.3256L40.8246 26.3101L40.8573 26.2935C40.8782 26.2842 40.8995 26.2759 40.921 26.2684L40.9431 26.2619C40.9574 26.2577 40.9711 26.253 40.9854 26.25C40.9943 26.2476 41.0032 26.2464 41.0127 26.2446L41.0509 26.2375L41.086 26.2339C41.0961 26.2333 41.1068 26.2315 41.1169 26.2315H41.1557L41.1842 26.2321L41.2217 26.2357C41.2319 26.2369 41.2426 26.2375 41.2527 26.2393L41.2867 26.2458L41.3206 26.2536L41.3301 26.2559C44.8873 27.2349 47.9301 28.9146 50.1284 31.113C52.4239 33.4085 53.638 36.1171 53.638 38.9443ZM18.2863 8.74683C18.2863 8.17639 18.5715 7.68514 19.0312 7.46602L33.7322 0.442725C33.8824 0.36925 34.0473 0.331055 34.2145 0.331055C34.3817 0.331055 34.5467 0.36925 34.6968 0.442725L49.3978 7.46602C49.8575 7.68574 50.1427 8.17639 50.1427 8.74683C50.1427 9.12791 50.0147 9.47268 49.7938 9.72574V15.6397C50.0878 15.7517 50.35 15.9337 50.5577 16.1699C50.7654 16.4062 50.9123 16.6895 50.9857 16.9954C51.0591 17.3013 51.0567 17.6205 50.9788 17.9253C50.901 18.2301 50.7499 18.5112 50.5387 18.7444L51.5938 21.0898C51.7303 21.3858 51.7889 21.7118 51.7642 22.0368C51.7395 22.3617 51.6323 22.6751 51.4527 22.947C51.2783 23.2223 51.0365 23.4485 50.7503 23.6043C50.4641 23.7601 50.1429 23.8402 49.817 23.8372H48.3796C48.0537 23.8402 47.7324 23.76 47.4461 23.6043C47.1597 23.4485 46.9179 23.2223 46.7433 22.947C46.5638 22.675 46.4567 22.3617 46.4321 22.0367C46.4076 21.7117 46.4663 21.3858 46.6028 21.0898L47.6579 18.7444C47.3364 18.3894 47.1584 17.9276 47.1583 17.4487C47.1589 17.0568 47.2781 16.6742 47.5002 16.3513C47.7224 16.0285 48.037 15.7804 48.4028 15.6397V10.5034L44.5747 12.332V17.142C44.5747 23.003 39.9272 27.7714 34.2151 27.7714C28.503 27.7714 23.8555 23.003 23.8555 17.142V12.3326L19.0318 10.0282C18.5715 9.80851 18.2863 9.31786 18.2863 8.74683ZM43.182 10.6749C41.47 8.94273 37.9938 7.8346 34.2145 7.8346C30.4352 7.8346 26.959 8.94273 25.2465 10.6749V15.5974C27.3663 14.0826 30.6359 13.1799 34.2145 13.1799C37.7932 13.1799 41.0622 14.0826 43.182 15.5974V10.6749ZM43.1754 17.4052C41.4611 15.6766 37.9891 14.5709 34.2139 14.5709C30.4394 14.5709 26.9667 15.6766 25.2525 17.4052C25.3882 22.3778 29.3545 26.381 34.2139 26.381C39.074 26.381 43.0402 22.3784 43.1754 17.4052ZM49.6467 17.4493C49.6401 17.3081 49.5794 17.1749 49.4772 17.0773C49.375 16.9797 49.2391 16.9253 49.0977 16.9253C48.9564 16.9253 48.8205 16.9797 48.7183 17.0773C48.616 17.1749 48.5553 17.3081 48.5487 17.4493C48.5553 17.5905 48.616 17.7237 48.7183 17.8213C48.8205 17.9189 48.9564 17.9733 49.0977 17.9733C49.2391 17.9733 49.375 17.9189 49.4772 17.8213C49.5794 17.7237 49.6401 17.5905 49.6467 17.4493ZM50.3243 21.6615L49.2978 19.3797C49.1647 19.393 49.0307 19.393 48.8977 19.3797L47.8711 21.6615C47.8302 21.7455 47.8124 21.839 47.8195 21.9322C47.8266 22.0255 47.8584 22.1151 47.9116 22.192C47.9599 22.2721 48.0287 22.3378 48.1109 22.3825C48.193 22.4272 48.2856 22.4492 48.379 22.4463H49.8164C49.9099 22.449 50.0023 22.4269 50.0845 22.3822C50.1666 22.3376 50.2354 22.2719 50.2839 22.192C50.3369 22.1151 50.3687 22.0254 50.3758 21.9322C50.3829 21.839 50.3651 21.7456 50.3243 21.6615ZM19.6779 8.74683C19.6779 8.76767 19.6803 8.78494 19.6832 8.79684L23.8555 10.7898V10.398C23.8555 10.3682 23.8579 10.3396 23.8615 10.3111L23.8639 10.295C23.883 10.1635 23.9399 10.0405 24.0276 9.9407L24.0318 9.93534C25.9539 7.78101 29.8559 6.44245 34.2145 6.44245C38.5732 6.44245 42.4752 7.78101 44.3973 9.93534L44.4014 9.9407C44.4288 9.97226 44.4538 10.0062 44.4753 10.0425L44.4824 10.0544C44.5251 10.1286 44.5532 10.2103 44.5652 10.295L44.5676 10.3111C44.5711 10.3396 44.5735 10.3688 44.5735 10.398V10.7898L48.7458 8.79684C48.7536 8.76396 48.7536 8.7297 48.7458 8.69681L34.2145 1.75509L19.6826 8.6974C19.6794 8.71368 19.6778 8.73024 19.6779 8.74683ZM20.3043 36.8025C20.3043 39.0033 18.5138 40.7938 16.313 40.7938C14.1122 40.7938 12.3217 39.0033 12.3217 36.8025C12.3217 34.6017 14.1122 32.8112 16.313 32.8112C18.5138 32.8112 20.3043 34.6017 20.3043 36.8025ZM18.9127 36.8025C18.9121 36.1132 18.638 35.4523 18.1506 34.9649C17.6632 34.4775 17.0023 34.2034 16.313 34.2028C14.8798 34.2028 13.7133 35.3693 13.7133 36.8025C13.7133 38.2357 14.8798 39.4022 16.313 39.4022C17.0022 39.4013 17.6629 39.1271 18.1502 38.6397C18.6376 38.1524 18.9118 37.4917 18.9127 36.8025ZM21.2951 41.7846C21.0397 42.0401 20.7449 42.2312 20.4311 42.3598V49.6391C20.4311 49.6558 20.4299 49.6725 20.4287 49.6892L20.4275 49.7082C20.4257 49.7266 20.4229 49.7449 20.4192 49.763L20.4174 49.7761C20.4058 49.8306 20.3878 49.8836 20.3638 49.9339C20.3585 49.9452 20.3537 49.9565 20.3478 49.9672C20.3442 49.9744 20.3394 49.9809 20.3353 49.9881C20.3275 50.0012 20.3204 50.0137 20.312 50.0262L20.2971 50.0458C20.2882 50.0577 20.2799 50.0697 20.2704 50.081L20.268 50.0845L20.2501 50.1036L20.2245 50.131L20.1971 50.156L20.1745 50.1756C20.1644 50.184 20.153 50.1917 20.1423 50.1995L20.1197 50.2155L20.0858 50.2358L20.0608 50.2501C20.05 50.256 20.0387 50.2608 20.0274 50.2661L19.9982 50.2793L19.9661 50.2912L19.9339 50.3019L19.9018 50.3102L19.8678 50.318L19.8321 50.3233L19.8011 50.3275L19.7565 50.3299L19.7356 50.3311H19.7321C19.7142 50.331 19.6963 50.33 19.6785 50.3281L19.663 50.3269C19.643 50.3248 19.6232 50.3218 19.6034 50.318L19.5945 50.3168C19.5276 50.3032 19.4632 50.2795 19.4034 50.2465L19.3879 50.237C19.3736 50.2286 19.3587 50.2203 19.345 50.2108L19.3284 50.1983C19.3153 50.1887 19.3022 50.1792 19.2896 50.1685C19.2885 50.1679 19.2875 50.1671 19.2867 50.1661L16.313 47.6551L13.3393 50.1661L13.337 50.1679C13.3076 50.1921 13.2763 50.214 13.2435 50.2334L13.2316 50.2405C13.2004 50.2578 13.1679 50.2728 13.1345 50.2852L13.1172 50.2918C13.0842 50.3032 13.0504 50.3121 13.016 50.3185L12.9982 50.3215C12.9627 50.3272 12.9269 50.3302 12.891 50.3305C12.8666 50.3305 12.8416 50.3293 12.8171 50.3263L12.8082 50.3251C12.787 50.3226 12.766 50.3193 12.7451 50.315L12.7296 50.3108C12.7115 50.3068 12.6936 50.3018 12.676 50.2959L12.654 50.2876C12.6391 50.2822 12.6242 50.2769 12.6099 50.2703L12.5831 50.2578L12.5468 50.2388L12.5188 50.2221L12.4867 50.2006L12.4605 50.181L12.4289 50.1542C12.4083 50.1359 12.3888 50.1164 12.3706 50.0958L12.3592 50.0839C12.3478 50.0704 12.337 50.0563 12.3271 50.0417L12.3152 50.0256C12.305 50.0105 12.2954 49.995 12.2866 49.9791C12.2842 49.975 12.2812 49.9714 12.2795 49.9672C12.2686 49.9473 12.2586 49.9268 12.2497 49.9059L12.2461 49.8958C12.2297 49.8573 12.2175 49.8172 12.2098 49.7761L12.2068 49.7582C12.2038 49.7416 12.2009 49.7249 12.1991 49.7082L12.1979 49.6874C12.1967 49.6713 12.1955 49.6552 12.1955 49.6391V42.3598C11.8721 42.2274 11.5784 42.0319 11.3315 41.7846C10.9891 41.4454 10.7478 41.0177 10.6344 40.5493C10.5211 40.0808 10.5402 39.5901 10.6896 39.1319C10.2601 38.9134 9.89974 38.5799 9.64867 38.1686C9.3976 37.7573 9.26571 37.2844 9.26768 36.8025C9.26768 36.4774 9.32663 36.166 9.43381 35.879L2.04789 33.7115C2.00658 33.7009 1.96567 33.6888 1.92523 33.6752L1.88593 33.6639L1.87044 33.6585C1.8627 33.6562 1.85496 33.6544 1.84782 33.6514L1.83174 33.6448C1.8233 33.6417 1.81496 33.6383 1.80673 33.6347C0.00490885 32.9488 -0.483358 30.0126 0.674787 26.7716C1.19521 25.3157 1.98001 24.0409 2.88449 23.1822C3.89615 22.2218 4.96439 21.8687 5.89983 22.1807L5.92663 22.189L5.94271 22.1938L5.96474 22.2027L5.98022 22.2087L6.01892 22.2248C6.05822 22.2402 6.09693 22.2563 6.13504 22.2742L17.4991 27.0949L29.3473 30.5717C29.4134 30.5884 29.4795 30.6075 29.5427 30.6301L29.5593 30.6366C29.5672 30.6396 29.5749 30.6427 29.5825 30.6462C31.385 31.3315 31.8738 34.2683 30.7151 37.5099C30.1947 38.9658 29.4099 40.2406 28.5054 41.0992C27.7331 41.8322 26.9274 42.2127 26.1736 42.2127C25.9402 42.2127 25.7115 42.1746 25.4906 42.1008L25.4632 42.0924L25.4472 42.0877C25.4347 42.0835 25.4228 42.0782 25.4102 42.0734L25.4097 42.0728C25.3588 42.0535 25.3082 42.0323 25.259 42.0091L21.9739 40.6157C21.8537 41.058 21.6197 41.461 21.2951 41.7846ZM29.0824 31.9448L20.3513 29.3832C20.4264 29.9418 20.4275 30.5598 20.3543 31.2148C20.7078 31.3469 21.0287 31.5537 21.2951 31.821C21.6375 32.1602 21.8788 32.5879 21.9922 33.0563C22.1055 33.5248 22.0864 34.0155 21.937 34.4737C22.3666 34.6922 22.727 35.0257 22.978 35.4372C23.229 35.8486 23.3607 36.3217 23.3583 36.8037C23.3602 37.2768 23.2329 37.7415 22.9902 38.1477C22.7475 38.5539 22.3986 38.8861 21.9811 39.1087L25.9235 40.7813C26.3362 40.9218 26.9417 40.6652 27.5461 40.0917C28.2958 39.3802 28.9555 38.2977 29.4039 37.0437C30.3048 34.5213 29.9773 32.2783 29.0824 31.9448ZM11.3309 31.8204C11.6701 31.478 12.0978 31.2367 12.5663 31.1233C13.0347 31.01 13.5254 31.0291 13.9836 31.1785C14.1128 30.9236 14.2831 30.695 14.4838 30.4985C14.7672 29.2689 14.7708 28.1215 14.4957 27.3337L7.59805 24.4071C7.63199 24.5637 7.65997 24.7274 7.68141 24.8971C7.83682 26.1345 7.63556 27.6183 7.11514 29.0742C6.49171 30.8177 5.55567 32.1902 4.53864 32.9922L10.3329 34.6922C10.4449 34.6101 10.5634 34.5362 10.6884 34.4725C10.5393 34.0143 10.5205 33.5237 10.6339 33.0554C10.7474 32.5871 10.9887 32.1596 11.3309 31.8204ZM16.0248 29.7738C16.5523 29.7125 17.0859 29.8142 17.5539 30.0652C18.0218 30.3162 18.4017 30.7045 18.6424 31.1779C18.749 31.1428 18.8579 31.116 18.9675 31.0951C19.064 30.2621 19.0193 29.5077 18.8365 28.9384L17.068 28.4192L17.0645 28.418L17.0281 28.4055C17.0174 28.4013 17.0061 28.3984 16.996 28.3936C16.9947 28.3929 16.9933 28.3925 16.9918 28.3924L16.0522 27.9935C16.1112 28.5425 16.1022 29.1427 16.0248 29.7738ZM2.30691 32.3372L2.34859 32.3497C2.41945 32.3712 2.49388 32.3837 2.57367 32.3837C3.51031 32.3837 4.98165 30.91 5.80516 28.6056C6.25353 27.351 6.42978 26.0958 6.30116 25.0704C6.20351 24.2939 5.92842 23.7324 5.55626 23.5407L5.46635 23.5032C5.38825 23.477 5.30637 23.4639 5.224 23.4645C4.83398 23.4645 4.33738 23.7223 3.84197 24.1921C3.0923 24.9037 2.43314 25.9862 1.98417 27.2402C1.08386 29.7607 1.41195 32.0038 2.30691 32.3372ZM16.762 46.2135L19.0396 48.1368V42.5212C18.9051 42.5003 18.7724 42.4686 18.643 42.4265C18.2107 43.2786 17.3294 43.8478 16.3136 43.8478C15.2978 43.8478 14.4165 43.2786 13.9842 42.4265C13.8546 42.4685 13.7217 42.5002 13.5871 42.5212V48.1368L15.8646 46.2135C15.9902 46.1077 16.1491 46.0496 16.3133 46.0496C16.4775 46.0496 16.6364 46.1077 16.762 46.2135ZM20.6538 39.7369L20.6461 39.694C20.6057 39.4962 20.5169 39.3114 20.3877 39.1563C20.3065 39.0588 20.2535 38.9409 20.2345 38.8155C20.2154 38.6901 20.231 38.5618 20.2796 38.4446C20.3281 38.3274 20.4078 38.2257 20.5099 38.1505C20.6121 38.0752 20.7329 38.0294 20.8592 38.0178C21.1629 37.9911 21.4454 37.8511 21.6507 37.6258C21.856 37.4004 21.969 37.1061 21.9674 36.8013C21.969 36.4965 21.856 36.2022 21.6507 35.9768C21.4454 35.7515 21.1629 35.6116 20.8592 35.5848C20.7328 35.5735 20.6119 35.5277 20.5096 35.4525C20.4073 35.3773 20.3275 35.2756 20.2789 35.1583C20.2303 35.041 20.2148 34.9126 20.234 34.7871C20.2531 34.6616 20.3063 34.5438 20.3877 34.4463C20.5835 34.2127 20.6843 33.9141 20.67 33.6096C20.6558 33.3051 20.5276 33.0172 20.3108 32.8029C20.0965 32.5863 19.8085 32.4581 19.5041 32.4439C19.1997 32.4297 18.901 32.5304 18.6674 32.7261C18.5699 32.8072 18.4521 32.8602 18.3266 32.8793C18.2012 32.8983 18.0729 32.8827 17.9557 32.8342C17.8385 32.7856 17.7368 32.7059 17.6616 32.6038C17.5863 32.5016 17.5405 32.3808 17.5289 32.2545C17.5022 31.9508 17.3622 31.6683 17.1369 31.463C16.9115 31.2578 16.6172 31.1447 16.3124 31.1463C16.0218 31.1463 15.7557 31.247 15.5455 31.4149L15.5252 31.4316C15.2871 31.631 15.1263 31.9204 15.0953 32.2539C15.0836 32.3801 15.0376 32.5008 14.9623 32.6028C14.8871 32.7048 14.7854 32.7844 14.6683 32.8329C14.5511 32.8815 14.423 32.8971 14.2976 32.8782C14.1722 32.8592 14.0544 32.8064 13.9568 32.7255C13.7233 32.5297 13.4246 32.4288 13.1201 32.4431C12.8157 32.4573 12.5277 32.5855 12.3134 32.8023C12.0968 33.0166 11.9686 33.3046 11.9544 33.609C11.9402 33.9134 12.0409 34.2121 12.2366 34.4457C12.3177 34.5432 12.3707 34.6611 12.3898 34.7865C12.4088 34.9119 12.3932 35.0402 12.3447 35.1574C12.2961 35.2746 12.2165 35.3763 12.1143 35.4516C12.0121 35.5268 11.8913 35.5727 11.765 35.5842C11.4673 35.6116 11.2053 35.7426 11.0106 35.9397L10.982 35.9683C10.7795 36.1868 10.6569 36.4792 10.6569 36.8007C10.6569 37.4361 11.1332 37.9589 11.765 38.0172C11.8912 38.029 12.0119 38.0749 12.1139 38.1502C12.216 38.2255 12.2955 38.3271 12.344 38.4443C12.3926 38.5614 12.4082 38.6896 12.3893 38.8149C12.3703 38.9403 12.3175 39.0581 12.2366 39.1557C12.0408 39.3893 11.94 39.688 11.9542 39.9924C11.9684 40.2969 12.0966 40.5849 12.3134 40.7991C12.5066 40.993 12.7592 41.1165 13.0309 41.1499C13.1958 41.17 13.363 41.1561 13.5223 41.109C13.6815 41.0618 13.8294 40.9825 13.9568 40.876C14.0543 40.7948 14.1722 40.7419 14.2976 40.7229C14.423 40.7039 14.5512 40.7195 14.6684 40.7682C14.9072 40.867 15.0715 41.0903 15.0953 41.3475C15.1221 41.6512 15.262 41.9337 15.4873 42.139C15.7127 42.3442 16.007 42.4573 16.3118 42.4557C16.6166 42.4573 16.9109 42.3442 17.1363 42.139C17.3616 41.9337 17.5016 41.6512 17.5283 41.3475C17.5401 41.2213 17.5861 41.1007 17.6613 40.9986C17.7366 40.8966 17.8382 40.817 17.9554 40.7685C18.0725 40.72 18.2007 40.7043 18.326 40.7233C18.4514 40.7422 18.5692 40.795 18.6668 40.876C18.9003 41.072 19.1991 41.173 19.5037 41.1589C19.8083 41.1448 20.0964 41.0166 20.3108 40.7997C20.449 40.663 20.5523 40.4951 20.612 40.3101C20.6717 40.1252 20.686 39.9285 20.6538 39.7369Z" fill="black"/>
</svg>
