<svg width="56" height="51" viewBox="0 0 56 51" fill="none" xmlns="http://www.w3.org/2000/svg">
<path d="M25.6327 16.133C25.8843 16.133 26.1359 16.0668 26.3653 15.9343L32.7355 12.2564C33.1942 11.9915 33.4682 11.5172 33.4682 10.9874C33.4682 10.4575 33.1942 9.98329 32.7355 9.71837L26.3653 6.04056C25.9066 5.77554 25.3588 5.77554 24.9 6.04056C24.4413 6.30537 24.1674 6.77974 24.1674 7.30946V14.6652C24.1674 15.1949 24.4413 15.6694 24.9 15.9342C25.1224 16.0639 25.3752 16.1325 25.6327 16.133ZM25.7955 7.59166L31.6773 10.9875L25.7955 14.3834V7.59166Z" fill="black"/>
<path d="M33.779 21.8689C34.3557 21.8689 34.8232 21.4014 34.8232 20.8247C34.8232 20.248 34.3557 19.7805 33.779 19.7805C33.2023 19.7805 32.7347 20.248 32.7347 20.8247C32.7347 21.4014 33.2023 21.8689 33.779 21.8689Z" fill="black"/>
<path d="M38.2548 23.0201C38.824 22.9274 39.2103 22.3909 39.1176 21.8216C39.0249 21.2524 38.4883 20.8662 37.9191 20.9589C37.3499 21.0516 36.9636 21.5881 37.0563 22.1573C37.149 22.7266 37.6856 23.1128 38.2548 23.0201Z" fill="black"/>
<path d="M52.7436 0.317383H9.27847C9.17157 0.317383 9.06573 0.338437 8.96697 0.379344C8.86821 0.420251 8.77848 0.480209 8.70289 0.555796C8.6273 0.631382 8.56735 0.721116 8.52644 0.819874C8.48553 0.918632 8.46448 1.02448 8.46448 1.13137C8.46448 1.23827 8.48553 1.34412 8.52644 1.44288C8.56735 1.54163 8.6273 1.63137 8.70289 1.70695C8.77848 1.78254 8.86821 1.8425 8.96697 1.88341C9.06573 1.92431 9.17157 1.94537 9.27847 1.94537H52.7436C53.4917 1.94537 54.1003 2.55393 54.1003 3.30213V15.7932C54.1003 16.0091 54.1861 16.2162 54.3388 16.3688C54.4914 16.5215 54.6985 16.6072 54.9143 16.6072C55.1302 16.6072 55.3373 16.5215 55.4899 16.3688C55.6426 16.2162 55.7283 16.0091 55.7283 15.7932V3.30213C55.7283 1.65642 54.3894 0.317383 52.7436 0.317383Z" fill="black"/>
<path d="M54.9144 19.2422C54.6985 19.2422 54.4914 19.328 54.3388 19.4807C54.1861 19.6333 54.1004 19.8403 54.1004 20.0562V28.9229H51.4126L51.7012 26.531C51.7621 26.0211 51.6355 25.5064 51.3451 25.0829C51.6881 24.4241 51.8319 23.6743 51.7516 22.9204C51.564 21.1594 50.1482 19.7479 48.3849 19.5641C48.2651 19.5517 48.1448 19.5448 48.0244 19.5435C48.0391 19.4075 48.0466 19.2703 48.0466 19.1327C48.0466 17.1757 46.5553 15.5603 44.646 15.3631C44.2222 13.5181 42.5053 12.2635 40.569 12.4567C38.8739 12.6259 37.4958 13.9182 37.2175 15.5994C37.1948 15.737 37.1795 15.8757 37.1716 16.0149C37.0957 16.0103 37.0196 16.0081 36.9435 16.0081C36.0028 16.0072 35.0956 16.3569 34.399 16.9891C33.7025 16.3569 32.7953 16.0071 31.8546 16.0081C29.8387 16.0081 28.1855 17.5901 28.0711 19.5778C27.6102 19.6792 27.1721 19.8652 26.7789 20.1264H16.8631C16.504 18.7989 15.2897 17.8191 13.8502 17.8191C12.4107 17.8191 11.1963 18.7989 10.8373 20.1264H8.52801C8.31213 20.1264 8.10508 20.2121 7.95243 20.3648C7.79978 20.5174 7.71402 20.7245 7.71402 20.9404C7.71402 21.1563 7.79978 21.3633 7.95243 21.5159C8.10508 21.6686 8.31213 21.7544 8.52801 21.7544H10.8371C11.1962 23.0819 12.4106 24.0616 13.85 24.0616C15.2894 24.0616 16.5038 23.0819 16.8629 21.7544H25.4075C25.1663 22.3018 25.0574 22.9035 25.0965 23.5234C25.1312 24.0596 25.2806 24.582 25.5346 25.0555C25.2316 25.484 25.0985 26.0098 25.1611 26.531L25.4497 28.9229H1.67656V3.30213C1.67656 2.55404 2.28512 1.94537 3.03332 1.94537H5.2007C5.3076 1.94537 5.41344 1.92431 5.5122 1.88341C5.61096 1.8425 5.70069 1.78254 5.77628 1.70695C5.85187 1.63137 5.91183 1.54163 5.95273 1.44288C5.99364 1.34412 6.01469 1.23827 6.01469 1.13137C6.01469 1.02448 5.99364 0.918632 5.95273 0.819874C5.91183 0.721116 5.85187 0.631382 5.77628 0.555795C5.70069 0.480209 5.61096 0.420251 5.5122 0.379344C5.41344 0.338437 5.3076 0.317383 5.2007 0.317383H3.03332C1.38739 0.317383 0.0484619 1.65642 0.0484619 3.30213V34.826C0.0484619 36.4718 1.38739 37.8107 3.03321 37.8107H20.8764V44.1727H18.419C18.2031 44.1727 17.9961 44.2585 17.8434 44.4111C17.6908 44.5638 17.605 44.7708 17.605 44.9867C17.605 45.2026 17.6908 45.4096 17.8434 45.5623C17.9961 45.7149 18.2031 45.8007 18.419 45.8007H27.4867L27.807 48.4545C27.9351 49.5164 28.8383 50.3174 29.9082 50.3174H46.9542C48.024 50.3174 48.9273 49.5165 49.0555 48.4545L50.34 37.8107H52.7437C54.3895 37.8107 55.7285 36.4717 55.7285 34.826V20.0563C55.7284 19.8404 55.6427 19.6334 55.49 19.4807C55.3373 19.328 55.1303 19.2423 54.9144 19.2422ZM28.8764 21.1182C29.3815 21.1599 29.8242 20.6653 29.7249 20.167C29.4865 18.8641 30.5298 17.6238 31.8544 17.6362C32.1706 17.636 32.483 17.7052 32.7695 17.839C33.056 17.9728 33.3096 18.1679 33.5124 18.4105C33.946 18.9555 34.8517 18.9554 35.2852 18.4107C35.7926 17.7966 36.6287 17.5129 37.4047 17.6854C38.1475 17.8672 38.8988 17.1972 38.8038 16.4385C38.67 15.2883 39.5794 14.1809 40.7304 14.0768C41.9137 13.958 42.9556 14.7859 43.0999 15.9597C43.1708 16.5365 43.6663 16.9711 44.2554 16.9711H44.2568C45.4488 16.9711 46.4185 17.9408 46.4185 19.1328C46.4185 19.3383 46.3897 19.5413 46.333 19.7364C46.0779 20.5186 46.8178 21.3619 47.6265 21.2009C48.8216 20.9826 50.0192 21.882 50.1325 23.0929C50.1727 23.4688 50.1147 23.8486 49.964 24.1954C49.8439 24.1734 49.7221 24.1619 49.6 24.161H27.2623C27.1472 24.161 27.0336 24.1733 26.9214 24.1917C26.8067 23.9498 26.7388 23.6884 26.7213 23.4213C26.6832 22.8156 26.8895 22.24 27.3024 21.8005C27.7155 21.3605 28.2751 21.1182 28.8764 21.1182ZM42.7497 48.6894L43.034 40.3394C43.1883 40.2463 43.339 40.1474 43.4857 40.0428C44.3743 39.4059 45.0159 38.6293 45.3784 37.7743L44.6468 48.6894H42.7497ZM32.2155 48.6894L31.4839 37.7744C31.8465 38.6294 32.4881 39.4059 33.3766 40.0428C33.5234 40.1474 33.6741 40.2463 33.8284 40.3394L34.1127 48.6894H32.2155ZM38.4312 39.9273C35.3082 39.9273 32.7675 38.2094 32.7675 36.0978C32.7675 33.9862 35.3082 32.2683 38.4312 32.2683C41.5541 32.2683 44.0948 33.9862 44.0948 36.0978C44.0948 38.2094 41.5541 39.9273 38.4312 39.9273ZM39.2452 30.6747V25.789H41.9005L41.7156 31.2186C40.9473 30.9304 40.1128 30.7459 39.2452 30.6747ZM37.6172 30.6747C36.7496 30.7459 35.9151 30.9304 35.1468 31.2186L34.9619 25.789H37.6173V30.6747H37.6172ZM33.3328 25.789L33.5456 32.0371C33.4889 32.0753 33.4317 32.113 33.3765 32.1527C32.3045 32.9211 31.5913 33.8922 31.2951 34.96L30.6803 25.789H33.3328ZM35.483 41.0947C36.1563 41.3157 36.8745 41.4598 37.6171 41.5208V48.6894H35.7416L35.483 41.0947ZM39.2452 41.5208C39.9877 41.4598 40.7059 41.3158 41.3794 41.0947L41.1208 48.6894H39.2452V41.5208ZM45.5672 34.9602C45.2711 33.8924 44.5578 32.9211 43.4858 32.1527C43.4306 32.1131 43.3734 32.0754 43.3167 32.0372L43.5295 25.7891H46.1819L45.5672 34.9602ZM13.85 22.4336C13.0267 22.4336 12.3568 21.7637 12.3568 20.9404C12.3568 20.117 13.0267 19.4471 13.85 19.4471C14.6734 19.4471 15.3433 20.117 15.3433 20.9404C15.3433 21.7637 14.6734 22.4336 13.85 22.4336ZM1.67656 34.8261V30.5511H25.6463L26.326 36.1828H3.03321C2.28512 36.1827 1.67656 35.5742 1.67656 34.8261ZM22.5045 44.1728V37.8108H26.5224L27.2902 44.1728H22.5045ZM29.4233 48.2596L26.7775 26.3361C26.7689 26.2675 26.7751 26.1978 26.7958 26.1318C26.8164 26.0658 26.8509 26.0049 26.897 25.9534C26.9427 25.9015 26.9989 25.8599 27.0619 25.8316C27.1249 25.8032 27.1933 25.7887 27.2624 25.789H29.0488L30.5838 48.6894H29.9083C29.7889 48.6894 29.6737 48.6456 29.5843 48.5665C29.495 48.4873 29.4377 48.3781 29.4233 48.2596ZM47.4391 48.2596C47.4247 48.3781 47.3675 48.4872 47.2781 48.5664C47.1888 48.6456 47.0736 48.6893 46.9542 48.6894H46.2788L47.8138 25.789H49.6C49.7912 25.789 49.911 25.892 49.9654 25.9534C50.0115 26.0049 50.046 26.0658 50.0666 26.1318C50.0872 26.1978 50.0935 26.2675 50.0849 26.3361L47.4391 48.2596ZM52.7436 36.1827H50.5364L51.2161 30.551H54.1004V34.826C54.1003 35.5742 53.4917 36.1827 52.7436 36.1827Z" fill="black"/>
</svg>
