<svg width="51" height="50" viewBox="0 0 51 50" fill="none" xmlns="http://www.w3.org/2000/svg">
<path d="M41.9533 30.2296L32.8654 35.5229C32.4097 35.7883 31.9464 35.9757 31.4629 36.0875C31.642 35.8001 31.7824 35.4751 31.8788 35.1152C32.3433 33.3812 31.3128 31.5709 29.5326 30.9938C29.498 30.9826 29.4627 30.9737 29.427 30.9672C26.8151 30.4962 24.2371 29.5641 22.1656 28.8153C21.446 28.5551 20.7664 28.3093 20.1884 28.122C17.862 27.3672 15.7585 28.3016 14.0078 29.3151L7.24643 33.2298L6.60894 32.1034C6.32759 31.6062 5.86802 31.248 5.31501 31.0947C4.76219 30.9413 4.18367 31.0119 3.6864 31.2934L1.13655 32.7366C0.639177 33.018 0.280916 33.4775 0.127592 34.0305C-0.0257317 34.5835 0.0449324 35.162 0.326379 35.6591L7.82293 48.9052C8.10427 49.4023 8.56384 49.7606 9.11686 49.9139C9.30809 49.967 9.50234 49.9932 9.69528 49.9932C10.0602 49.9932 10.4202 49.8993 10.7455 49.7152L13.2954 48.2721C13.7927 47.9907 14.1508 47.5312 14.3042 46.9782C14.4575 46.4252 14.3868 45.8467 14.1054 45.3496L13.3325 43.9839L14.8738 43.0939L26.5137 46.2129C27.1711 46.3892 27.8165 46.4771 28.4479 46.4771C29.7067 46.4771 30.9102 46.1274 32.0427 45.4301L48.5354 35.2746C50.0388 34.349 50.5158 32.016 49.5359 30.3802C49.0602 29.586 47.108 27.2277 41.9533 30.2296ZM12.75 46.5473C12.7317 46.6147 12.7004 46.6777 12.6576 46.7328C12.6149 46.7879 12.5616 46.834 12.501 46.8684L9.95102 48.3115C9.70052 48.4536 9.36867 48.3617 9.22643 48.1107L1.72999 34.8648C1.69571 34.8041 1.67381 34.7371 1.66556 34.6679C1.6573 34.5986 1.66286 34.5285 1.6819 34.4614C1.7001 34.394 1.73148 34.331 1.77422 34.2759C1.81696 34.2208 1.87021 34.1747 1.93089 34.1403L4.48075 32.6972C4.5595 32.6525 4.64849 32.6291 4.73901 32.6292C4.78729 32.6292 4.83608 32.6358 4.88417 32.6492C4.95149 32.6674 5.01453 32.6988 5.06966 32.7415C5.12478 32.7842 5.1709 32.8374 5.20533 32.8981L12.7019 46.1441C12.7362 46.2048 12.758 46.2717 12.7663 46.3409C12.7746 46.4101 12.769 46.4803 12.75 46.5473ZM47.6897 33.9012L31.197 44.0567C29.8892 44.862 28.4539 45.0633 26.9313 44.655L14.9687 41.4496C14.7621 41.3944 14.5421 41.4234 14.3568 41.5301L12.5382 42.5801L8.04087 34.6336L14.816 30.711C16.3315 29.8334 17.9712 29.0983 19.6908 29.6562C20.2432 29.8353 20.88 30.0655 21.6172 30.3321C23.7306 31.0962 26.3572 32.0458 29.0825 32.5439C30.0321 32.8758 30.5632 33.7932 30.3208 34.6978C30.0019 35.8879 29.01 36.0356 28.2217 35.9451C26.883 35.6698 25.6108 35.3068 24.2649 34.9225C23.6267 34.7401 22.9666 34.5517 22.2883 34.3699C21.8585 34.2549 21.4159 34.5101 21.3006 34.9402C21.2732 35.0425 21.2662 35.1492 21.28 35.2542C21.2939 35.3592 21.3282 35.4604 21.3812 35.5521C21.4341 35.6439 21.5046 35.7242 21.5887 35.7887C21.6727 35.8532 21.7686 35.9005 21.8709 35.9279C22.5365 36.1062 23.19 36.2929 23.822 36.4733C25.2091 36.8695 26.5194 37.2437 27.9304 37.5321C27.9357 37.5332 27.941 37.5336 27.9465 37.5345C27.9519 37.5354 27.957 37.537 27.9624 37.5379L29.0925 37.7217C30.7824 37.9922 32.2824 37.7289 33.677 36.9166L42.7651 31.6232C45.381 30.0995 47.3951 29.9446 48.1522 31.2088C48.674 32.0801 48.4406 33.4389 47.6897 33.9012ZM5.22055 35.2554C5.23785 35.3737 5.23167 35.4943 5.20238 35.6102C5.17309 35.7261 5.12125 35.8351 5.04983 35.931C4.97841 36.0269 4.8888 36.1077 4.78612 36.169C4.68345 36.2302 4.56971 36.2707 4.45141 36.288C4.33311 36.3053 4.21256 36.2991 4.09665 36.2698C3.98074 36.2405 3.87173 36.1887 3.77585 36.1172C3.67997 36.0458 3.59909 35.9562 3.53784 35.8535C3.47659 35.7509 3.43616 35.6371 3.41887 35.5188C3.38668 35.2812 3.44954 35.0404 3.59381 34.8489C3.73808 34.6573 3.9521 34.5304 4.18939 34.4957C4.42668 34.461 4.66807 34.5213 4.86114 34.6636C5.05421 34.8058 5.18336 35.0185 5.22055 35.2554ZM50.0483 5.43373V3.89857C50.0483 2.3009 48.7485 1.00102 47.1509 1.00102H34.0081C32.4104 1.00102 31.1107 2.3009 31.1107 3.89857V5.43373C31.1107 6.255 31.4547 6.99703 32.0055 7.52484C31.4547 8.05256 31.1107 8.79459 31.1107 9.61585V11.151C31.1107 11.2659 31.1179 11.3807 31.1316 11.4946C26.9118 12.4481 23.7509 16.2272 23.7509 20.7311C23.7509 25.9523 27.9987 30.2 33.2199 30.2C36.7104 30.2 39.7653 28.3013 41.4074 25.4829H47.1509C48.7486 25.4829 50.0483 24.1831 50.0483 22.5855V21.0502C50.0483 20.2289 49.7043 19.4869 49.1535 18.9592C49.7043 18.4315 50.0483 17.6895 50.0483 16.8682V15.333C50.0483 14.5118 49.7043 13.7698 49.1535 13.242C49.7043 12.7143 50.0483 11.9723 50.0483 11.151V9.61585C50.0483 8.79459 49.7043 8.05266 49.1535 7.52484C49.7043 6.99703 50.0483 6.255 50.0483 5.43373ZM33.2199 28.587C28.888 28.587 25.3638 25.0629 25.3638 20.731C25.3638 16.399 28.888 12.8749 33.2199 12.8749C37.5518 12.8749 41.0759 16.399 41.0759 20.731C41.0759 25.0629 37.5517 28.587 33.2199 28.587ZM48.4355 21.0502V22.5854C48.4355 23.2936 47.8592 23.8699 47.1509 23.8699H42.1532C42.5084 22.8616 42.6895 21.8001 42.6887 20.731C42.6887 20.4052 42.6722 20.0831 42.6398 19.7655H47.1508C47.8592 19.7655 48.4355 20.3419 48.4355 21.0502ZM48.4355 15.3329V16.8681C48.4355 17.5764 47.8592 18.1527 47.1509 18.1527H42.3318C41.8866 16.5811 41.0448 15.1746 39.9219 14.0484H47.1509C47.8592 14.0485 48.4355 14.6247 48.4355 15.3329ZM48.4355 9.61575V11.1509C48.4355 11.8593 47.8592 12.4355 47.1509 12.4355H37.7814C36.4276 11.688 34.8727 11.2619 33.2199 11.2619C33.056 11.2619 32.8929 11.2661 32.731 11.2744C32.7265 11.2334 32.724 11.1922 32.7235 11.1509V9.61575C32.7235 8.90749 33.2998 8.33119 34.0081 8.33119H47.1509C47.8592 8.33119 48.4355 8.90749 48.4355 9.61575ZM34.0081 6.7183C33.2998 6.7183 32.7235 6.14199 32.7235 5.43363V3.89857C32.7235 3.19021 33.2998 2.6139 34.0081 2.6139H47.1509C47.8592 2.6139 48.4355 3.19021 48.4355 3.89857V5.43373C48.4355 6.14209 47.8592 6.7184 47.1509 6.7184L34.0081 6.7183ZM36.7841 22.6615C36.874 23.4013 36.6745 24.0777 36.2073 24.6177C35.7144 25.1876 34.9272 25.5834 34.0262 25.731V26.2126C34.0262 26.4264 33.9413 26.6316 33.79 26.7828C33.6388 26.934 33.4337 27.019 33.2198 27.019C33.0059 27.019 32.8008 26.934 32.6496 26.7828C32.4983 26.6316 32.4133 26.4264 32.4133 26.2126V25.7181C31.0367 25.4556 29.978 24.5385 29.6584 23.2561C29.6077 23.049 29.6412 22.8302 29.7515 22.6477C29.8617 22.4651 30.0398 22.3337 30.2467 22.2821C30.4536 22.2306 30.6726 22.2631 30.8556 22.3725C31.0386 22.482 31.1708 22.6594 31.2233 22.8661C31.473 23.8676 32.5056 24.1985 33.3135 24.1811C34.02 24.1643 34.6769 23.9215 34.9873 23.5626C35.1556 23.3679 35.2177 23.1434 35.1829 22.8558C35.1241 22.3724 34.8339 21.7806 33.0969 21.4956C30.5652 21.0797 29.9741 19.7635 29.9241 18.7325C29.8547 17.3061 30.8436 16.1129 32.3845 15.7633L32.4131 15.7569V15.2493C32.4131 15.0354 32.4981 14.8303 32.6493 14.679C32.8006 14.5278 33.0057 14.4428 33.2196 14.4428C33.4335 14.4428 33.6386 14.5278 33.7898 14.679C33.9411 14.8303 34.026 15.0354 34.026 15.2493V15.7498C35.0393 15.959 36.0107 16.5898 36.5134 17.7871C36.5962 17.9843 36.5973 18.2063 36.5164 18.4043C36.4355 18.6023 36.2793 18.76 36.0821 18.8429C35.8849 18.9257 35.6629 18.9267 35.4649 18.8458C35.2669 18.765 35.1091 18.6087 35.0263 18.4115C34.6041 17.4063 33.5747 17.1473 32.7413 17.3361C32.1339 17.4739 31.498 17.8926 31.5349 18.6542C31.5476 18.9162 31.5815 19.6121 33.3581 19.9039C35.451 20.2475 36.6036 21.1752 36.7841 22.6615ZM16.2222 7.65428H17.7754V17.6281C17.7754 17.8419 17.8603 18.0471 18.0116 18.1983C18.1628 18.3495 18.3679 18.4345 18.5818 18.4345H21.8472C22.0611 18.4345 22.2662 18.3495 22.4174 18.1983C22.5687 18.0471 22.6536 17.8419 22.6536 17.6281V7.65428H24.2068C24.3525 7.65425 24.4954 7.61478 24.6204 7.54008C24.7454 7.46537 24.8479 7.3582 24.9169 7.22995C24.9859 7.1017 25.0189 6.95716 25.0124 6.81166C25.0059 6.66617 24.9601 6.52515 24.8799 6.40358L20.8876 0.355157C20.8141 0.243884 20.7141 0.152575 20.5967 0.0894026C20.4792 0.0262299 20.3479 -0.00683594 20.2146 -0.00683594C20.0812 -0.00683594 19.9499 0.0262299 19.8324 0.0894026C19.715 0.152575 19.615 0.243884 19.5415 0.355157L15.5492 6.40358C15.469 6.52515 15.4232 6.66615 15.4167 6.81164C15.4102 6.95713 15.4432 7.10166 15.5122 7.22991C15.5812 7.35815 15.6836 7.46532 15.8086 7.54004C15.9337 7.61475 16.0766 7.65423 16.2222 7.65428ZM20.2146 2.2633L22.7083 6.04139H21.8472C21.6333 6.04139 21.4282 6.12635 21.277 6.27759C21.1257 6.42883 21.0408 6.63395 21.0408 6.84783V16.8216H19.3883V6.84783C19.3883 6.63395 19.3033 6.42883 19.1521 6.27759C19.0008 6.12635 18.7957 6.04139 18.5818 6.04139H17.7207L20.2146 2.2633Z" fill="black"/>
</svg>
