<svg width="52" height="51" viewBox="0 0 52 51" fill="none" xmlns="http://www.w3.org/2000/svg">
<path d="M19.6355 26.1202C19.7647 26.1202 19.8917 26.087 20.0042 26.0239C20.1166 25.9607 20.2108 25.8698 20.2774 25.7598L21.6291 23.5301L23.4203 26.3568C23.4891 26.4655 23.5852 26.5547 23.6991 26.6157C23.8129 26.6767 23.9408 26.7073 24.0701 26.7046C24.1994 26.7019 24.3259 26.666 24.4371 26.6004C24.5483 26.5347 24.6405 26.4416 24.7047 26.3301L27.5883 21.3263L31.4612 28.3355C31.5247 28.4505 31.6177 28.5467 31.7307 28.6145C31.8437 28.6823 31.9727 28.7192 32.1047 28.7216L32.118 28.7217C32.2478 28.7216 32.3754 28.6881 32.4882 28.6245C32.601 28.5608 32.6953 28.4691 32.7617 28.3584L35.1745 24.3358H40.9929C41.1916 24.3358 41.3822 24.2574 41.5227 24.1178C41.6632 23.9783 41.7421 23.789 41.7421 23.5917C41.7421 23.3944 41.6632 23.2051 41.5227 23.0655C41.3822 22.926 41.1916 22.8476 40.9929 22.8476H34.7488C34.619 22.8476 34.4914 22.8811 34.3786 22.9448C34.2658 23.0085 34.1715 23.1002 34.1051 23.2109L32.1447 26.4791L28.2589 19.4465C28.1949 19.3306 28.1009 19.2337 27.9866 19.1658C27.8723 19.098 27.7419 19.0616 27.6088 19.0604H27.602C27.47 19.0604 27.3403 19.095 27.2262 19.1607C27.112 19.2265 27.0173 19.321 26.9517 19.4348L24.0239 24.5153L22.2491 21.7145C22.1816 21.6081 22.088 21.5203 21.9771 21.4595C21.8662 21.3987 21.7416 21.3668 21.6149 21.3668H21.6075C21.4796 21.368 21.3541 21.4018 21.243 21.4648C21.132 21.5279 21.039 21.6182 20.9731 21.727L19.212 24.632H14.9538C14.7551 24.632 14.5645 24.7104 14.424 24.8499C14.2835 24.9895 14.2046 25.1787 14.2046 25.3761C14.2046 25.5734 14.2835 25.7627 14.424 25.9022C14.5645 26.0418 14.7551 26.1202 14.9538 26.1202H19.6355ZM42.3153 5.46875C42.1166 5.46875 41.9261 5.54714 41.7855 5.68669C41.645 5.82623 41.5661 6.01549 41.5661 6.21283V8.40776H39.3561C39.1574 8.40776 38.9668 8.48615 38.8263 8.62569C38.6858 8.76523 38.6069 8.95449 38.6069 9.15183C38.6069 9.34917 38.6858 9.53843 38.8263 9.67797C38.9668 9.81752 39.1574 9.89591 39.3561 9.89591H41.5661V12.0909C41.5661 12.2883 41.645 12.4775 41.7855 12.6171C41.9261 12.7566 42.1166 12.835 42.3153 12.835C42.5141 12.835 42.7046 12.7566 42.8451 12.6171C42.9856 12.4775 43.0646 12.2883 43.0646 12.0909V9.89591H45.2746C45.4733 9.89591 45.6638 9.81752 45.8044 9.67797C45.9449 9.53843 46.0238 9.34917 46.0238 9.15183C46.0238 8.95449 45.9449 8.76523 45.8044 8.62569C45.6638 8.48615 45.4733 8.40776 45.2746 8.40776H43.0646V6.21283C43.0646 6.01549 42.9856 5.82623 42.8451 5.68669C42.7046 5.54714 42.5141 5.46875 42.3153 5.46875Z" fill="black"/>
<path d="M44.959 30.9622C48.6093 27.0868 49.6554 21.2265 47.6489 16.2025C49.8021 14.5909 51.1968 12.0302 51.1968 9.15174C51.1968 4.28796 47.2126 0.331055 42.3153 0.331055C40.3036 0.331055 38.3337 1.0167 36.7683 2.26169C36.6149 2.3856 36.5171 2.56469 36.4961 2.75993C36.4752 2.95517 36.5327 3.15073 36.6563 3.30399C36.7799 3.45725 36.9595 3.55579 37.1559 3.57813C37.3523 3.60046 37.5497 3.54479 37.705 3.42324C39.0244 2.37379 40.6186 1.81921 42.3152 1.81921C46.3861 1.81921 49.6982 5.10863 49.6982 9.15174C49.6982 13.1965 46.3862 16.4872 42.3152 16.4872C38.5247 16.4872 35.3936 13.636 34.9778 9.98005C34.977 9.97162 34.9756 9.96308 34.9745 9.95455C34.9448 9.68796 34.9297 9.41996 34.9294 9.15174C34.9294 8.00328 35.1892 6.90503 35.7015 5.88733C35.7903 5.7108 35.8049 5.50647 35.7421 5.31926C35.6793 5.13204 35.5441 4.97727 35.3664 4.88897C35.1887 4.80075 34.9829 4.78625 34.7944 4.84864C34.6059 4.91104 34.45 5.04524 34.3611 5.22172C33.7439 6.44787 33.4309 7.77014 33.4309 9.15164C33.4309 9.27665 33.4342 9.40086 33.4394 9.52467C31.5475 10.1962 29.7816 11.3007 28.3016 12.7461L27.4735 13.5547L27.4625 13.5438L26.6483 12.7471C24.014 10.1677 20.5654 8.72613 17.1859 8.79558C14.3737 8.85312 11.8852 9.94741 9.99011 11.9594C9.92287 12.0309 9.87046 12.1148 9.83587 12.2063C9.80129 12.2979 9.78521 12.3954 9.78855 12.4931C9.79189 12.5908 9.81458 12.687 9.85534 12.776C9.89609 12.8651 9.95411 12.9452 10.0261 13.012C10.3288 13.2918 10.8023 13.2769 11.085 12.9763C12.6974 11.2639 14.8172 10.3323 17.2168 10.2837C20.1938 10.2232 23.2477 11.508 25.5964 13.8067L26.4116 14.6043C26.8052 14.9893 27.1408 15.1808 27.4755 15.1808C27.8071 15.1808 28.1378 14.9923 28.5244 14.6153L29.3526 13.8067C30.597 12.592 32.0648 11.6461 33.6363 11.0394C34.5091 15.0007 38.0686 17.9752 42.3151 17.9752C43.7689 17.9752 45.1423 17.6264 46.3547 17.0085C48.015 21.4433 47.0617 26.5452 43.8699 29.9392L33.114 40.8733L32.2239 41.046C32.0081 41.0876 31.8173 41.1253 31.6435 41.1601C30.5146 41.3872 30.2449 41.4408 28.9232 41.2384L22.5147 40.0747C21.6416 39.7751 21.7295 39.0846 21.7784 38.8772C21.8553 38.5548 22.157 38.0339 22.8054 38.1312L22.8234 38.1341C23.1121 38.1708 23.4218 38.2105 23.7454 38.2512C24.9592 38.407 26.3338 38.5826 27.5546 38.7066C30.0521 38.9576 31.4647 37.6559 31.7584 36.2531C32.0571 34.8235 31.2369 32.9226 28.7294 32.128C28.6994 32.119 28.6685 32.1111 28.6365 32.1051L24.5097 31.3531C22.2699 30.9454 20.5277 31.2599 17.8903 31.7361C17.1931 31.8621 16.4018 32.0039 15.5207 32.1478L13.5647 32.4673L12.9623 31.8551L11.0792 29.9404C7.55976 26.1932 6.77955 20.3239 9.18513 15.664C9.37393 15.2989 9.22808 14.8505 8.86045 14.663C8.49183 14.4755 8.04028 14.6193 7.85147 14.9854C5.16218 20.1959 6.0413 26.7656 9.99031 30.9622C9.99431 30.9662 9.99831 30.9702 10.0013 30.9741L11.7595 32.7619L8.48503 33.2965V33.2115C8.48503 32.637 7.97465 32.1696 7.34728 32.1696H1.1832C0.557426 32.1696 0.0483398 32.637 0.0483398 33.2115V46.3038C0.0483398 46.8783 0.557426 47.3457 1.1832 47.3457H7.34738C7.97475 47.3457 8.48513 46.8783 8.48513 46.3038V46.2136L15.223 48.0343L21.4428 49.713C22.8623 50.1505 24.0062 50.3311 25.0501 50.3311C26.7025 50.3311 28.106 49.8806 29.9602 49.2854C30.125 49.2328 30.2938 49.1782 30.4677 49.1227L42.7243 45.2197C44.1449 44.7673 45.1558 43.7514 45.4276 42.5024C45.6384 41.5341 45.3447 40.5777 44.6414 39.9437C44.0719 39.4308 42.7333 38.6947 40.1529 39.5052L35.7034 40.3694L44.9481 30.9741C44.9521 30.9702 44.9551 30.9662 44.959 30.9622ZM1.54683 45.8576V33.6577H6.98654V34.1689L6.98634 34.1736V45.2395L6.98654 45.2421V45.8576H1.54683ZM40.5675 40.9358C41.9501 40.4953 43.068 40.535 43.6354 41.046C43.9411 41.3218 44.061 41.7385 43.9631 42.1869C43.8052 42.9101 43.1708 43.5143 42.2668 43.802L30.0091 47.706C29.8343 47.7615 29.6645 47.8161 29.4986 47.8696C26.5666 48.8102 25.0951 49.2834 21.8743 48.2883C21.8663 48.2853 21.8573 48.2834 21.8484 48.2804L8.48503 44.6712V34.8046L15.7635 33.6171C16.6566 33.4713 17.4548 33.3264 18.1591 33.1994C20.7215 32.7371 22.2689 32.4583 24.2389 32.8175L28.3178 33.5606C29.9082 34.0794 30.4567 35.1598 30.2908 35.9505C30.1 36.8643 29.0851 37.3653 27.7064 37.2264C26.5057 37.1043 25.141 36.9297 23.9372 36.776C23.6156 36.7343 23.3069 36.6946 23.0202 36.6589C21.5876 36.4486 20.5776 37.4436 20.3199 38.5379C20.265 38.7711 20.243 39.0191 20.259 39.2691C20.3139 40.1739 20.8584 41.1124 22.1011 41.5063C22.1321 41.5162 22.5457 41.5926 22.5457 41.5926L28.6645 42.7038L28.6845 42.7067C29.9472 42.9022 30.4936 42.8853 31.2679 42.7494C31.4707 42.7137 32.2978 42.547 32.5106 42.5063L33.8592 42.2444C33.8592 42.2444 40.5395 40.9448 40.5675 40.9358Z" fill="black"/>
</svg>
