<svg width="51" height="51" viewBox="0 0 51 51" fill="none" xmlns="http://www.w3.org/2000/svg">
<path d="M49.862 15.3584H39.0286V1.19173C39.0286 0.970718 38.9408 0.758756 38.7846 0.602476C38.6283 0.446196 38.4163 0.358398 38.1953 0.358398H13.1953C12.9743 0.358398 12.7623 0.446196 12.6061 0.602476C12.4498 0.758756 12.362 0.970718 12.362 1.19173V15.3584H1.52865C1.30763 15.3584 1.09567 15.4462 0.93939 15.6025C0.78311 15.7588 0.695313 15.9707 0.695312 16.1917V49.5251C0.695313 49.7461 0.78311 49.958 0.93939 50.1143C1.09567 50.2706 1.30763 50.3584 1.52865 50.3584H49.862C50.083 50.3584 50.295 50.2706 50.4512 50.1143C50.6075 49.958 50.6953 49.7461 50.6953 49.5251V16.1917C50.6953 15.9707 50.6075 15.7588 50.4512 15.6025C50.295 15.4462 50.083 15.3584 49.862 15.3584ZM2.36198 17.0251H12.362V48.6917H2.36198V17.0251ZM28.1953 40.3584V48.6917H23.1953V40.3584H28.1953ZM37.362 48.6917H29.862V40.3584H31.5286V38.6917H19.862V40.3584H21.5286V48.6917H14.0286V2.02507H37.362V48.6917ZM49.0286 48.6917H39.0286V17.0251H49.0286V48.6917Z" fill="black"/>
<path d="M41.5283 25.3581H46.5283C46.7493 25.3581 46.9613 25.2703 47.1176 25.114C47.2739 24.9577 47.3617 24.7458 47.3617 24.5247V19.5247C47.3617 19.3037 47.2739 19.0918 47.1176 18.9355C46.9613 18.7792 46.7493 18.6914 46.5283 18.6914H41.5283C41.3073 18.6914 41.0953 18.7792 40.9391 18.9355C40.7828 19.0918 40.695 19.3037 40.695 19.5247V24.5247C40.695 24.7458 40.7828 24.9577 40.9391 25.114C41.0953 25.2703 41.3073 25.3581 41.5283 25.3581ZM42.3617 20.3581H45.695V23.6914H42.3617V20.3581ZM41.5283 33.6914H46.5283C46.7493 33.6914 46.9613 33.6036 47.1176 33.4473C47.2739 33.291 47.3617 33.0791 47.3617 32.8581V27.8581C47.3617 27.6371 47.2739 27.4251 47.1176 27.2688C46.9613 27.1125 46.7493 27.0247 46.5283 27.0247H41.5283C41.3073 27.0247 41.0953 27.1125 40.9391 27.2688C40.7828 27.4251 40.695 27.6371 40.695 27.8581V32.8581C40.695 33.0791 40.7828 33.291 40.9391 33.4473C41.0953 33.6036 41.3073 33.6914 41.5283 33.6914ZM42.3617 28.6914H45.695V32.0247H42.3617V28.6914ZM41.5283 42.0247H46.5283C46.7493 42.0247 46.9613 41.9369 47.1176 41.7807C47.2739 41.6244 47.3617 41.4124 47.3617 41.1914V36.1914C47.3617 35.9704 47.2739 35.7584 47.1176 35.6021C46.9613 35.4459 46.7493 35.3581 46.5283 35.3581H41.5283C41.3073 35.3581 41.0953 35.4459 40.9391 35.6021C40.7828 35.7584 40.695 35.9704 40.695 36.1914V41.1914C40.695 41.4124 40.7828 41.6244 40.9391 41.7807C41.0953 41.9369 41.3073 42.0247 41.5283 42.0247ZM42.3617 37.0247H45.695V40.3581H42.3617V37.0247ZM9.86165 18.6914H4.86165C4.64064 18.6914 4.42868 18.7792 4.2724 18.9355C4.11612 19.0918 4.02832 19.3037 4.02832 19.5247V24.5247C4.02832 24.7458 4.11612 24.9577 4.2724 25.114C4.42868 25.2703 4.64064 25.3581 4.86165 25.3581H9.86165C10.0827 25.3581 10.2946 25.2703 10.4509 25.114C10.6072 24.9577 10.695 24.7458 10.695 24.5247V19.5247C10.695 19.3037 10.6072 19.0918 10.4509 18.9355C10.2946 18.7792 10.0827 18.6914 9.86165 18.6914ZM9.02832 23.6914H5.69499V20.3581H9.02832V23.6914ZM16.5283 22.0247H19.8617C20.0827 22.0247 20.2946 21.9369 20.4509 21.7807C20.6072 21.6244 20.695 21.4124 20.695 21.1914V17.8581C20.695 17.6371 20.6072 17.4251 20.4509 17.2688C20.2946 17.1125 20.0827 17.0247 19.8617 17.0247H16.5283C16.3073 17.0247 16.0953 17.1125 15.9391 17.2688C15.7828 17.4251 15.695 17.6371 15.695 17.8581V21.1914C15.695 21.4124 15.7828 21.6244 15.9391 21.7807C16.0953 21.9369 16.3073 22.0247 16.5283 22.0247ZM17.3617 18.6914H19.0283V20.3581H17.3617V18.6914ZM27.3617 17.0247H24.0283C23.8073 17.0247 23.5953 17.1125 23.4391 17.2688C23.2828 17.4251 23.195 17.6371 23.195 17.8581V21.1914C23.195 21.4124 23.2828 21.6244 23.4391 21.7807C23.5953 21.9369 23.8073 22.0247 24.0283 22.0247H27.3617C27.5827 22.0247 27.7946 21.9369 27.9509 21.7807C28.1072 21.6244 28.195 21.4124 28.195 21.1914V17.8581C28.195 17.6371 28.1072 17.4251 27.9509 17.2688C27.7946 17.1125 27.5827 17.0247 27.3617 17.0247ZM26.5283 20.3581H24.8617V18.6914H26.5283V20.3581ZM30.695 17.8581V21.1914C30.695 21.4124 30.7828 21.6244 30.9391 21.7807C31.0953 21.9369 31.3073 22.0247 31.5283 22.0247H34.8617C35.0827 22.0247 35.2946 21.9369 35.4509 21.7807C35.6072 21.6244 35.695 21.4124 35.695 21.1914V17.8581C35.695 17.6371 35.6072 17.4251 35.4509 17.2688C35.2946 17.1125 35.0827 17.0247 34.8617 17.0247H31.5283C31.3073 17.0247 31.0953 17.1125 30.9391 17.2688C30.7828 17.4251 30.695 17.6371 30.695 17.8581ZM32.3617 18.6914H34.0283V20.3581H32.3617V18.6914ZM16.5283 28.6914H19.8617C20.0827 28.6914 20.2946 28.6036 20.4509 28.4473C20.6072 28.291 20.695 28.0791 20.695 27.8581V24.5247C20.695 24.3037 20.6072 24.0918 20.4509 23.9355C20.2946 23.7792 20.0827 23.6914 19.8617 23.6914H16.5283C16.3073 23.6914 16.0953 23.7792 15.9391 23.9355C15.7828 24.0918 15.695 24.3037 15.695 24.5247V27.8581C15.695 28.0791 15.7828 28.291 15.9391 28.4473C16.0953 28.6036 16.3073 28.6914 16.5283 28.6914ZM17.3617 25.3581H19.0283V27.0247H17.3617V25.3581ZM27.3617 23.6914H24.0283C23.8073 23.6914 23.5953 23.7792 23.4391 23.9355C23.2828 24.0918 23.195 24.3037 23.195 24.5247V27.8581C23.195 28.0791 23.2828 28.291 23.4391 28.4473C23.5953 28.6036 23.8073 28.6914 24.0283 28.6914H27.3617C27.5827 28.6914 27.7946 28.6036 27.9509 28.4473C28.1072 28.291 28.195 28.0791 28.195 27.8581V24.5247C28.195 24.3037 28.1072 24.0918 27.9509 23.9355C27.7946 23.7792 27.5827 23.6914 27.3617 23.6914ZM26.5283 27.0247H24.8617V25.3581H26.5283V27.0247ZM34.8617 23.6914H31.5283C31.3073 23.6914 31.0953 23.7792 30.9391 23.9355C30.7828 24.0918 30.695 24.3037 30.695 24.5247V27.8581C30.695 28.0791 30.7828 28.291 30.9391 28.4473C31.0953 28.6036 31.3073 28.6914 31.5283 28.6914H34.8617C35.0827 28.6914 35.2946 28.6036 35.4509 28.4473C35.6072 28.291 35.695 28.0791 35.695 27.8581V24.5247C35.695 24.3037 35.6072 24.0918 35.4509 23.9355C35.2946 23.7792 35.0827 23.6914 34.8617 23.6914ZM34.0283 27.0247H32.3617V25.3581H34.0283V27.0247ZM16.5283 35.3581H19.8617C20.0827 35.3581 20.2946 35.2703 20.4509 35.114C20.6072 34.9577 20.695 34.7458 20.695 34.5247V31.1914C20.695 30.9704 20.6072 30.7584 20.4509 30.6021C20.2946 30.4459 20.0827 30.3581 19.8617 30.3581H16.5283C16.3073 30.3581 16.0953 30.4459 15.9391 30.6021C15.7828 30.7584 15.695 30.9704 15.695 31.1914V34.5247C15.695 34.7458 15.7828 34.9577 15.9391 35.114C16.0953 35.2703 16.3073 35.3581 16.5283 35.3581ZM17.3617 32.0247H19.0283V33.6914H17.3617V32.0247ZM27.3617 30.3581H24.0283C23.8073 30.3581 23.5953 30.4459 23.4391 30.6021C23.2828 30.7584 23.195 30.9704 23.195 31.1914V34.5247C23.195 34.7458 23.2828 34.9577 23.4391 35.114C23.5953 35.2703 23.8073 35.3581 24.0283 35.3581H27.3617C27.5827 35.3581 27.7946 35.2703 27.9509 35.114C28.1072 34.9577 28.195 34.7458 28.195 34.5247V31.1914C28.195 30.9704 28.1072 30.7584 27.9509 30.6021C27.7946 30.4459 27.5827 30.3581 27.3617 30.3581ZM26.5283 33.6914H24.8617V32.0247H26.5283V33.6914ZM34.8617 30.3581H31.5283C31.3073 30.3581 31.0953 30.4459 30.9391 30.6021C30.7828 30.7584 30.695 30.9704 30.695 31.1914V34.5247C30.695 34.7458 30.7828 34.9577 30.9391 35.114C31.0953 35.2703 31.3073 35.3581 31.5283 35.3581H34.8617C35.0827 35.3581 35.2946 35.2703 35.4509 35.114C35.6072 34.9577 35.695 34.7458 35.695 34.5247V31.1914C35.695 30.9704 35.6072 30.7584 35.4509 30.6021C35.2946 30.4459 35.0827 30.3581 34.8617 30.3581ZM34.0283 33.6914H32.3617V32.0247H34.0283V33.6914ZM9.86165 27.0247H4.86165C4.64064 27.0247 4.42868 27.1125 4.2724 27.2688C4.11612 27.4251 4.02832 27.6371 4.02832 27.8581V32.8581C4.02832 33.0791 4.11612 33.291 4.2724 33.4473C4.42868 33.6036 4.64064 33.6914 4.86165 33.6914H9.86165C10.0827 33.6914 10.2946 33.6036 10.4509 33.4473C10.6072 33.291 10.695 33.0791 10.695 32.8581V27.8581C10.695 27.6371 10.6072 27.4251 10.4509 27.2688C10.2946 27.1125 10.0827 27.0247 9.86165 27.0247ZM9.02832 32.0247H5.69499V28.6914H9.02832V32.0247ZM9.86165 35.3581H4.86165C4.64064 35.3581 4.42868 35.4459 4.2724 35.6021C4.11612 35.7584 4.02832 35.9704 4.02832 36.1914V41.1914C4.02832 41.4124 4.11612 41.6244 4.2724 41.7807C4.42868 41.9369 4.64064 42.0247 4.86165 42.0247H9.86165C10.0827 42.0247 10.2946 41.9369 10.4509 41.7807C10.6072 41.6244 10.695 41.4124 10.695 41.1914V36.1914C10.695 35.9704 10.6072 35.7584 10.4509 35.6021C10.2946 35.4459 10.0827 35.3581 9.86165 35.3581ZM9.02832 40.3581H5.69499V37.0247H9.02832V40.3581ZM20.695 12.0247H23.195V14.5247C23.195 14.7458 23.2828 14.9577 23.4391 15.114C23.5953 15.2703 23.8073 15.3581 24.0283 15.3581H27.3617C27.5827 15.3581 27.7946 15.2703 27.9509 15.114C28.1072 14.9577 28.195 14.7458 28.195 14.5247V12.0247H30.695C30.916 12.0247 31.128 11.9369 31.2842 11.7807C31.4405 11.6244 31.5283 11.4124 31.5283 11.1914V7.85807C31.5283 7.63706 31.4405 7.4251 31.2842 7.26882C31.128 7.11254 30.916 7.02474 30.695 7.02474H28.195V4.52474C28.195 4.30373 28.1072 4.09176 27.9509 3.93548C27.7946 3.7792 27.5827 3.69141 27.3617 3.69141H24.0283C23.8073 3.69141 23.5953 3.7792 23.4391 3.93548C23.2828 4.09176 23.195 4.30373 23.195 4.52474V7.02474H20.695C20.474 7.02474 20.262 7.11254 20.1057 7.26882C19.9494 7.4251 19.8617 7.63706 19.8617 7.85807V11.1914C19.8617 11.4124 19.9494 11.6244 20.1057 11.7807C20.262 11.9369 20.474 12.0247 20.695 12.0247ZM21.5283 8.69141H24.0283C24.2493 8.69141 24.4613 8.60361 24.6176 8.44733C24.7739 8.29105 24.8617 8.07909 24.8617 7.85807V5.35807H26.5283V7.85807C26.5283 8.07909 26.6161 8.29105 26.7724 8.44733C26.9287 8.60361 27.1406 8.69141 27.3617 8.69141H29.8617V10.3581H27.3617C27.1406 10.3581 26.9287 10.4459 26.7724 10.6022C26.6161 10.7584 26.5283 10.9704 26.5283 11.1914V13.6914H24.8617V11.1914C24.8617 10.9704 24.7739 10.7584 24.6176 10.6022C24.4613 10.4459 24.2493 10.3581 24.0283 10.3581H21.5283V8.69141ZM34.0283 45.3581H35.695V47.0247H34.0283V45.3581ZM34.0283 42.0247H35.695V43.6914H34.0283V42.0247ZM34.0283 38.6914H35.695V40.3581H34.0283V38.6914Z" fill="black"/>
</svg>
