<svg width="51" height="51" viewBox="0 0 51 51" fill="none" xmlns="http://www.w3.org/2000/svg">
<path d="M7.44821 14.7105H18.6898C18.8841 14.7105 19.0704 14.6333 19.2078 14.4959C19.3452 14.3585 19.4224 14.1722 19.4224 13.9779C19.4224 13.7836 19.3452 13.5973 19.2078 13.4599C19.0704 13.3225 18.8841 13.2454 18.6898 13.2454H7.44821C7.25392 13.2454 7.0676 13.3225 6.93022 13.4599C6.79284 13.5973 6.71566 13.7836 6.71566 13.9779C6.71566 14.1722 6.79284 14.3585 6.93022 14.4959C7.0676 14.6333 7.25392 14.7105 7.44821 14.7105ZM7.44821 30.8265C7.25392 30.8265 7.0676 30.9037 6.93022 31.0411C6.79284 31.1785 6.71566 31.3648 6.71566 31.5591C6.71566 31.7534 6.79284 31.9397 6.93022 32.0771C7.0676 32.2145 7.25392 32.2916 7.44821 32.2916H19.6665C19.8608 32.2916 20.0472 32.2145 20.1845 32.0771C20.3219 31.9397 20.3991 31.7534 20.3991 31.5591C20.3991 31.3648 20.3219 31.1785 20.1845 31.0411C20.0472 30.9037 19.8608 30.8265 19.6665 30.8265H7.44821ZM29.3759 20.5709C29.5702 20.5709 29.7566 20.4937 29.8939 20.3563C30.0313 20.2189 30.1085 20.0326 30.1085 19.8383C30.1085 19.644 30.0313 19.4577 29.8939 19.3203C29.7566 19.1829 29.5702 19.1058 29.3759 19.1058H21.3412C21.1469 19.1058 20.9605 19.1829 20.8232 19.3203C20.6858 19.4577 20.6086 19.644 20.6086 19.8383C20.6086 20.0326 20.6858 20.2189 20.8232 20.3563C20.9605 20.4937 21.1469 20.5709 21.3412 20.5709H29.3759ZM7.25062 20.5709H17.9226C18.1169 20.5709 18.3032 20.4937 18.4406 20.3563C18.578 20.2189 18.6551 20.0326 18.6551 19.8383C18.6551 19.644 18.578 19.4577 18.4406 19.3203C18.3032 19.1829 18.1169 19.1058 17.9226 19.1058H7.25062C7.05633 19.1058 6.87 19.1829 6.73263 19.3203C6.59525 19.4577 6.51807 19.644 6.51807 19.8383C6.51807 20.0326 6.59525 20.2189 6.73263 20.3563C6.87 20.4937 7.05633 20.5709 7.25062 20.5709ZM7.25062 26.4312H24.4373C24.6316 26.4312 24.8179 26.3541 24.9553 26.2167C25.0927 26.0793 25.1698 25.893 25.1698 25.6987C25.1698 25.5044 25.0927 25.3181 24.9553 25.1807C24.8179 25.0433 24.6316 24.9661 24.4373 24.9661H7.25062C7.05633 24.9661 6.87 25.0433 6.73263 25.1807C6.59525 25.3181 6.51807 25.5044 6.51807 25.6987C6.51807 25.893 6.59525 26.0793 6.73263 26.2167C6.87 26.3541 7.05633 26.4312 7.25062 26.4312ZM7.25062 38.152H21.5071C21.7014 38.152 21.8877 38.0749 22.0251 37.9375C22.1625 37.8001 22.2396 37.6138 22.2396 37.4195C22.2396 37.2252 22.1625 37.0389 22.0251 36.9015C21.8877 36.7641 21.7014 36.6869 21.5071 36.6869H7.25062C7.05633 36.6869 6.87 36.7641 6.73263 36.9015C6.59525 37.0389 6.51807 37.2252 6.51807 37.4195C6.51807 37.6138 6.59525 37.8001 6.73263 37.9375C6.87 38.0749 7.05633 38.152 7.25062 38.152Z" fill="black"/>
<path d="M50.0494 42.3733C50.0009 41.6964 49.6903 40.7 48.487 39.7939L42.1191 34.7597L43.5669 33.3127C43.8449 33.4456 44.1567 33.518 44.4855 33.5181H44.4863C45.1814 33.5181 45.8883 33.2081 46.426 32.6675C46.4277 32.6658 46.4294 32.6641 46.431 32.6624C47.4334 31.6503 47.5504 30.1248 46.6906 29.2587L39.2291 21.7576C38.5623 21.065 37.4208 21.014 36.5779 21.4705V15.1119C36.5779 14.1338 36.1933 13.2142 35.4948 12.5224L24.2546 1.38944C23.5566 0.698113 22.6284 0.317383 21.641 0.317383H4.73187C2.14939 0.317383 0.0483398 2.39772 0.0483398 4.95471V7.67052C0.0483398 7.8648 0.125519 8.05113 0.262899 8.18851C0.400278 8.32589 0.586605 8.40307 0.780889 8.40307C0.975173 8.40307 1.1615 8.32589 1.29888 8.18851C1.43626 8.05113 1.51344 7.8648 1.51344 7.67052V4.95471C1.51344 3.20548 2.95724 1.78238 4.73187 1.78238L22.1383 1.8406V11.2548C22.1383 13.1177 23.6651 14.6332 25.5419 14.6332H35.0582L35.113 23.1848C34.9216 23.782 34.9483 24.4064 35.2028 24.9231L28.588 31.5345C27.7153 31.1122 26.5404 31.3385 25.7106 32.1643C24.7738 33.065 24.5064 34.643 25.4416 35.5743L32.9246 43.0559C33.4902 43.6263 34.3567 43.7566 35.113 43.524C35.1752 44.4977 34.8989 45.4721 34.1792 46.1644C33.5633 46.7758 32.7445 47.1128 31.8682 47.1028L30.3682 47.092C30.0279 46.4162 29.4109 45.9029 28.6665 45.7022V45.0821C28.6665 43.601 27.4616 42.3961 25.9805 42.3961H16.9608C15.4796 42.3961 14.2747 43.601 14.2747 45.0821V45.7022C13.5714 45.8919 12.9817 46.3605 12.6318 46.9818H4.73187C2.95724 46.9818 1.51344 45.5587 1.51344 43.8095V11.0865C1.51344 10.8923 1.43626 10.7059 1.29888 10.5685C1.1615 10.4312 0.975173 10.354 0.780889 10.354C0.586605 10.354 0.400278 10.4312 0.262899 10.5685C0.125519 10.7059 0.0483398 10.8923 0.0483398 11.0865L0.0483398 43.8095C0.0483398 46.3666 2.14939 48.4469 4.73187 48.4469H12.2874V49.0965C12.2874 49.7697 12.835 50.3174 13.5083 50.3174H16.8481C17.0424 50.3174 17.2287 50.2402 17.3661 50.1028C17.5035 49.9654 17.5807 49.7791 17.5807 49.5848C17.5807 49.3905 17.5035 49.2042 17.3661 49.0668C17.2287 48.9295 17.0424 48.8523 16.8481 48.8523H13.7525V48.2955C13.7525 47.6223 14.3001 47.0746 14.9734 47.0746H27.968C28.6413 47.0746 29.189 47.6223 29.189 48.2955V48.8523H20.2667C20.0724 48.8523 19.8861 48.9295 19.7487 49.0668C19.6113 49.2042 19.5342 49.3905 19.5342 49.5848C19.5342 49.7791 19.6113 49.9654 19.7487 50.1028C19.8861 50.2402 20.0724 50.3174 20.2667 50.3174H29.4331C30.1064 50.3174 30.6541 49.7697 30.6541 49.0965V48.5592C30.697 48.5594 31.8504 48.5681 31.8928 48.5679C33.1474 48.5679 34.3249 48.0843 35.2115 47.204C36.0928 46.329 36.5781 45.1667 36.5781 43.9313V42.5076C37.1625 41.7625 37.3739 40.7496 36.965 39.9113L38.3714 38.5056L43.3955 44.8932C45.197 47.0824 47.0306 46.8622 48.8298 45.2366C49.687 44.3775 50.1201 43.3605 50.0494 42.3733ZM16.9609 43.8612H25.9806C26.6538 43.8612 27.2015 44.4088 27.2015 45.0821V45.6095H15.7399V45.0821C15.7399 44.4088 16.2876 43.8612 16.9609 43.8612ZM36.8666 23.0543C37.2496 22.7016 37.759 22.4527 38.19 22.7903L45.6516 30.2914C45.9367 30.5786 45.8134 31.2059 45.3879 31.6338C44.9939 32.0049 44.4145 32.2637 44.0048 31.8391L41.2411 29.0607C41.1036 28.9253 40.9182 28.8496 40.7252 28.8501C40.5322 28.8506 40.3472 28.9272 40.2104 29.0633C40.0736 29.1994 39.996 29.3839 39.9945 29.5769C39.993 29.7699 40.0677 29.9556 40.2024 30.0938L42.4522 32.3557C40.513 34.2918 37.9446 36.8606 36.006 38.7987L29.7003 32.4943L36.1639 26.034L37.772 27.6507C37.8398 27.7189 37.9204 27.7731 38.0092 27.8101C38.098 27.8472 38.1932 27.8664 38.2894 27.8666C38.3856 27.8669 38.4809 27.8482 38.5699 27.8116C38.6588 27.775 38.7397 27.7212 38.8079 27.6534C38.9456 27.5164 39.0233 27.3303 39.0238 27.136C39.0243 26.9417 38.9476 26.7552 38.8106 26.6175L36.6834 24.479C36.2945 24.1728 36.4086 23.5283 36.8666 23.0543ZM23.6034 11.2549V2.80649L34.065 13.1682H25.5419C24.473 13.1682 23.6034 12.3099 23.6034 11.2549ZM33.96 42.0192L26.4771 34.5376C26.1408 34.1058 26.3867 33.5944 26.7372 33.2096C27.2024 32.7536 27.8449 32.6335 28.1462 33.0119L35.5576 40.4219C35.8952 40.8549 35.646 41.3703 35.2932 41.7542C34.8677 42.1795 34.2445 42.3032 33.96 42.0192ZM47.7925 44.2022C46.6832 45.3111 45.4834 45.281 44.5527 43.9946L39.4151 37.4627L41.0759 35.8027L47.5854 40.9489C48.8701 41.8828 48.8996 43.09 47.7925 44.2022Z" fill="black"/>
</svg>
