<svg width="51" height="51" viewBox="0 0 51 51" fill="none" xmlns="http://www.w3.org/2000/svg">
<path d="M13.8451 3.51114C12.9783 3.51237 12.1474 3.85731 11.5345 4.47032C10.9217 5.08333 10.5769 5.91437 10.5759 6.78118C10.5759 6.97702 10.6537 7.16483 10.7922 7.3033C10.9307 7.44178 11.1185 7.51958 11.3143 7.51958C11.5102 7.51958 11.698 7.44178 11.8364 7.3033C11.9749 7.16483 12.0527 6.97702 12.0527 6.78118C12.0532 6.30572 12.2422 5.84986 12.5784 5.51366C12.9146 5.17745 13.3705 4.98838 13.846 4.98793H18.6515C18.8473 4.98793 19.0351 4.91014 19.1736 4.77166C19.3121 4.63318 19.3899 4.44537 19.3899 4.24953C19.3899 4.0537 19.3121 3.86589 19.1736 3.72741C19.0351 3.58893 18.8473 3.51114 18.6515 3.51114H13.8451ZM23.0751 3.51114H21.7671C21.5712 3.51114 21.3834 3.58893 21.2449 3.72741C21.1065 3.86589 21.0287 4.0537 21.0287 4.24953C21.0287 4.44537 21.1065 4.63318 21.2449 4.77166C21.3834 4.91014 21.5712 4.98793 21.7671 4.98793H23.0751C23.2709 4.98793 23.4587 4.91014 23.5972 4.77166C23.7357 4.63318 23.8135 4.44537 23.8135 4.24953C23.8135 4.0537 23.7357 3.86589 23.5972 3.72741C23.4587 3.58893 23.2709 3.51114 23.0751 3.51114ZM19.0207 2.45629H23.0751C23.2709 2.45629 23.4587 2.37849 23.5972 2.24001C23.7357 2.10154 23.8135 1.91372 23.8135 1.71789C23.8135 1.52205 23.7357 1.33424 23.5972 1.19576C23.4587 1.05729 23.2709 0.979492 23.0751 0.979492H19.0207C18.8248 0.979492 18.637 1.05729 18.4985 1.19576C18.3601 1.33424 18.2823 1.52205 18.2823 1.71789C18.2823 1.91372 18.3601 2.10154 18.4985 2.24001C18.637 2.37849 18.8248 2.45629 19.0207 2.45629Z" fill="black"/>
<path d="M8.78174 7.51958C8.8788 7.51974 8.97493 7.50076 9.06464 7.46372C9.15435 7.42669 9.23587 7.37232 9.30454 7.30373C9.3732 7.23514 9.42767 7.15368 9.46481 7.06401C9.50195 6.97435 9.52104 6.87823 9.52098 6.78118C9.52221 5.63467 9.97815 4.53546 10.7888 3.72467C11.5994 2.91389 12.6985 2.45774 13.845 2.45629H15.7944C15.9902 2.45629 16.178 2.37849 16.3165 2.24001C16.455 2.10154 16.5328 1.91372 16.5328 1.71789C16.5328 1.52205 16.455 1.33424 16.3165 1.19576C16.178 1.05729 15.9902 0.979492 15.7944 0.979492H13.845C12.307 0.981391 10.8325 1.59327 9.74502 2.68091C8.65753 3.76856 8.04586 5.24314 8.04419 6.78118C8.04413 6.87809 8.06317 6.97407 8.1002 7.06362C8.13724 7.15318 8.19155 7.23456 8.26004 7.30313C8.32853 7.3717 8.40985 7.4261 8.49936 7.46324C8.58888 7.50038 8.68483 7.51952 8.78174 7.51958ZM33.0539 3.51114C32.1869 3.51214 31.3558 3.85699 30.7427 4.47002C30.1297 5.08306 29.7849 5.91422 29.7838 6.78118C29.7838 6.97701 29.8616 7.16483 30.0001 7.3033C30.1386 7.44178 30.3264 7.51958 30.5222 7.51958C30.7181 7.51958 30.9059 7.44178 31.0444 7.3033C31.1828 7.16483 31.2606 6.97701 31.2606 6.78118C31.2611 6.30572 31.4502 5.84986 31.7864 5.51365C32.1226 5.17745 32.5784 4.98838 33.0539 4.98793H35.2805C35.4763 4.98793 35.6641 4.91014 35.8026 4.77166C35.9411 4.63318 36.0189 4.44537 36.0189 4.24953C36.0189 4.0537 35.9411 3.86589 35.8026 3.72741C35.6641 3.58893 35.4763 3.51114 35.2805 3.51114H33.0539ZM37.6539 4.24953C37.6538 4.34652 37.6729 4.44256 37.71 4.53217C37.7471 4.62178 37.8015 4.70321 37.87 4.77178C37.9386 4.84036 38.02 4.89475 38.1097 4.93184C38.1993 4.96892 38.2953 4.98799 38.3923 4.98793H42.2839C42.4797 4.98793 42.6675 4.91014 42.806 4.77166C42.9445 4.63318 43.0222 4.44537 43.0222 4.24953C43.0222 4.0537 42.9445 3.86589 42.806 3.72741C42.6675 3.58893 42.4797 3.51114 42.2839 3.51114H38.3923C38.2953 3.51108 38.1993 3.53014 38.1097 3.56723C38.02 3.60432 37.9386 3.65871 37.87 3.72729C37.8015 3.79586 37.7471 3.87729 37.71 3.9669C37.6729 4.05651 37.6538 4.15255 37.6539 4.24953ZM41.2665 2.45629H42.2839C42.4797 2.45629 42.6675 2.37849 42.806 2.24001C42.9445 2.10154 43.0222 1.91372 43.0222 1.71789C43.0222 1.52205 42.9445 1.33424 42.806 1.19576C42.6675 1.05729 42.4797 0.979492 42.2839 0.979492H41.2665C41.0707 0.979492 40.8829 1.05729 40.7444 1.19576C40.6059 1.33424 40.5282 1.52205 40.5282 1.71789C40.5282 1.91372 40.6059 2.10154 40.7444 2.24001C40.8829 2.37849 41.0707 2.45629 41.2665 2.45629Z" fill="black"/>
<path d="M27.9906 7.51958C28.1864 7.51958 28.3742 7.44178 28.5127 7.3033C28.6512 7.16483 28.729 6.97702 28.729 6.78118C28.7302 5.63452 29.1863 4.53518 29.9971 3.72437C30.8079 2.91357 31.9072 2.45751 33.0539 2.45629H37.2054C37.4012 2.45629 37.589 2.37849 37.7275 2.24001C37.866 2.10154 37.9438 1.91372 37.9438 1.71789C37.9438 1.52205 37.866 1.33424 37.7275 1.19576C37.589 1.05729 37.4012 0.979492 37.2054 0.979492H33.0539C31.5157 0.981167 30.041 1.59295 28.9533 2.68062C27.8657 3.76828 27.2539 5.24299 27.2522 6.78118C27.2521 6.87816 27.2712 6.97421 27.3083 7.06382C27.3454 7.15343 27.3998 7.23485 27.4683 7.30343C27.5369 7.37201 27.6183 7.42639 27.708 7.46348C27.7976 7.50057 27.8936 7.51963 27.9906 7.51958ZM44.2467 25.4457C44.0509 25.4457 43.8631 25.5235 43.7246 25.662C43.5861 25.8005 43.5083 25.9883 43.5083 26.1841V28.7158C43.5083 28.9116 43.5861 29.0994 43.7246 29.2379C43.8631 29.3764 44.0509 29.4542 44.2467 29.4542C44.4425 29.4542 44.6304 29.3764 44.7688 29.2379C44.9073 29.0994 44.9851 28.9116 44.9851 28.7158V26.1841C44.9851 25.9883 44.9073 25.8005 44.7688 25.662C44.6304 25.5235 44.4425 25.4457 44.2467 25.4457Z" fill="black"/>
<path d="M49.3101 46.9709H47.5168V20.7684L49.3983 20.5422C49.5891 20.5147 49.7617 20.4137 49.8791 20.2606C49.9964 20.1075 50.0492 19.9146 50.0262 19.7232C50.0031 19.5317 49.9061 19.3568 49.7558 19.2359C49.6055 19.1151 49.4138 19.0578 49.2219 19.0764L34.1826 20.8832L33.7776 12.387C33.9075 12.329 34.0179 12.2346 34.0954 12.1152C34.1729 11.9959 34.2142 11.8567 34.2143 11.7144V9.18273C34.2142 8.98693 34.1363 8.79918 33.9979 8.66073C33.8594 8.52228 33.6717 8.44445 33.4759 8.44434H25.0371C24.8412 8.44434 24.6534 8.52213 24.5149 8.66061C24.3765 8.79908 24.2987 8.9869 24.2987 9.18273V11.7144C24.2984 11.8573 24.3397 11.9972 24.4176 12.1171C24.4954 12.2369 24.6064 12.3316 24.7371 12.3895L24.2772 22.0756L15.0818 23.1794L14.5704 12.3861C14.7001 12.3281 14.8102 12.2338 14.8876 12.1146C14.9649 11.9955 15.0061 11.8565 15.0063 11.7144V9.18273C15.0063 8.9869 14.9285 8.79908 14.79 8.66061C14.6515 8.52213 14.4637 8.44434 14.2679 8.44434H5.82905C5.63322 8.44434 5.4454 8.52213 5.30693 8.66061C5.16845 8.79908 5.09066 8.9869 5.09066 9.18273V11.7144C5.09065 11.8575 5.1323 11.9976 5.21052 12.1174C5.28874 12.2373 5.40015 12.3318 5.53116 12.3895L4.1839 40.6418H3.6223C3.4326 40.6418 3.25018 40.7148 3.11286 40.8457C2.97554 40.9766 2.89385 41.1553 2.88475 41.3448L2.61471 46.9709H0.786859C0.689875 46.9709 0.593832 46.9899 0.504221 47.027C0.41461 47.0641 0.333187 47.1185 0.26461 47.1871C0.196032 47.2556 0.141644 47.3371 0.104556 47.4267C0.0674679 47.5163 0.0484066 47.6123 0.048462 47.7093V50.241C0.0484066 50.3379 0.0674679 50.434 0.104556 50.5236C0.141644 50.6132 0.196032 50.6946 0.26461 50.7632C0.333187 50.8318 0.41461 50.8862 0.504221 50.9233C0.593832 50.9604 0.689875 50.9794 0.786859 50.9794H49.3101C49.407 50.9794 49.5031 50.9604 49.5927 50.9233C49.6823 50.8862 49.7637 50.8318 49.8323 50.7632C49.9009 50.6946 49.9553 50.6132 49.9924 50.5236C50.0295 50.434 50.0485 50.3379 50.0485 50.241V47.7093C50.0485 47.6123 50.0295 47.5163 49.9924 47.4267C49.9553 47.3371 49.9009 47.2556 49.8323 47.1871C49.7637 47.1185 49.6823 47.0641 49.5927 47.027C49.5031 46.9899 49.407 46.9709 49.3101 46.9709ZM41.897 46.9709V39.2705C41.897 39.0747 41.8192 38.8868 41.6807 38.7484C41.5422 38.6099 41.3544 38.5321 41.1586 38.5321H36.0953C35.9983 38.532 35.9023 38.5511 35.8127 38.5882C35.723 38.6253 35.6416 38.6797 35.573 38.7482C35.5045 38.8168 35.4501 38.8982 35.413 38.9879C35.3759 39.0775 35.3568 39.1735 35.3569 39.2705V46.9709H34.2177V39.2705C34.2177 39.0747 34.1399 38.8868 34.0014 38.7484C33.8629 38.6099 33.6751 38.5321 33.4793 38.5321H28.416C28.319 38.532 28.2229 38.5511 28.1333 38.5882C28.0437 38.6253 27.9623 38.6797 27.8937 38.7482C27.8251 38.8168 27.7708 38.8982 27.7337 38.9879C27.6966 39.0775 27.6775 39.1735 27.6776 39.2705V46.9709H10.7869V25.1832L46.04 20.9464V46.9709H41.897ZM40.4202 46.9709H36.8337V40.0089H40.4202V46.9709ZM32.7409 46.9709H29.1544V40.0089H32.7409V46.9709ZM25.7788 9.92113H32.7409V10.976H25.7788V9.92113ZM26.216 12.4528H32.3025L32.7126 21.0604L25.7658 21.8954L26.216 12.4528ZM6.56998 9.92113H13.5295V10.976H6.56745L6.56998 9.92113ZM7.00922 12.4528H13.0953L13.6113 23.3557L7.42779 24.0996C7.24135 24.1225 7.07062 24.2155 6.95036 24.3598C6.83011 24.5041 6.76936 24.6888 6.78049 24.8763C6.79162 25.0638 6.87379 25.24 7.01028 25.3691C7.14676 25.4981 7.32729 25.5703 7.51513 25.5709C7.54488 25.5709 7.5746 25.5692 7.60416 25.5659L9.31007 25.3604V40.6418H5.66239L7.00922 12.4528ZM4.3261 42.1186H9.31007V46.9709H4.09319L4.3261 42.1186ZM48.5717 49.5026H1.52526V48.4477H48.5717V49.5026Z" fill="black"/>
<path d="M23.5498 36.0711H15.111C14.9151 36.0711 14.7273 36.1489 14.5888 36.2874C14.4504 36.4259 14.3726 36.6137 14.3726 36.8095C14.3726 37.0053 14.4504 37.1931 14.5888 37.3316C14.7273 37.4701 14.9151 37.5479 15.111 37.5479H23.5498C23.7456 37.5479 23.9334 37.4701 24.0719 37.3316C24.2104 37.1931 24.2882 37.0053 24.2882 36.8095C24.2882 36.6137 24.2104 36.4259 24.0719 36.2874C23.9334 36.1489 23.7456 36.0711 23.5498 36.0711ZM23.5498 31.0078H15.111C14.9151 31.0078 14.7273 31.0856 14.5888 31.2241C14.4504 31.3626 14.3726 31.5504 14.3726 31.7462C14.3726 31.942 14.4504 32.1299 14.5888 32.2683C14.7273 32.4068 14.9151 32.4846 15.111 32.4846H23.5498C23.7456 32.4846 23.9334 32.4068 24.0719 32.2683C24.2104 32.1299 24.2882 31.942 24.2882 31.7462C24.2882 31.5504 24.2104 31.3626 24.0719 31.2241C23.9334 31.0856 23.7456 31.0078 23.5498 31.0078ZM23.5498 33.5395H15.111C14.9151 33.5395 14.7273 33.6173 14.5888 33.7557C14.4504 33.8942 14.3726 34.082 14.3726 34.2779C14.3726 34.4737 14.4504 34.6615 14.5888 34.8C14.7273 34.9385 14.9151 35.0163 15.111 35.0163H23.5498C23.7456 35.0163 23.9334 34.9385 24.0719 34.8C24.2104 34.6615 24.2882 34.4737 24.2882 34.2779C24.2882 34.082 24.2104 33.8942 24.0719 33.7557C23.9334 33.6173 23.7456 33.5395 23.5498 33.5395ZM32.2122 32.2736H29.6806C29.5836 32.2736 29.4876 32.2926 29.3979 32.3297C29.3083 32.3668 29.2269 32.4212 29.1583 32.4898C29.0898 32.5584 29.0354 32.6398 28.9983 32.7294C28.9612 32.819 28.9421 32.915 28.9422 33.012V35.5437C28.9421 35.6407 28.9612 35.7367 28.9983 35.8263C29.0354 35.9159 29.0898 35.9973 29.1583 36.0659C29.2269 36.1345 29.3083 36.1889 29.3979 36.226C29.4876 36.2631 29.5836 36.2821 29.6806 36.2821H32.2122C32.4081 36.2821 32.5959 36.2043 32.7343 36.0658C32.8728 35.9273 32.9506 35.7395 32.9506 35.5437V33.012C32.9506 32.8162 32.8728 32.6284 32.7343 32.4899C32.5959 32.3514 32.4081 32.2736 32.2122 32.2736ZM31.4738 34.8053H30.419V33.7504H31.4738V34.8053ZM39.8928 32.2736H37.3612C37.2642 32.2736 37.1681 32.2926 37.0785 32.3297C36.9889 32.3668 36.9075 32.4212 36.8389 32.4898C36.7703 32.5584 36.716 32.6398 36.6789 32.7294C36.6418 32.819 36.6227 32.915 36.6228 33.012V35.5437C36.6227 35.6407 36.6418 35.7367 36.6789 35.8263C36.716 35.9159 36.7703 35.9973 36.8389 36.0659C36.9075 36.1345 36.9889 36.1889 37.0785 36.226C37.1681 36.2631 37.2642 36.2821 37.3612 36.2821H39.8928C40.0886 36.2821 40.2765 36.2043 40.4149 36.0658C40.5534 35.9273 40.6312 35.7395 40.6312 35.5437V33.012C40.6312 32.8162 40.5534 32.6284 40.4149 32.4899C40.2765 32.3514 40.0886 32.2736 39.8928 32.2736ZM39.1544 34.8053H38.0996V33.7504H39.1544V34.8053Z" fill="black"/>
</svg>
