<svg width="51" height="51" viewBox="0 0 51 51" fill="none" xmlns="http://www.w3.org/2000/svg">
<path d="M30.5141 8.60371C30.7083 8.60371 30.8946 8.52655 31.032 8.38919C31.1693 8.25183 31.2465 8.06554 31.2465 7.87129V6.96777C31.2465 6.77352 31.1693 6.58723 31.032 6.44987C30.8946 6.31252 30.7083 6.23535 30.5141 6.23535C30.3198 6.23535 30.1335 6.31252 29.9962 6.44987C29.8588 6.58723 29.7816 6.77352 29.7816 6.96777V7.87129C29.7816 8.06554 29.8588 8.25183 29.9962 8.38919C30.1335 8.52655 30.3198 8.60371 30.5141 8.60371ZM39.9186 8.60371C40.1128 8.60371 40.2991 8.52655 40.4365 8.38919C40.5738 8.25183 40.651 8.06554 40.651 7.87129V6.96777C40.651 6.77352 40.5738 6.58723 40.4365 6.44987C40.2991 6.31252 40.1128 6.23535 39.9186 6.23535C39.7243 6.23535 39.538 6.31252 39.4007 6.44987C39.2633 6.58723 39.1861 6.77352 39.1861 6.96777V7.87129C39.1861 8.06554 39.2633 8.25183 39.4007 8.38919C39.538 8.52655 39.7243 8.60371 39.9186 8.60371ZM35.2163 9.1416C35.556 9.14155 35.8916 9.06868 36.2008 8.92792C36.5099 8.78715 36.7852 8.58176 37.0082 8.32559C37.1358 8.17913 37.2 7.98798 37.1867 7.79418C37.1734 7.60038 37.0837 7.41981 36.9372 7.29219C36.7908 7.16456 36.5996 7.10035 36.4058 7.11366C36.212 7.12698 36.0314 7.21673 35.9038 7.36318C35.7302 7.5625 35.4796 7.67666 35.2163 7.67666C34.953 7.67666 34.7024 7.5624 34.5287 7.36309C34.4002 7.21979 34.2205 7.13283 34.0284 7.121C33.8363 7.10918 33.6472 7.17344 33.5021 7.29989C33.357 7.42634 33.2675 7.60482 33.2529 7.79674C33.2384 7.98866 33.2999 8.1786 33.4243 8.32549C33.6474 8.58166 33.9227 8.78705 34.2318 8.92783C34.5409 9.06861 34.8766 9.1415 35.2163 9.1416ZM13.2098 20.5514C13.0607 20.5978 12.9303 20.6908 12.8378 20.8165C12.7452 20.9423 12.6953 21.0944 12.6953 21.2506V28.0737C12.6953 28.268 12.7725 28.4543 12.9098 28.5916C13.0472 28.729 13.2335 28.8062 13.4277 28.8062C13.622 28.8062 13.8083 28.729 13.9456 28.5916C14.083 28.4543 14.1602 28.268 14.1602 28.0737V23.6002L17.4386 28.3477C17.6586 28.6654 18.0236 28.8013 18.3688 28.6935C18.7221 28.5831 18.9504 28.2494 18.9503 27.8363L18.8863 21.2307C18.8824 20.8262 18.5475 20.4989 18.1469 20.5054C17.9526 20.5073 17.7671 20.5862 17.6311 20.7249C17.4951 20.8636 17.4197 21.0506 17.4216 21.2448L17.4658 25.8092L14.0304 20.8345C13.9416 20.706 13.8141 20.6092 13.6665 20.5583C13.5189 20.5073 13.3589 20.5049 13.2098 20.5514ZM25.3205 21.9703C25.8554 21.9694 26.3784 22.129 26.8216 22.4285C26.9826 22.5372 27.1801 22.5775 27.3708 22.5406C27.5615 22.5036 27.7298 22.3924 27.8385 22.2314C27.9472 22.0705 27.9875 21.8729 27.9505 21.6822C27.9136 21.4915 27.8024 21.3233 27.6414 21.2146C26.9562 20.7512 26.1477 20.5041 25.3205 20.5054C23.0319 20.5054 21.17 22.3672 21.17 24.6558C21.17 26.9443 23.0319 28.8062 25.3205 28.8062C27.489 28.8062 29.0034 27.0994 29.0034 24.6558C29.0034 24.4615 28.9263 24.2752 28.7889 24.1379C28.6515 24.0005 28.4652 23.9233 28.271 23.9233H26.226C26.0317 23.9233 25.8454 24.0005 25.7081 24.1379C25.5707 24.2752 25.4936 24.4615 25.4936 24.6558C25.4936 24.85 25.5707 25.0363 25.7081 25.1737C25.8454 25.311 26.0317 25.3882 26.226 25.3882H27.4695C27.2734 26.4015 26.64 27.3413 25.3205 27.3413C23.8396 27.3413 22.6349 26.1366 22.6349 24.6558C22.6349 23.175 23.8396 21.9703 25.3205 21.9703ZM30.2003 24.6558C30.2003 26.9442 32.0621 28.8062 34.3507 28.8062C36.6393 28.8062 38.5011 26.9443 38.5011 24.6558C38.5011 22.3672 36.6393 20.5055 34.3507 20.5055C32.0621 20.5055 30.2003 22.3673 30.2003 24.6558ZM37.0361 24.6558C37.0361 26.1365 35.8314 27.3413 34.3506 27.3413C32.8697 27.3413 31.665 26.1366 31.665 24.6558C31.665 23.1749 32.8697 21.9703 34.3506 21.9703C35.8314 21.9703 37.0361 23.175 37.0361 24.6558Z" fill="black"/>
<path d="M40.5645 13.7955C42.2192 13.7955 43.5655 12.4492 43.5655 10.7945V4.58262C43.5655 2.92783 42.2192 1.58164 40.5645 1.58164H28.2027C27.9028 0.759473 27.1132 0.170898 26.1886 0.170898H25.0075C23.8258 0.170898 22.8644 1.13232 22.8644 2.31406V17.2453H8.24834C5.56172 17.2453 3.37598 19.4311 3.37598 22.1177V34.2606C3.37598 34.4549 3.45314 34.6412 3.5905 34.7785C3.72785 34.9159 3.91415 34.9931 4.1084 34.9931C4.30265 34.9931 4.48894 34.9159 4.6263 34.7785C4.76365 34.6412 4.84082 34.4549 4.84082 34.2606V22.1176C4.84082 20.2387 6.36943 18.7101 8.24834 18.7101H42.9478C44.8267 18.7101 46.3553 20.2387 46.3553 22.1176V26.376C46.3553 26.5702 46.4324 26.7565 46.5698 26.8939C46.7071 27.0312 46.8934 27.1084 47.0877 27.1084C47.2819 27.1084 47.4682 27.0312 47.6056 26.8939C47.743 26.7565 47.8201 26.5702 47.8201 26.376V22.1176C47.8201 19.431 45.6344 17.2452 42.9478 17.2452H28.3317V13.7954H40.5645V13.7955ZM42.1007 4.58262V10.7944C42.1007 11.6415 41.4115 12.3306 40.5645 12.3306H28.3317V3.04648H40.5645C41.4115 3.04648 42.1007 3.73564 42.1007 4.58262ZM24.3292 17.2453V2.31406C24.3294 2.13422 24.4009 1.96181 24.5281 1.83465C24.6553 1.70748 24.8277 1.63595 25.0075 1.63574H26.1886C26.3684 1.63595 26.5408 1.70748 26.668 1.83465C26.7952 1.96181 26.8667 2.13422 26.8669 2.31406V17.2452L24.3292 17.2453Z" fill="black"/>
<path d="M3.10029 50.1709H48.0955C49.3156 50.1709 50.3082 49.1783 50.3082 47.9583V44.5159C50.3082 42.992 49.2439 41.7129 47.8199 41.3803V29.3057C47.8199 29.1114 47.7428 28.9251 47.6054 28.7878C47.468 28.6504 47.2817 28.5732 47.0875 28.5732C46.8932 28.5732 46.707 28.6504 46.5696 28.7878C46.4322 28.9251 46.3551 29.1114 46.3551 29.3057V41.2952H33.4936V33.6737C33.4936 31.7951 31.9651 30.2667 30.0865 30.2667H21.1095C19.2309 30.2667 17.7024 31.7951 17.7024 33.6737V41.2952H4.84072V37.1901C4.84072 36.9959 4.76356 36.8096 4.6262 36.6722C4.48885 36.5349 4.30255 36.4577 4.1083 36.4577C3.91405 36.4577 3.72776 36.5349 3.5904 36.6722C3.45304 36.8096 3.37588 36.9959 3.37588 37.1901V41.3802C1.95186 41.7128 0.887695 42.9919 0.887695 44.5158V47.9582C0.887695 49.1783 1.88027 50.1709 3.10029 50.1709ZM19.1672 33.6737C19.1672 32.6028 20.0385 31.7315 21.1094 31.7315H30.0864C31.1573 31.7315 32.0286 32.6028 32.0286 33.6737V41.2952H19.1672V33.6737ZM2.35254 44.5159C2.35254 43.5478 3.14023 42.7602 4.1084 42.7602H47.0876C48.0558 42.7602 48.8435 43.5478 48.8435 44.5159V47.9583C48.8435 48.3706 48.508 48.7061 48.0956 48.7061H3.10029C2.68799 48.7061 2.35254 48.3706 2.35254 47.9583V44.5159Z" fill="black"/>
</svg>
