<svg width="56" height="52" viewBox="0 0 56 52" fill="none" xmlns="http://www.w3.org/2000/svg">
<path d="M54.4632 32.6462C53.417 31.1087 51.3103 30.7018 49.7681 31.7382L42.7492 36.4356L42.7288 21.8144L45.1673 24.0987C45.6829 24.5832 46.3642 24.8525 47.0717 24.8516H47.0759C47.4565 24.8505 47.8328 24.7718 48.1818 24.6202C48.5309 24.4687 48.8454 24.2475 49.106 23.9702C49.6148 23.427 49.8818 22.7182 49.8575 21.9742C49.8332 21.2302 49.5206 20.5403 48.9774 20.0314L44.3545 15.7008C44.2017 15.5637 44.0012 15.4919 43.7961 15.5008C43.5909 15.5097 43.3974 15.5986 43.2571 15.7485C43.1167 15.8983 43.0406 16.0972 43.0451 16.3024C43.0495 16.5077 43.1343 16.7031 43.281 16.8467L47.9039 21.1773C48.0209 21.2862 48.1151 21.4173 48.181 21.5628C48.247 21.7084 48.2834 21.8656 48.2882 22.0254C48.2938 22.1851 48.2677 22.3443 48.2114 22.4939C48.1551 22.6435 48.0696 22.7804 47.96 22.8967C47.8468 23.0185 47.7096 23.1156 47.5571 23.1818C47.4045 23.2481 47.2399 23.282 47.0736 23.2814H47.0717C46.762 23.2814 46.467 23.1648 46.2406 22.9527L46.2405 22.9526L27.884 5.75664C27.7383 5.62011 27.546 5.54426 27.3463 5.54454C27.1465 5.54482 26.9545 5.62121 26.8091 5.75815L8.50031 23.0056C8.38419 23.1154 8.2475 23.2011 8.09811 23.2578C7.94872 23.3145 7.78958 23.3411 7.62987 23.336C7.47009 23.3317 7.31276 23.2957 7.167 23.2301C7.02123 23.1646 6.88993 23.0707 6.7807 22.954C6.67079 22.838 6.58499 22.7014 6.52827 22.552C6.47155 22.4026 6.44504 22.2434 6.45027 22.0837C6.4546 21.9239 6.49057 21.7666 6.5561 21.6209C6.62163 21.4751 6.71542 21.3438 6.83205 21.2345L26.5093 2.69802C26.9757 2.25856 27.7074 2.25748 28.1751 2.69576L39.6871 13.4801C39.7624 13.5505 39.8508 13.6055 39.9472 13.6418C40.0437 13.6782 40.1464 13.6951 40.2495 13.6918C40.3525 13.6884 40.4539 13.6648 40.5478 13.6223C40.6417 13.5797 40.7263 13.5191 40.7968 13.4439C40.8673 13.3686 40.9223 13.2802 40.9586 13.1838C40.9949 13.0873 41.0119 12.9846 41.0085 12.8815C41.0052 12.7785 40.9815 12.6771 40.939 12.5832C40.8965 12.4893 40.8358 12.4047 40.7606 12.3342L29.2486 1.5499C28.1773 0.546145 26.5012 0.548401 25.4327 1.55516L19.1336 7.48914L19.1319 6.43072C19.1321 6.26664 19.0998 6.10414 19.0368 5.95265C18.9738 5.80115 18.8813 5.66366 18.7648 5.54814C18.6491 5.43216 18.5117 5.34024 18.3603 5.27766C18.209 5.21509 18.0467 5.1831 17.883 5.18355H17.8811L13.3751 5.18989C13.211 5.18966 13.0485 5.22199 12.897 5.28499C12.7456 5.348 12.6081 5.44044 12.4925 5.55695C12.3764 5.67283 12.2843 5.81061 12.2218 5.96231C12.1592 6.11401 12.1273 6.27661 12.1281 6.44071L12.1405 14.077L5.75546 20.0919C5.21363 20.6022 4.90307 21.2931 4.88084 22.0371C4.8586 22.7811 5.12748 23.4892 5.63784 24.0308C6.14809 24.5727 6.83892 24.8833 7.58303 24.9056C7.6115 24.9064 7.63997 24.9069 7.66843 24.9069C8.38118 24.9069 9.05611 24.6394 9.577 24.1485L12.01 21.8565L12.0197 28.7628C11.2304 28.6471 10.4337 28.5887 9.63597 28.588H8.29266V28.1173C8.29266 26.537 7.00693 25.2512 5.42665 25.2512H2.91448C1.33419 25.2511 0.0484619 26.5368 0.0484619 28.1172V40.4189C0.0484619 40.6271 0.131171 40.8268 0.278395 40.974C0.425618 41.1212 0.625296 41.2039 0.833501 41.2039C1.04171 41.2039 1.24138 41.1212 1.38861 40.974C1.53583 40.8268 1.61854 40.6271 1.61854 40.4189V28.1172C1.61854 27.4026 2.19991 26.8212 2.91448 26.8212H5.42654C6.14111 26.8212 6.72248 27.4026 6.72248 28.1172V46.7077C6.72248 47.4223 6.14111 48.0036 5.42654 48.0036H2.91448C2.19991 48.0036 1.61854 47.4223 1.61854 46.7077V45.334C1.61854 45.1258 1.53583 44.9261 1.38861 44.7789C1.24138 44.6317 1.04171 44.5489 0.833501 44.5489C0.625296 44.5489 0.425618 44.6317 0.278395 44.7789C0.131171 44.9261 0.0484619 45.1258 0.0484619 45.334L0.0484619 46.7077C0.0484619 48.288 1.33419 49.5737 2.91448 49.5737H5.42654C7.00682 49.5737 8.29255 48.2881 8.29255 46.7077V46.601L19.7893 50.9546C19.8105 50.9627 19.8321 50.9698 19.854 50.9759C20.3539 51.117 20.8535 51.1878 21.3468 51.1878C21.6136 51.1878 21.8786 51.1671 22.141 51.1256L39.0364 48.6902L39.0482 48.6883C40.4862 48.4582 41.8381 47.8525 42.9669 46.9324C42.9767 46.9245 42.9864 46.9162 42.9957 46.9077L53.911 37.0906C55.1821 35.9622 55.4194 34.0515 54.4632 32.6462ZM17.5622 6.75416L17.5659 8.96598L13.7081 12.6001L13.6986 6.75943L17.5622 6.75416ZM27.3488 7.40664L41.1566 20.3415L41.1805 37.4853L38.9578 38.9729L36.6041 38.8409L36.5419 38.2157C36.438 37.1507 35.9931 36.1477 35.2736 35.3557C34.554 34.5637 33.5981 34.0251 32.548 33.8198L32.5338 23.6206C32.5327 22.8379 31.8955 22.2019 31.1129 22.2019H31.111L23.6286 22.2124C23.442 22.2121 23.2571 22.2489 23.0848 22.3206C22.9124 22.3922 22.756 22.4974 22.6246 22.6299C22.4924 22.7617 22.3877 22.9184 22.3165 23.091C22.2453 23.2635 22.209 23.4484 22.2098 23.6351L22.2223 32.5276C20.7384 32.1887 19.3151 31.6247 18.0019 30.8552C17.8369 30.7589 17.6702 30.6653 17.5019 30.5748C17.4364 30.5394 17.3698 30.5062 17.3037 30.4717C17.2015 30.4183 17.0994 30.3646 16.9961 30.3134C16.9138 30.2726 16.8306 30.2339 16.7476 30.1945C16.6596 30.1527 16.5718 30.1105 16.4831 30.0702C16.3929 30.0293 16.3019 29.9903 16.211 29.951C16.128 29.9151 16.045 29.879 15.9614 29.8445C15.8679 29.8059 15.774 29.7689 15.6798 29.732C15.5964 29.6994 15.5128 29.6669 15.4289 29.6356C15.3358 29.6008 15.2422 29.5671 15.1484 29.5342C14.8759 29.438 14.6008 29.349 14.3235 29.2674C14.2403 29.2429 14.1571 29.2184 14.0735 29.1952C13.9641 29.1651 13.8545 29.1361 13.7445 29.1082C13.6931 29.095 13.6419 29.0801 13.5902 29.0673L13.578 20.3792L27.3488 7.40664ZM30.9777 33.6233L24.4115 32.8673L23.7929 32.7961L23.7802 23.7823L30.9639 23.7722L30.9777 33.6233ZM52.8649 35.9201L41.9604 45.7275C41.0504 46.465 39.9629 46.951 38.8064 47.1371L21.9183 49.5715L21.9077 49.5731L21.896 49.5749C21.3844 49.6559 20.8516 49.6217 20.3122 49.4737L8.29266 44.922V30.158H9.63597C10.8178 30.1584 11.9955 30.2986 13.1445 30.5756C13.2804 30.6084 13.4159 30.6421 13.5509 30.6786L13.5862 30.6885C13.7214 30.7255 13.8561 30.7645 13.9904 30.8052C14.0145 30.8125 14.0387 30.8197 14.0626 30.8271C14.2055 30.8712 14.3477 30.9173 14.4892 30.9657L14.5329 30.9809C14.8439 31.0883 15.1512 31.2059 15.4545 31.3335C15.602 31.3955 15.7486 31.4598 15.894 31.5265C16.0311 31.5895 16.1672 31.6548 16.3025 31.7219C16.3184 31.7298 16.3344 31.7375 16.3503 31.7454C16.4824 31.8115 16.6135 31.8799 16.7438 31.95C16.7684 31.9632 16.7928 31.9767 16.8174 31.99C16.9489 32.0617 17.0797 32.1347 17.2091 32.2105C19.0773 33.3033 21.111 34.0111 23.2538 34.3143C23.2606 34.3153 23.2673 34.3161 23.274 34.3169L32.0698 35.3296C32.7271 35.4231 33.3427 35.7067 33.8409 36.1456C34.339 36.5845 34.698 37.1594 34.8737 37.7996C34.9244 37.9842 34.96 38.1752 34.9796 38.371L35.0145 38.7223L18.5295 37.278C18.4268 37.269 18.3234 37.2803 18.225 37.3113C18.1267 37.3423 18.0355 37.3923 17.9565 37.4586C17.797 37.5924 17.6971 37.7841 17.679 37.9915C17.6608 38.1989 17.7258 38.405 17.8596 38.5645C17.9934 38.724 18.1851 38.8239 18.3925 38.842L35.8208 40.369C35.825 40.3694 35.8291 40.3693 35.8332 40.3696C35.8372 40.3699 35.8412 40.3706 35.8454 40.3709L39.1322 40.5553C39.1469 40.5562 39.1615 40.5565 39.1761 40.5565C39.1917 40.5565 39.2071 40.554 39.2225 40.5531C39.24 40.552 39.2576 40.5513 39.275 40.5492C39.2984 40.5462 39.3213 40.5411 39.3442 40.5361C39.3607 40.5324 39.3772 40.5298 39.3933 40.525C39.4185 40.5178 39.4426 40.5081 39.467 40.4983C39.4801 40.493 39.4937 40.489 39.5066 40.483C39.5432 40.4661 39.5789 40.4465 39.6128 40.4237L42.4028 38.5566L42.4031 38.5563L50.6426 33.0421C51.4715 32.4849 52.6031 32.7035 53.165 33.5294C53.6787 34.2841 53.5512 35.3106 52.8649 35.9201Z" fill="black"/>
</svg>
