<svg width="500" height="501" viewBox="0 0 500 501" fill="none" xmlns="http://www.w3.org/2000/svg">
<path d="M108.936 298.301H188.506V442.002H108.936V298.301Z" fill="#B5CDFF"/>
<path d="M385.088 15.625H114.912C109.668 15.625 105.4 19.9121 105.4 25.1855V84.0234C105.4 89.2773 109.668 93.5645 114.912 93.5645H385.088C390.332 93.5645 394.6 89.2871 394.6 84.0234V25.1855C394.6 19.9121 390.332 15.625 385.088 15.625Z" fill="#E5E5E8"/>
<path d="M500 208.564V192.822C500 191.572 499.697 190.352 499.131 189.238L458.135 109.785C452.969 99.7754 441.201 93.5547 427.441 93.5547H408.35C409.561 90.6152 410.234 87.3926 410.234 84.0137V25.1855C410.234 11.2988 398.955 0 385.098 0H114.912C101.045 0 89.7754 11.2988 89.7754 25.1855V84.0234C89.7754 87.4023 90.4492 90.6152 91.6602 93.5645H72.5586C58.7598 93.5645 46.9922 99.7949 41.8652 109.795L0.869141 189.238C0.301445 190.348 0.00365875 191.576 0 192.822L0 208.564C0 236.514 20.459 259.766 47.168 264.131V441.992H29.2383C13.1152 441.992 0 455.137 0 471.289V492.734C0 497.051 3.49609 500.547 7.8125 500.547H492.188C496.504 500.547 500 497.051 500 492.734V471.289C500 455.137 486.875 442.002 470.732 442.002H452.832V264.131C479.541 259.766 500 236.514 500 208.564ZM444.248 116.953L476.963 180.352H400.596L372.246 109.18H427.441C435.215 109.18 441.807 112.236 444.248 116.953ZM205.684 109.18L194.844 180.352H116.221L144.57 109.18H205.684ZM221.484 109.18H278.516L289.355 180.352H210.645L221.484 109.18ZM305.156 180.352L294.316 109.18H355.43L383.779 180.352H305.156ZM105.4 84.0234V25.1855C105.4 19.9121 109.668 15.625 114.912 15.625H385.088C390.332 15.625 394.6 19.9121 394.6 25.1855V84.0234C394.6 89.2773 390.332 93.5645 385.088 93.5645H114.912C109.668 93.5547 105.4 89.2773 105.4 84.0234ZM55.7617 116.934C58.1348 112.295 64.8926 109.18 72.5586 109.18H127.754L99.4043 180.352H23.0371L55.7617 116.934ZM15.625 208.564V195.977H484.375V208.564C484.375 230.996 466.152 249.248 443.74 249.248C421.328 249.248 403.105 230.996 403.105 208.564C403.105 204.248 399.609 200.752 395.293 200.752C390.977 200.752 387.48 204.248 387.48 208.564C387.48 230.996 369.268 249.248 346.875 249.248C324.473 249.248 306.24 230.996 306.24 208.564C306.24 204.248 302.744 200.752 298.428 200.752C294.111 200.752 290.615 204.248 290.615 208.564C290.615 230.996 272.393 249.248 249.98 249.248C227.568 249.248 209.346 230.996 209.346 208.564C209.346 204.248 205.85 200.752 201.533 200.752C197.217 200.752 193.721 204.248 193.721 208.564C193.721 230.996 175.498 249.248 153.086 249.248C130.693 249.248 112.48 230.996 112.48 208.564C112.48 204.248 108.984 200.752 104.668 200.752C100.352 200.752 96.8555 204.248 96.8555 208.564C96.8555 230.996 78.6328 249.248 56.2207 249.248C33.8086 249.248 15.625 230.996 15.625 208.564ZM484.375 471.289V484.922H15.625V471.289C15.625 463.75 21.7285 457.627 29.2383 457.627H470.732C478.252 457.617 484.375 463.75 484.375 471.289ZM188.516 441.992H108.945V298.301H188.516V441.992ZM204.141 441.992V290.488C204.141 286.172 200.645 282.676 196.328 282.676H101.133C96.8164 282.676 93.3203 286.172 93.3203 290.488V442.002H62.793V264.492C80.625 262.412 95.9473 251.963 104.697 237.178C114.492 253.75 132.529 264.883 153.115 264.883C173.711 264.883 191.758 253.75 201.562 237.178C211.367 253.75 229.414 264.883 250.01 264.883C270.605 264.883 288.652 253.75 298.457 237.178C308.262 253.75 326.309 264.883 346.904 264.883C367.49 264.883 385.527 253.75 395.322 237.178C404.072 251.963 419.395 262.422 437.227 264.492V442.002H204.141V441.992ZM399.15 282.676H242.197C237.881 282.676 234.385 286.172 234.385 290.488V406.826C234.385 411.143 237.881 414.639 242.197 414.639H399.15C403.467 414.639 406.963 411.143 406.963 406.826V290.488C406.963 286.172 403.467 282.676 399.15 282.676ZM391.338 399.014H250.01V298.301H391.338V399.014ZM162.383 386.26V375.957C162.383 371.641 165.879 368.145 170.195 368.145C174.512 368.145 178.008 371.641 178.008 375.957V386.27C178.008 390.586 174.512 394.082 170.195 394.082C165.879 394.082 162.383 390.576 162.383 386.26ZM345.586 21.1426H327.373C323.057 21.1426 319.561 24.6387 319.561 28.9551V80.2539C319.561 84.5703 323.057 88.0664 327.373 88.0664C331.689 88.0664 335.186 84.5703 335.186 80.2539V67.4512H345.586C358.35 67.4512 368.73 57.0605 368.73 44.2871C368.73 31.5234 358.35 21.1426 345.586 21.1426ZM345.586 51.8262H335.186V36.7676H345.586C349.736 36.7676 353.105 40.1367 353.105 44.2773C353.105 48.4375 349.736 51.8262 345.586 51.8262ZM177.803 64.4824C178.838 69.7852 177.48 75.0586 173.965 79.3262C169.59 84.6387 162.031 88.0664 154.717 88.0664C146.094 88.0664 138.086 83.7695 133.291 76.5723C132.143 74.8483 131.727 72.7393 132.133 70.7085C132.54 68.6778 133.736 66.8915 135.459 65.7422C137.183 64.5945 139.292 64.1781 141.323 64.5846C143.353 64.9911 145.14 66.1873 146.289 67.9102C148.174 70.7422 151.328 72.4414 154.707 72.4414C157.324 72.4414 160.488 71.1035 161.895 69.3945C162.598 68.5449 162.559 67.9883 162.461 67.4805C162.08 65.5371 156.055 63.3887 152.07 61.9629C143.877 59.0332 133.682 55.3906 131.602 44.7266C130.566 39.4238 131.924 34.1504 135.439 29.8926C139.814 24.5801 147.383 21.1426 154.717 21.1426C163.32 21.1426 171.318 25.4395 176.113 32.6367C177.261 34.3606 177.677 36.4697 177.271 38.5005C176.864 40.5312 175.668 42.3175 173.945 43.4668C172.221 44.6145 170.112 45.0309 168.082 44.6244C166.051 44.2178 164.265 43.0217 163.115 41.2988C161.23 38.4668 158.096 36.7676 154.727 36.7676C152.09 36.7676 148.916 38.1055 147.51 39.8242C146.816 40.6738 146.846 41.2305 146.943 41.7285C147.324 43.6719 153.35 45.8203 157.334 47.2461C165.527 50.1758 175.723 53.8184 177.803 64.4824ZM242.92 28.9551V80.2539C242.92 84.5703 239.424 88.0664 235.107 88.0664C230.791 88.0664 227.295 84.5703 227.295 80.2539V62.4023H204.971V80.2539C204.971 84.5703 201.475 88.0664 197.158 88.0664C192.842 88.0664 189.346 84.5703 189.346 80.2539V28.9551C189.346 24.6387 192.842 21.1426 197.158 21.1426C201.475 21.1426 204.971 24.6387 204.971 28.9551V46.7773H227.295V28.9551C227.295 24.6387 230.791 21.1426 235.107 21.1426C239.424 21.1426 242.92 24.6387 242.92 28.9551ZM280.811 21.1426C266.045 21.1426 254.033 33.1641 254.033 47.9395V61.2695C254.033 76.0449 266.045 88.0664 280.811 88.0664C295.576 88.0664 307.588 76.0449 307.588 61.2695V47.9395C307.588 33.1641 295.576 21.1426 280.811 21.1426ZM291.963 61.2695C291.963 67.4316 286.963 72.4414 280.811 72.4414C274.658 72.4414 269.658 67.4316 269.658 61.2695V47.9395C269.658 41.7773 274.658 36.7676 280.811 36.7676C286.963 36.7676 291.963 41.7773 291.963 47.9395V61.2695Z" fill="black"/>
<path d="M127.754 109.18H72.5586C64.8926 109.18 58.1348 112.295 55.7617 116.934L23.0371 180.352H99.4043L127.754 109.18Z" fill="#FC6067"/>
<path d="M194.844 180.352L205.684 109.18H144.57L116.221 180.352H194.844Z" fill="#E5E5E8"/>
<path d="M210.645 180.352H289.355L278.516 109.18H221.484L210.645 180.352Z" fill="#FC6067"/>
<path d="M294.316 109.18L305.156 180.352H383.779L355.43 109.18H294.316Z" fill="#E5E5E8"/>
<path d="M400.596 180.352H476.963L444.248 116.953C441.807 112.236 435.215 109.18 427.441 109.18H372.246L400.596 180.352Z" fill="#FC6067"/>
<path d="M15.625 471.289V484.922H484.375V471.289C484.375 463.75 478.252 457.627 470.732 457.627H29.2383C21.7285 457.617 15.625 463.75 15.625 471.289Z" fill="#334A5C"/>
<path d="M437.207 441.992V264.492C419.375 262.412 404.053 251.963 395.303 237.178C385.508 253.75 367.471 264.883 346.885 264.883C326.289 264.883 308.242 253.75 298.437 237.178C288.633 253.75 270.586 264.883 249.99 264.883C229.395 264.883 211.348 253.75 201.543 237.178C191.738 253.75 173.691 264.883 153.096 264.883C132.51 264.883 114.473 253.75 104.678 237.178C95.9277 251.963 80.6055 262.422 62.7734 264.492V442.002H93.291V290.488C93.291 286.172 96.7871 282.676 101.104 282.676H196.299C200.615 282.676 204.111 286.172 204.111 290.488V442.002H437.207V441.992ZM234.385 290.488C234.385 286.172 237.881 282.676 242.197 282.676H399.15C403.467 282.676 406.963 286.172 406.963 290.488V406.826C406.963 411.143 403.467 414.639 399.15 414.639H242.197C237.881 414.639 234.385 411.143 234.385 406.826V290.488Z" fill="#FDCF66"/>
<path d="M250.01 298.301H391.338V399.014H250.01V298.301Z" fill="#B5CDFF"/>
<path d="M15.625 208.564C15.625 230.996 33.8477 249.248 56.2598 249.248C78.6719 249.248 96.8945 230.996 96.8945 208.564C96.8945 204.248 100.391 200.752 104.707 200.752C109.023 200.752 112.52 204.248 112.52 208.564C112.52 230.996 130.732 249.248 153.125 249.248C175.527 249.248 193.76 230.996 193.76 208.564C193.76 204.248 197.256 200.752 201.572 200.752C205.889 200.752 209.385 204.248 209.385 208.564C209.385 230.996 227.607 249.248 250.02 249.248C272.432 249.248 290.654 230.996 290.654 208.564C290.654 204.248 294.15 200.752 298.467 200.752C302.783 200.752 306.279 204.248 306.279 208.564C306.279 230.996 324.502 249.248 346.914 249.248C369.307 249.248 387.52 230.996 387.52 208.564C387.52 204.248 391.016 200.752 395.332 200.752C399.648 200.752 403.145 204.248 403.145 208.564C403.145 230.996 421.367 249.248 443.779 249.248C466.191 249.248 484.375 230.996 484.375 208.564V195.977H15.625V208.564Z" fill="#EA5762"/>
<path d="M395.303 195.977H298.438V200.752C302.754 200.752 306.25 204.248 306.25 208.564C306.25 230.996 324.473 249.248 346.885 249.248C369.277 249.248 387.49 230.996 387.49 208.564C387.49 204.248 390.986 200.752 395.303 200.752V195.977ZM104.697 195.977V200.752C109.014 200.752 112.51 204.248 112.51 208.564C112.51 230.996 130.723 249.248 153.115 249.248C175.518 249.248 193.75 230.996 193.75 208.564C193.75 204.248 197.246 200.752 201.563 200.752V195.977H104.697Z" fill="#DCDCE2"/>
</svg>
