<svg width="51" height="51" viewBox="0 0 51 51" fill="none" xmlns="http://www.w3.org/2000/svg">
<path d="M42.7902 15.4956H36.3386V20.3343H42.7902V15.4956ZM41.1773 18.7214H37.9515V17.1085H41.1773V18.7214Z" fill="black"/>
<path d="M46.0161 21.9472V13.7343C46.4864 13.5685 46.894 13.2613 47.1827 12.8547C47.4715 12.4481 47.6274 11.9621 47.629 11.4634V9.85046L45.0032 0.979492H24.4483L21.8564 9.61901L21.8225 11.4634C21.8225 12.5134 22.4991 13.4005 23.4354 13.7343V21.9472H16.4233C18.7088 20.3408 20.2096 17.6892 20.2096 14.6892C20.2096 9.79804 16.2298 5.8182 11.3387 5.8182C6.44753 5.8182 2.46769 9.79804 2.46769 14.6892C2.46769 17.6892 3.9685 20.3408 6.25398 21.9472H4.0806C1.85721 21.9472 0.0483398 23.7561 0.0483398 25.9795V46.9472C0.0483398 49.1706 1.85721 50.9795 4.0806 50.9795H46.0161C48.2395 50.9795 50.0483 49.1706 50.0483 46.9472V25.9795C50.0483 23.7561 48.2395 21.9472 46.0161 21.9472ZM45.2096 12.2698H40.3709C39.9258 12.2698 39.5645 11.9077 39.5645 11.4634V10.6569H46.0161V11.4634C46.0161 11.9077 45.6548 12.2698 45.2096 12.2698ZM37.9516 11.4634C37.9516 11.9077 37.5903 12.2698 37.1451 12.2698H32.3064C31.8612 12.2698 31.5 11.9077 31.5 11.4634V10.6569H37.9516V11.4634ZM29.8871 11.4634C29.8871 11.9077 29.5258 12.2698 29.0806 12.2698H24.2419C23.7967 12.2698 23.4354 11.9077 23.4354 11.4634V10.6569H29.8871V11.4634ZM31.5846 9.04401L32.2298 2.5924H37.2217L37.8701 9.04401H31.5846ZM45.7387 9.04401H39.4879L38.8427 2.5924H43.8032L45.7387 9.04401ZM25.6483 2.5924H30.6088L29.9669 9.04401H23.7129L25.6483 2.5924ZM25.0483 13.8827H29.0806C29.6777 13.8807 30.2527 13.6565 30.6935 13.2537C31.1225 13.6408 31.6846 13.8827 32.3064 13.8827H37.1451C37.7422 13.8807 38.3172 13.6565 38.758 13.2537C39.187 13.6408 39.7491 13.8827 40.3709 13.8827H44.4032V21.9472H34.7258V15.4956H26.6612V21.9472H25.0483V13.8827ZM33.1129 21.9472H28.2741V17.1085H33.1129V21.9472ZM4.0806 14.6892C4.0806 10.6876 7.33624 7.43111 11.3387 7.43111C15.3411 7.43111 18.5967 10.6876 18.5967 14.6892C18.5967 18.6908 15.3411 21.9472 11.3387 21.9472C7.33624 21.9472 4.0806 18.6908 4.0806 14.6892ZM48.4354 46.9472C48.4354 48.2811 47.35 49.3666 46.0161 49.3666H4.0806C2.74673 49.3666 1.66124 48.2811 1.66124 46.9472V25.9795C1.66124 24.6456 2.74673 23.5601 4.0806 23.5601H46.0161C47.35 23.5601 48.4354 24.6456 48.4354 25.9795V46.9472Z" fill="black"/>
<path d="M41.9838 25.1731H8.11288C7.22336 25.1731 6.49998 25.8965 6.49998 26.786V46.1408C6.49998 47.0304 7.22336 47.7537 8.11288 47.7537H41.9838C42.8734 47.7537 43.5967 47.0304 43.5967 46.1408V26.786C43.5967 25.8965 42.8734 25.1731 41.9838 25.1731ZM41.9838 46.1408H8.11288V26.786L41.9838 26.7852V46.1408ZM45.2097 32.4312H46.8226V40.4957H45.2097V32.4312ZM3.27417 38.8828H4.88707V40.4957H3.27417V38.8828ZM3.27417 32.4312H4.88707V37.2699H3.27417V32.4312Z" fill="black"/>
<path d="M12.1451 33.2375H15.1321L16.0797 39.8681C15.6328 40.0482 15.2497 40.3576 14.9798 40.7568C14.7098 41.1559 14.5652 41.6266 14.5644 42.1085C14.5644 43.4423 15.6499 44.5278 16.9838 44.5278C18.3176 44.5278 19.4031 43.4423 19.4031 42.1085C19.4031 41.8246 19.3451 41.5552 19.2547 41.302H24.391C24.2949 41.5601 24.2444 41.833 24.2418 42.1085C24.2418 43.4423 25.3273 44.5278 26.6612 44.5278C27.9951 44.5278 29.0805 43.4423 29.0805 42.1085C29.0793 41.6457 28.9454 41.193 28.6947 40.8041C28.444 40.4152 28.087 40.1063 27.666 39.9141L29.0499 35.0714L29.0805 33.2375H16.762L16.3676 30.4754C16.2826 29.9001 15.9942 29.3743 15.5548 28.9933C15.1154 28.6123 14.554 28.4014 13.9725 28.3988H12.1451C10.8112 28.3988 9.7257 29.4843 9.7257 30.8181C9.7257 32.152 10.8112 33.2375 12.1451 33.2375ZM17.7902 42.1085C17.7902 42.3223 17.7052 42.5275 17.554 42.6787C17.4028 42.8299 17.1976 42.9149 16.9838 42.9149C16.7699 42.9149 16.5648 42.8299 16.4135 42.6787C16.2623 42.5275 16.1773 42.3223 16.1773 42.1085C16.1773 41.8946 16.2623 41.6895 16.4135 41.5382C16.5648 41.387 16.7699 41.302 16.9838 41.302C17.1976 41.302 17.4028 41.387 17.554 41.5382C17.7052 41.6895 17.7902 41.8946 17.7902 42.1085ZM26.6612 42.9149C26.4473 42.9149 26.2422 42.8299 26.0909 42.6787C25.9397 42.5275 25.8547 42.3223 25.8547 42.1085C25.8547 41.8946 25.9397 41.6895 26.0909 41.5382C26.2422 41.387 26.4473 41.302 26.6612 41.302C26.8751 41.302 27.0802 41.387 27.2314 41.5382C27.3827 41.6895 27.4676 41.8946 27.4676 42.1085C27.4676 42.3223 27.3827 42.5275 27.2314 42.6787C27.0802 42.8299 26.8751 42.9149 26.6612 42.9149ZM27.4354 34.8504L26.0523 39.6891H17.683L16.9918 34.8504H27.4354ZM12.1451 30.0117H13.9725C14.3709 30.0117 14.7144 30.3093 14.7701 30.7036L14.9015 31.6246H12.1451C11.9312 31.6246 11.726 31.5396 11.5748 31.3884C11.4236 31.2371 11.3386 31.032 11.3386 30.8181C11.3386 30.6043 11.4236 30.3991 11.5748 30.2479C11.726 30.0967 11.9312 30.0117 12.1451 30.0117ZM12.1451 12.2698C12.5902 12.2698 12.9515 12.6318 12.9515 13.0762H14.5644C14.5644 11.7423 13.4789 10.6568 12.1451 10.6568V9.04395H10.5321V10.6568H8.11279V13.0762C8.11279 14.4101 9.19828 15.4956 10.5321 15.4956H12.1451C12.5902 15.4956 12.9515 15.8577 12.9515 16.302V17.1085H10.5321C10.087 17.1085 9.7257 16.7464 9.7257 16.302H8.11279C8.11279 17.6359 9.19828 18.7214 10.5321 18.7214V20.3343H12.1451V18.7214H14.5644V16.302C14.5644 14.9681 13.4789 13.8827 12.1451 13.8827H10.5321C10.087 13.8827 9.7257 13.5206 9.7257 13.0762V12.2698H12.1451ZM40.3709 28.3988H30.6934V38.0762H40.3709V28.3988ZM38.758 36.4633H32.3063V30.0117H38.758V36.4633ZM38.758 39.6891H40.3709V44.5278H38.758V39.6891ZM35.5322 39.6891H37.1451V44.5278H35.5322V39.6891ZM32.3063 39.6891H33.9192V44.5278H32.3063V39.6891Z" fill="black"/>
</svg>
