<?xml version="1.0" encoding="UTF-8"?>
<svg version="1.1" xmlns="http://www.w3.org/2000/svg" width="40" height="40">
<path d="M0 0 C0.33 0.99 0.66 1.98 1 3 C-1.31 5.64 -3.62 8.28 -6 11 C2.25 11.33 10.5 11.66 19 12 C18.67 13.32 18.34 14.64 18 16 C10.08 16.33 2.16 16.66 -6 17 C-3.69 19.64 -1.38 22.28 1 25 C0.01 25.99 -0.98 26.98 -2 28 C-6.75316473 24.16090541 -11.60286569 20.13925447 -15 15 C-15 14.01 -15 13.02 -15 12 C-13.37946188 10.61096733 -11.70294787 9.28667172 -10 8 C-7.71830265 5.77262878 -5.48514077 3.52107713 -3.3125 1.1875 C-2 0 -2 0 0 0 Z " fill="#000000" transform="translate(18,6)"/>
</svg>
