<svg width="67" height="51" viewBox="0 0 67 51" fill="none" xmlns="http://www.w3.org/2000/svg">
<path d="M63.755 7.29173H60.639V4.70239C60.639 2.64957 58.969 0.979492 56.9163 0.979492H53.9465C51.8937 0.979492 50.2238 2.64957 50.2238 4.70239V15.3616H45.2472V12.4998C45.2472 10.4229 43.5576 8.73336 41.4808 8.73336C40.6954 8.73271 39.9297 8.9792 39.2922 9.4379C38.6854 8.16988 37.3898 7.29173 35.8926 7.29173C34.4773 7.29173 33.2421 8.0764 32.5988 9.23356C31.9629 8.74334 31.1676 8.45019 30.3044 8.45019C28.9944 8.45019 27.8395 9.12323 27.1647 10.141C26.5057 9.57572 25.6505 9.23317 24.7163 9.23317C22.6394 9.23317 20.9498 10.9227 20.9498 12.9996V15.3618H16.3012V12.6168C16.3012 12.0796 15.8658 11.6444 15.3288 11.6444C14.7918 11.6444 14.3564 12.0796 14.3564 12.6168V35.2068C14.3564 36.1872 13.5587 36.9847 12.5784 36.9847H9.60829C8.62784 36.9847 7.83034 36.1872 7.83034 35.2068V4.70239C7.83034 3.72195 8.62797 2.92431 9.60829 2.92431H12.578C13.5585 2.92431 14.356 3.72195 14.356 4.70239V8.47249C14.356 9.00965 14.7914 9.4449 15.3284 9.4449C15.8654 9.4449 16.3008 9.00965 16.3008 8.47249V4.70239C16.3008 2.64957 14.6307 0.979492 12.578 0.979492H9.60829C7.55547 0.979492 5.88552 2.64957 5.88552 4.70239V7.29173H2.76953C1.26904 7.29173 0.0483398 8.51242 0.0483398 10.0128V29.8961C0.0483398 31.3966 1.26904 32.6173 2.76953 32.6173H5.88552V35.2066C5.88552 37.2593 7.5556 38.9294 9.60829 38.9294H12.578C14.6309 38.9294 16.3008 37.2593 16.3008 35.2066V24.5475H19.6332V26.3231C19.634 27.2379 19.9517 28.1242 20.5322 28.8312L23.5521 32.5028V50.0071C23.5521 50.5442 23.9875 50.9795 24.5245 50.9795C25.0616 50.9795 25.4969 50.5442 25.4969 50.0071V32.1543C25.4969 31.9289 25.4186 31.7106 25.2755 31.5365L22.0341 27.5956C21.7395 27.2369 21.5783 26.7872 21.5779 26.3231V24.5475L39.9678 24.6599C40.5048 24.6599 40.9402 24.2246 40.9402 23.6875C40.9402 23.1503 40.5048 22.715 39.9678 22.715H35.5434C34.6306 22.715 33.8879 21.9724 33.8879 21.0597C33.8879 20.147 34.6306 19.4043 35.5434 19.4043H43.9044C44.4789 19.4043 44.9463 19.8716 44.9463 20.4461V26.3229C44.9463 26.7859 44.7842 27.238 44.49 27.5955L41.2487 31.5364C41.1055 31.7104 41.0272 31.9288 41.0272 32.1542V34.7189C41.0272 35.256 41.4626 35.6913 41.9996 35.6913C42.5367 35.6913 42.972 35.256 42.972 34.7189V32.5027L45.992 28.8311C46.5724 28.1241 46.8901 27.2378 46.891 26.3229V24.5473H50.2234V35.2065C50.2234 37.2592 51.8934 38.9293 53.9461 38.9293H56.9159C58.9687 38.9293 60.6387 37.2592 60.6387 35.2065V32.6172H63.7546C65.2551 32.6172 66.4758 31.3965 66.4758 29.896V10.0128C66.4762 8.51242 65.2555 7.29173 63.755 7.29173ZM2.76953 30.6725C2.5637 30.6722 2.36636 30.5904 2.22082 30.4448C2.07527 30.2993 1.9934 30.1019 1.99316 29.8961V10.0128C1.9934 9.80697 2.07528 9.60965 2.22083 9.46412C2.36638 9.3186 2.56371 9.23675 2.76953 9.23655H5.88552V30.6725H2.76953ZM41.4806 10.6782C42.4852 10.6782 43.3023 11.4954 43.3023 12.4998V16.1202C43.3023 16.6336 43.0845 17.1167 42.7117 17.4596H40.2494C40.0636 17.2894 39.9152 17.0825 39.8135 16.8519C39.7118 16.6213 39.6592 16.3722 39.6589 16.1202V12.4998C39.6589 11.4954 40.4761 10.6782 41.4806 10.6782ZM34.0707 11.0582C34.0707 10.0538 34.888 9.23655 35.8924 9.23655C36.8968 9.23655 37.714 10.0538 37.714 11.0582V16.1202C37.714 16.6336 37.4962 17.1167 37.1235 17.4596H35.5435C35.2751 17.4596 35.0137 17.4901 34.7619 17.5461C34.5462 17.3763 34.3719 17.1598 34.2521 16.9127C34.1323 16.6657 34.0703 16.3947 34.0706 16.1202L34.0707 11.0582ZM28.4825 12.2165C28.4825 11.2121 29.2997 10.3949 30.3041 10.3949C31.3086 10.3949 32.1259 11.2121 32.1259 12.2165V16.12C32.1259 17.1246 31.3087 17.9418 30.3041 17.9418C29.2996 17.9418 28.4825 17.1246 28.4825 16.12V12.2165ZM22.8943 12.9995C22.8943 11.9951 23.7115 11.1779 24.7159 11.1779C25.7203 11.1779 26.5375 11.9951 26.5375 12.9995V16.1202C26.5375 17.1247 25.7203 17.9419 24.7159 17.9419C23.7115 17.9419 22.8943 17.1247 22.8943 16.1202V12.9995ZM16.3009 17.3064H21.142C21.6402 18.8036 23.0536 19.8866 24.716 19.8866C25.8235 19.8866 26.8208 19.4059 27.5106 18.6425C28.2004 19.4057 29.1969 19.8866 30.3043 19.8866C31.1064 19.8866 31.849 19.6321 32.4604 19.203C32.1215 19.763 31.9427 20.4052 31.9435 21.0597C31.9435 21.6116 32.0686 22.1347 32.2915 22.6025H16.3009V17.3064ZM46.8914 22.6026V20.4462C46.8914 19.158 46.0714 18.0577 44.9261 17.6396C44.974 17.5308 45.0167 17.4196 45.0543 17.3064H50.2238V22.6026H46.8914ZM64.5314 29.8961C64.5312 30.1019 64.4493 30.2993 64.3037 30.4448C64.1582 30.5904 63.9609 30.6722 63.755 30.6725H60.639V27.8623C60.639 27.3252 60.2037 26.8899 59.6666 26.8899C59.1296 26.8899 58.6942 27.3252 58.6942 27.8623V35.2066C58.6942 36.1871 57.8966 36.9846 56.9163 36.9846H53.9465C52.9661 36.9846 52.1686 36.1871 52.1686 35.2066V4.70239C52.1686 3.72195 52.9662 2.92431 53.9465 2.92431H56.9163C57.8967 2.92431 58.6942 3.72195 58.6942 4.70239V23.7182C58.6942 24.2553 59.1296 24.6906 59.6666 24.6906C60.2037 24.6906 60.639 24.2553 60.639 23.7182V9.23655H63.755C63.9608 9.23675 64.1582 9.3186 64.3037 9.46412C64.4493 9.60965 64.5312 9.80697 64.5314 10.0128V29.8961Z" fill="black"/>
<path d="M42 37.8906C41.7421 37.8906 41.4948 37.9931 41.3124 38.1754C41.13 38.3578 41.0276 38.6051 41.0276 38.863V50.007C41.0276 50.5441 41.463 50.9794 42 50.9794C42.537 50.9794 42.9724 50.5441 42.9724 50.007V38.863C42.9724 38.3259 42.5372 37.8906 42 37.8906Z" fill="black"/>
</svg>
