<svg width="51" height="51" viewBox="0 0 51 51" fill="none" xmlns="http://www.w3.org/2000/svg">
<path d="M2.12012 21.283C1.62253 21.3637 1.16445 21.6034 0.814433 21.9662C0.464421 22.3289 0.241299 22.7953 0.178456 23.2955C0.00682469 24.8515 0.00514202 26.4216 0.173438 27.978C0.230534 28.4857 0.451654 28.9609 0.803259 29.3316C1.15486 29.7023 1.61777 29.9482 2.12177 30.0321L4.7734 30.4662C5.28248 32.6345 6.1418 34.7053 7.31751 36.597L5.75674 38.777C5.1348 39.6202 5.14986 40.7743 5.79343 41.6011C6.2902 42.2089 6.81871 42.79 7.37674 43.342C7.88844 43.8545 8.45419 44.3695 9.13339 44.9403C9.53271 45.2474 10.0209 45.4165 10.5246 45.4224C11.0283 45.4283 11.5203 45.2705 11.9267 44.9728L14.1175 43.4011C16.0072 44.5767 18.076 45.4363 20.2424 45.9461L20.6774 48.6019C20.758 49.0997 20.9976 49.5579 21.3604 49.9081C21.7232 50.2583 22.1896 50.4815 22.6899 50.5444C23.1696 50.5983 23.651 50.6353 24.1332 50.6552H24.2041C24.6384 50.6549 25.056 50.4878 25.3707 50.1885C25.5326 50.0338 25.6613 49.8478 25.7492 49.6418C25.837 49.4358 25.882 49.2141 25.8815 48.9902V42.3119C25.8765 41.4196 25.1722 40.6881 24.2806 40.6495C16.3046 40.233 10.051 33.6444 10.051 25.6575C10.051 17.6706 16.3046 11.082 24.2806 10.6656C25.1736 10.6264 25.8784 9.89277 25.8815 8.99894V2.32404C25.8821 2.09988 25.8371 1.87795 25.7491 1.67178C25.6611 1.46561 25.5321 1.27953 25.3698 1.12491C25.2078 0.966008 25.0147 0.842418 24.8025 0.761947C24.5904 0.681476 24.3639 0.645874 24.1373 0.657388C23.6523 0.676556 23.1714 0.71152 22.6781 0.761538C22.1782 0.825959 21.7128 1.05116 21.352 1.40318C20.9913 1.75521 20.7547 2.21497 20.6781 2.71316L20.244 5.36644C18.0776 5.87664 16.0088 6.73652 14.119 7.91227L11.9282 6.34394C11.5182 6.04409 11.0215 5.88624 10.5136 5.89436C10.0057 5.90248 9.51437 6.07613 9.11414 6.38894C8.50995 6.88351 7.9317 7.40893 7.38168 7.96312C6.8148 8.51727 6.28111 9.10439 5.78339 9.72141C5.47387 10.1212 5.30262 10.6108 5.29541 11.1164C5.2882 11.622 5.44542 12.1162 5.74341 12.5247L7.31422 14.7181C6.13952 16.6096 5.28131 18.6801 4.7734 20.848L2.12012 21.283ZM6.28094 21.748C6.76543 19.3943 7.69486 17.1548 9.01929 15.1497C9.11198 15.0089 9.15977 14.8432 9.15635 14.6747C9.15293 14.5061 9.09845 14.3425 9.00012 14.2055L7.09934 11.5514C7.0137 11.4384 6.96632 11.3011 6.96407 11.1593C6.96182 11.0175 7.00483 10.8787 7.08683 10.7631C7.54362 10.197 8.03365 9.65852 8.55431 9.15056C9.06007 8.63965 9.59129 8.15459 10.1459 7.69723C10.2621 7.60869 10.4041 7.56074 10.5501 7.56074C10.6961 7.56074 10.8381 7.60869 10.9543 7.69723L13.6043 9.59891C13.7414 9.697 13.9051 9.75119 14.0736 9.75432C14.2422 9.75745 14.4078 9.70937 14.5485 9.61644C16.5518 8.2915 18.7901 7.36176 21.1426 6.87727C21.3078 6.84321 21.4588 6.75982 21.5756 6.6381C21.6924 6.51639 21.7695 6.36209 21.7968 6.19561L22.3209 2.98645C22.3392 2.84623 22.4021 2.7156 22.5002 2.61375C22.5983 2.5119 22.7265 2.44421 22.8659 2.42062C23.3145 2.37399 23.7644 2.34175 24.2151 2.32395L24.1967 8.99968C15.3248 9.45281 8.36526 16.7809 8.3702 25.6644C8.37505 34.548 15.3427 41.8684 24.2151 42.3118L24.2034 48.99C23.7596 48.9716 23.3165 48.9374 22.8751 48.8875C22.7351 48.8671 22.6055 48.8017 22.5057 48.7014C22.4059 48.601 22.3414 48.471 22.3218 48.3308L21.7968 45.12C21.7695 44.9535 21.6924 44.7992 21.5756 44.6775C21.4588 44.5558 21.3078 44.4724 21.1426 44.4384C18.79 43.9535 16.5518 43.0235 14.5485 41.6984C14.4077 41.6056 14.2421 41.5576 14.0735 41.5609C13.9049 41.5642 13.7413 41.6185 13.6043 41.7167L10.9518 43.6201C10.8416 43.7058 10.7069 43.754 10.5673 43.7577C10.4277 43.7615 10.2906 43.7205 10.176 43.6409C9.56348 43.125 9.03261 42.6409 8.55431 42.1633C8.04333 41.6585 7.55853 41.1278 7.10181 40.5734C7.01429 40.4565 6.96699 40.3144 6.96699 40.1684C6.96699 40.0224 7.01429 39.8803 7.10181 39.7634L9.00094 37.1117C9.09915 36.9747 9.15348 36.8111 9.15676 36.6425C9.16004 36.4739 9.1121 36.3083 9.01929 36.1676C7.69477 34.1628 6.76534 31.9236 6.28094 29.5702C6.24693 29.405 6.16365 29.2541 6.0421 29.1373C5.92054 29.0206 5.76643 28.9434 5.6001 28.916L2.39177 28.3901C2.24644 28.3661 2.11297 28.2952 2.01171 28.1882C1.91045 28.0812 1.84697 27.944 1.83095 27.7976C1.67488 26.3643 1.67656 24.9182 1.83597 23.4852C1.85617 23.345 1.92124 23.2152 2.02145 23.1151C2.12165 23.0151 2.25158 22.9502 2.39177 22.9302L5.5992 22.4052C5.76614 22.3778 5.9208 22.3003 6.04259 22.1829C6.16438 22.0655 6.24752 21.9138 6.28094 21.748Z" fill="black"/>
<path d="M47.5481 23.1572C47.0328 23.1593 46.5309 23.3206 46.1108 23.6189C45.6908 23.9172 45.3731 24.3381 45.2014 24.8238H25.8816V22.3238H39.2148C40.5955 22.3238 41.7148 21.2045 41.7148 19.8239V15.5039C42.8627 15.0981 43.5513 13.9242 43.3454 12.7242C43.1395 11.5242 42.0989 10.647 40.8814 10.647C39.6638 10.647 38.6233 11.5242 38.4174 12.7242C38.2115 13.9242 38.9001 15.0981 40.048 15.5039V19.8239C40.048 20.2841 39.6749 20.6572 39.2147 20.6572H25.8816V18.1572H35.0482C35.5084 18.1572 35.8814 17.7841 35.8814 17.3238C35.8814 16.8636 35.5084 16.4905 35.0482 16.4905H25.8816V14.8238H30.8816C32.2623 14.8238 33.3816 13.7046 33.3816 12.3238V7.17069C34.5295 6.76486 35.2181 5.59099 35.0122 4.39096C34.8063 3.19093 33.7658 2.31372 32.5482 2.31372C31.3307 2.31372 30.2902 3.19093 30.0842 4.39096C29.8783 5.59099 30.5669 6.76486 31.7149 7.17069V12.324C31.7149 12.7842 31.3418 13.1573 30.8815 13.1573H25.6616C25.5212 12.8965 25.3086 12.6816 25.0492 12.5386C24.7898 12.3955 24.4946 12.3303 24.1991 12.3507C17.1767 12.7955 11.7087 18.6208 11.7087 25.6572C11.7087 32.6937 17.1767 38.519 24.1991 38.9638H24.2966C24.5759 38.9661 24.8506 38.8922 25.0911 38.7501C25.3317 38.608 25.5289 38.403 25.6616 38.1572H30.8815C31.3417 38.1572 31.7149 38.5302 31.7149 38.9905V44.1438C30.5669 44.5496 29.8783 45.7235 30.0842 46.9235C30.2902 48.1236 31.3307 49.0008 32.5482 49.0008C33.7658 49.0008 34.8063 48.1236 35.0122 46.9235C35.2181 45.7235 34.5295 44.5496 33.3816 44.1438V38.9905C33.3816 37.6098 32.2623 36.4905 30.8816 36.4905H25.8816V34.8239H35.0482C35.5084 34.8239 35.8814 34.4508 35.8814 33.9906C35.8814 33.5304 35.5084 33.1572 35.0482 33.1572H25.8816V30.6573H39.2148C39.675 30.6573 40.0482 31.0304 40.0482 31.4906V35.8105C38.9002 36.2163 38.2117 37.3902 38.4176 38.5902C38.6235 39.7902 39.664 40.6674 40.8815 40.6674C42.0991 40.6674 43.1396 39.7902 43.3455 38.5902C43.5514 37.3902 42.8629 36.2163 41.7149 35.8105V31.4906C41.7149 30.1099 40.5957 28.9906 39.215 28.9906H25.8816V26.4904H45.2014C45.6272 27.686 46.8824 28.3715 48.1184 28.0837C49.3544 27.7959 50.1777 26.6265 50.0318 25.3659C49.8858 24.1054 48.817 23.1549 47.5481 23.1572ZM40.8815 12.324C41.3417 12.324 41.7148 12.6971 41.7148 13.1573C41.7148 13.6176 41.3417 13.9907 40.8815 13.9907C40.4213 13.9907 40.0482 13.6176 40.0482 13.1573C40.0482 12.6971 40.4212 12.324 40.8815 12.324ZM32.5482 3.99073C33.0084 3.99073 33.3816 4.36382 33.3816 4.8241C33.3816 5.28438 33.0085 5.65738 32.5482 5.65738C32.0879 5.65738 31.7149 5.2843 31.7149 4.8241C31.7149 4.3639 32.0879 3.99073 32.5482 3.99073ZM32.5482 47.3236C32.088 47.3236 31.7149 46.9505 31.7149 46.4902C31.7149 46.0299 32.088 45.6569 32.5482 45.6569C33.0084 45.6569 33.3816 46.0299 33.3816 46.4902C33.3816 46.9505 33.0084 47.3236 32.5482 47.3236ZM40.8815 38.9904C40.4213 38.9904 40.0482 38.6173 40.0482 38.157C40.0482 37.6967 40.4213 37.3237 40.8815 37.3237C41.3417 37.3237 41.7148 37.6968 41.7148 38.157C41.7148 38.6172 41.3417 38.9904 40.8815 38.9904ZM13.3817 25.6572C13.3887 19.54 18.114 14.4645 24.215 14.0207V37.2938C18.114 36.8498 13.3887 31.7742 13.3817 25.6572ZM47.5481 26.4904C47.0879 26.4904 46.7147 26.1174 46.7147 25.6571C46.7147 25.1968 47.0878 24.8238 47.5481 24.8238C48.0083 24.8238 48.3814 25.1969 48.3814 25.6571C48.3814 26.1173 48.0083 26.4904 47.5481 26.4904Z" fill="black"/>
</svg>
