<svg width="1296" height="258" viewBox="0 0 1296 258" fill="none" xmlns="http://www.w3.org/2000/svg">
<path d="M46.0014 139.717C45.887 170.081 57.2578 199.317 77.7425 221.33C98.2271 243.343 126.244 256.432 155.951 257.868C185.658 259.304 214.761 248.976 237.191 229.038C259.621 209.1 273.646 181.091 276.343 150.852H242.008C239.266 171.733 228.85 190.768 212.871 204.099C196.893 217.43 176.548 224.059 155.959 222.643C135.371 221.227 116.081 211.871 101.998 196.473C87.9149 181.074 80.0935 160.785 80.1191 139.717C80.1429 136.833 80.3115 133.952 80.624 131.086H115.78C115.264 133.948 115.004 136.851 115.001 139.761C114.999 149.584 117.985 159.165 123.548 167.18C129.111 175.194 136.975 181.246 146.053 184.498C155.132 187.751 164.976 188.043 174.224 185.335C183.472 182.627 191.668 177.051 197.677 169.381C198.064 168.954 198.416 168.496 198.73 168.011C199.796 166.344 200.401 164.414 200.481 162.426C200.561 160.437 200.113 158.463 199.185 156.713C198.257 154.963 196.883 153.501 195.208 152.482C193.533 151.463 191.62 150.925 189.671 150.925H172.359C169.57 150.925 166.895 149.794 164.923 147.781C162.951 145.767 161.843 143.036 161.843 140.188C161.843 137.34 162.951 134.609 164.923 132.596C166.895 130.582 169.57 129.451 172.359 129.451H276.371C276.371 129.245 276.371 129.053 276.371 128.862C276.703 125.253 276.876 121.615 276.876 117.918C276.819 52.9056 224.755 0.23566 161.208 0V21.8722H160.775C145.651 21.8836 130.679 24.9444 116.716 30.8789C102.754 36.8134 90.0771 45.5047 79.4131 56.454C68.7491 67.4033 60.3081 80.395 54.5744 94.6835C48.8407 108.972 45.9273 124.276 46.0014 139.717ZM180.265 82.3631C180.265 79.2228 181.177 76.1531 182.886 73.542C184.595 70.931 187.023 68.8959 189.865 67.6941C192.707 66.4924 195.833 66.178 198.85 66.7906C201.867 67.4033 204.638 68.9155 206.813 71.136C208.988 73.3565 210.469 76.1856 211.069 79.2656C211.669 82.3455 211.361 85.538 210.184 88.4392C209.007 91.3405 207.013 93.8202 204.456 95.5648C201.899 97.3095 198.892 98.2407 195.816 98.2407C193.774 98.2407 191.752 97.83 189.865 97.0321C187.978 96.2342 186.264 95.0646 184.82 93.5903C183.376 92.1159 182.23 90.3656 181.449 88.4392C180.667 86.5129 180.265 84.4482 180.265 82.3631Z" fill="#ED1D24"/>
<path d="M374.007 31.3132C400.465 31.3132 421.974 45.7769 430.009 70.6979H402.528C396.887 59.018 386.659 53.2738 373.849 53.2738C353.017 53.2738 338.159 68.7832 338.159 93.5274C338.159 118.272 353.017 133.796 373.849 133.796C386.645 133.796 396.93 128.037 402.528 116.121H430.009C421.974 141.16 400.465 155.506 374.007 155.506C339.702 155.506 313.591 129.878 313.591 93.4538C313.591 57.0296 339.702 31.3132 374.007 31.3132Z" fill="black"/>
<path d="M450.494 25.5691H474.456V70.0057C480.602 61.8165 491.19 56.5878 503.828 56.5878C525.164 56.5878 540.701 71.2282 540.701 97.8283V154.475H516.724V101.201C516.724 85.6918 508.357 77.3259 495.735 77.3259C482.751 77.3259 474.384 85.6918 474.384 101.201V154.534H450.494V25.5691Z" fill="black"/>
<path d="M600.367 56.411C615.558 56.411 625.973 63.7754 631.614 71.7436V57.987H655.677V154.534H631.614V140.409C625.93 148.76 615.226 156.125 600.194 156.125C576.304 156.125 557.19 136.094 557.19 105.944C557.19 75.794 576.304 56.411 600.367 56.411ZM606.512 77.8413C593.717 77.8413 581.599 87.6065 581.599 105.914C581.599 124.222 593.717 134.665 606.512 134.665C619.655 134.665 631.614 124.561 631.614 106.253C631.614 87.9452 619.655 77.8413 606.512 77.8413Z" fill="black"/>
<path d="M811.363 101.201C811.363 85.8686 802.996 77.8415 790.373 77.8415C777.75 77.8415 769.195 85.8686 769.195 101.201V154.534H745.306V101.201C745.306 85.8686 736.939 77.8415 724.301 77.8415C711.318 77.8415 702.965 85.8686 702.965 101.201V154.534H679.076V57.9871H702.965V69.6523C708.938 61.6399 719.007 56.5879 730.793 56.5879C745.479 56.5879 757.597 63.0391 764.074 75.0577C770.22 64.0848 782.684 56.5879 796.518 56.5879C819.211 56.5879 835.267 71.2283 835.267 97.8284V154.475H811.363V101.201Z" fill="black"/>
<path d="M899.275 156.125C871.794 156.125 851.828 136.609 851.828 106.283C851.828 75.9561 871.289 56.411 899.275 56.411C926.598 56.411 945.886 75.4111 945.886 104.162C945.914 107.313 945.682 110.461 945.193 113.573H876.064C877.261 127.875 886.826 135.887 898.77 135.887C909.013 135.887 914.639 130.659 917.712 124.207H943.491C938.37 141.985 922.66 156.125 899.275 156.125ZM876.194 97.2096H921.087C920.741 84.484 910.845 76.4716 898.554 76.4716C887.157 76.4568 878.112 83.9538 876.237 97.2096H876.194Z" fill="black"/>
<path d="M963.298 25.5691H987.202V154.534H963.298V25.5691Z" fill="black"/>
<path d="M1052.06 156.125C1024.65 156.125 1004.61 136.609 1004.61 106.283C1004.61 75.9561 1024.09 56.411 1052.06 56.411C1079.37 56.411 1098.67 75.4111 1098.67 104.162C1098.7 107.313 1098.47 110.461 1097.98 113.573H1028.85C1030.05 127.875 1039.6 135.887 1051.56 135.887C1061.8 135.887 1067.43 130.659 1070.5 124.207H1096.22C1091.16 141.985 1075.45 156.125 1052.06 156.125ZM1028.98 97.2096H1073.87C1073.53 84.484 1063.63 76.4716 1051.34 76.4716C1039.96 76.4568 1030.9 83.9538 1029.02 97.2096H1028.98Z" fill="black"/>
<path d="M1158.08 156.125C1130.76 156.125 1110.1 136.609 1110.1 106.283C1110.1 75.9561 1131.45 56.4406 1158.76 56.4406C1186.07 56.4406 1207.4 75.7794 1207.4 106.283C1207.4 136.786 1185.56 156.125 1158.08 156.125ZM1158.08 134.871C1170.7 134.871 1182.82 125.459 1182.82 106.283C1182.82 87.1058 1171.05 77.7089 1158.41 77.7089C1145.77 77.7089 1134.35 86.8996 1134.35 106.253C1134.35 125.607 1145.27 134.842 1158.08 134.842V134.871Z" fill="black"/>
<path d="M472.869 199.736H462.526C461.491 197.839 459.951 196.28 458.086 195.237C456.22 194.195 454.103 193.712 451.98 193.845C443.959 193.845 438.362 199.736 438.362 208.809C438.362 217.882 444.017 223.877 452.37 223.877C459.309 223.877 463.738 219.812 465.094 213.316H449.672V206.291H473.951V214.303C472.917 219.42 470.161 224.006 466.161 227.264C462.16 230.522 457.169 232.247 452.052 232.14C439.069 232.14 429.115 222.492 429.115 208.795C429.017 205.698 429.541 202.615 430.655 199.733C431.768 196.852 433.448 194.233 435.59 192.039C437.732 189.846 440.291 188.123 443.11 186.977C445.929 185.831 448.947 185.286 451.98 185.376C462.006 185.376 469.97 190.56 472.869 199.736Z" fill="black"/>
<path d="M512.772 185.965H540.455V193.329H521.702V205.112H536.027V212.477H521.702V231.816H512.714L512.772 185.965Z" fill="black"/>
<path d="M596.111 216.336L587.297 231.742H577.199L591.336 208.662L577.011 185.965H587.34L597.078 201.312L605.733 185.965H615.832L601.766 208.986L616.091 231.742H605.748L596.111 216.336Z" fill="black"/>
<path d="M718.055 232.199C708.736 232.199 701.551 227.22 701.422 218.56H711.044C711.289 222.242 713.669 224.658 717.853 224.658C722.036 224.658 724.59 222.36 724.59 219.09C724.59 209.178 701.508 215.158 701.508 198.558C701.508 190.295 708.058 185.302 717.305 185.302C726.552 185.302 732.784 190.089 733.361 198.367H723.479C723.277 195.347 720.897 192.976 717.045 192.917C713.511 192.785 710.885 194.552 710.885 198.293C710.885 207.484 733.88 202.358 733.88 218.501C733.924 225.718 728.268 232.199 718.055 232.199Z" fill="black"/>
<path d="M771.446 185.965H804.352V193.329H792.392V231.698H783.405V193.374H771.446V185.965Z" fill="black"/>
<path d="M842.898 185.965H851.9V214.303C851.9 220.592 855.232 223.877 860.96 223.877C866.687 223.877 870.077 220.592 870.077 214.303V185.965H879.136V214.23C879.136 226.307 870.654 232.199 860.83 232.199C851.006 232.199 842.898 226.307 842.898 214.23V185.965Z" fill="black"/>
<path d="M959.259 208.927C959.259 222.757 949.94 231.742 935.615 231.742H919.948V185.965H935.615C949.94 185.965 959.259 195.009 959.259 208.927ZM935.297 223.877C944.746 223.877 950.069 218.368 950.069 208.868C950.069 199.368 944.746 193.639 935.297 193.639H928.878V223.877H935.297Z" fill="black"/>
<path d="M998.123 185.965H1007.11V231.742H998.123V185.965Z" fill="black"/>
<path d="M1068.94 232.199C1064.4 232.202 1059.96 230.83 1056.18 228.256C1052.4 225.683 1049.46 222.023 1047.71 217.741C1045.97 213.458 1045.51 208.745 1046.4 204.196C1047.28 199.647 1049.46 195.468 1052.67 192.186C1055.88 188.904 1059.97 186.667 1064.42 185.758C1068.88 184.848 1073.49 185.308 1077.69 187.077C1081.89 188.847 1085.48 191.848 1088.01 195.7C1090.53 199.553 1091.89 204.084 1091.89 208.721C1091.96 211.818 1091.4 214.896 1090.27 217.77C1089.14 220.645 1087.46 223.257 1085.31 225.449C1083.17 227.641 1080.61 229.369 1077.8 230.529C1074.99 231.689 1071.97 232.257 1068.94 232.199ZM1068.94 224.01C1077.03 224.01 1082.63 218.044 1082.63 208.721C1082.63 199.398 1077.03 193.58 1068.94 193.58C1060.85 193.58 1055.19 199.471 1055.19 208.721C1055.19 217.971 1060.78 224.01 1068.94 224.01Z" fill="black"/>
<path d="M1228.94 68.1646C1224.79 68.1646 1220.74 66.9095 1217.29 64.558C1213.85 62.2064 1211.16 58.864 1209.57 54.9535C1207.99 51.043 1207.57 46.74 1208.38 42.5887C1209.19 38.4373 1211.19 34.6241 1214.12 31.6311C1217.05 28.6381 1220.78 26.5999 1224.85 25.7741C1228.92 24.9484 1233.13 25.3722 1236.96 26.992C1240.79 28.6117 1244.07 31.3548 1246.37 34.8741C1248.67 38.3935 1249.9 42.5311 1249.9 46.7638C1249.89 52.4373 1247.68 57.8761 1243.75 61.8879C1239.82 65.8996 1234.5 68.1569 1228.94 68.1646ZM1228.94 28.4854C1225.4 28.4854 1221.94 29.5574 1218.99 31.5659C1216.05 33.5743 1213.75 36.429 1212.4 39.769C1211.04 43.1089 1210.69 46.7841 1211.38 50.3297C1212.07 53.8754 1213.78 57.1323 1216.28 59.6885C1218.78 62.2448 1221.97 63.9857 1225.45 64.6909C1228.92 65.3962 1232.52 65.0342 1235.79 63.6508C1239.06 62.2674 1241.86 59.9246 1243.83 56.9187C1245.79 53.9128 1246.84 50.3789 1246.84 46.7638C1246.84 41.9173 1244.95 37.2704 1241.59 33.8433C1238.24 30.4163 1233.69 28.4893 1228.94 28.4854Z" fill="black"/>
<path d="M1233.27 56.47L1229.39 50.7847C1229.14 50.7994 1228.9 50.7994 1228.65 50.7847H1224.32V56.4405H1220.8V37.0575H1228.62C1233.63 37.0575 1236.72 39.6645 1236.72 43.9653C1236.77 45.2895 1236.41 46.5976 1235.69 47.6977C1234.96 48.7978 1233.91 49.6319 1232.69 50.0777L1237.02 56.4553L1233.27 56.47ZM1228.49 40.1063H1224.35V47.8389H1228.49C1231.59 47.8389 1233.2 46.3661 1233.2 43.9653C1233.2 41.5645 1231.58 40.1063 1228.48 40.1063H1228.49Z" fill="black"/>
</svg>
